<svg xmlns="http://www.w3.org/2000/svg" width="65" height="54" viewBox="0 0 65 54" fill="none">
  <path d="M53.6663 26.875C53.6663 25.9545 52.9201 25.2083 51.9997 25.2083C51.0792 25.2083 50.333 25.9545 50.333 26.875H53.6663ZM38.082 6.33593C38.8916 6.77379 39.903 6.47238 40.3408 5.66272C40.7787 4.85306 40.4773 3.84174 39.6676 3.40388L38.082 6.33593ZM50.3331 26.6251C50.3331 27.5456 51.0793 28.2918 51.9997 28.2918C52.9202 28.2918 53.6664 27.5456 53.6664 26.6251H50.3331ZM53.1782 2.44676C52.5274 1.79589 51.4721 1.79589 50.8212 2.44676L40.2146 13.0534C39.5637 13.7042 39.5637 14.7595 40.2146 15.4104C40.8655 16.0613 41.9208 16.0613 42.5716 15.4104L51.9997 5.9823L61.4278 15.4104C62.0787 16.0613 63.134 16.0613 63.7848 15.4104C64.4357 14.7595 64.4357 13.7042 63.7848 13.0534L53.1782 2.44676ZM28.6665 14.875C28.6665 13.9545 27.9203 13.2083 26.9999 13.2083C26.0794 13.2083 25.3332 13.9545 25.3332 14.875H28.6665ZM26.9999 28.8749L28.1978 30.0336C28.4985 29.7228 28.6665 29.3073 28.6665 28.8749H26.9999ZM18.4269 35.3411C17.787 36.0027 17.8046 37.0579 18.4662 37.6978C19.1278 38.3377 20.1829 38.3201 20.8229 37.6585L18.4269 35.3411ZM26.9998 0.208333C12.2723 0.208333 0.333333 12.1474 0.333333 26.875H3.66667C3.66667 13.9883 14.1133 3.54167 26.9998 3.54167V0.208333ZM0.333333 26.875C0.333333 41.6026 12.2723 53.5417 26.9998 53.5417V50.2083C14.1133 50.2083 3.66667 39.7617 3.66667 26.875H0.333333ZM26.9998 53.5417C41.7273 53.5417 53.6663 41.6026 53.6663 26.875H50.333C50.333 39.7617 39.8864 50.2083 26.9998 50.2083V53.5417ZM39.6676 3.40388C35.8976 1.36511 31.5813 0.208333 26.9998 0.208333V3.54167C31.0141 3.54167 34.7869 4.55399 38.082 6.33593L39.6676 3.40388ZM53.6664 26.6251V3.62527H50.3331V26.6251H53.6664ZM25.3332 14.875V28.8749H28.6665V14.875H25.3332ZM25.8019 27.7162L18.4269 35.3411L20.8229 37.6585L28.1978 30.0336L25.8019 27.7162Z" fill="#009BE2"/>
</svg>