<svg xmlns="http://www.w3.org/2000/svg" width="54" height="54" viewBox="0 0 54 54" fill="none">
  <path d="M14.4859 51.9991V24.4996L24.4746 2C25.4584 2 26.4325 2.19399 27.3414 2.57089C28.2503 2.9478 29.0762 3.50023 29.7719 4.19666C30.4675 4.89309 31.0193 5.71986 31.3958 6.62979C31.7723 7.53972 31.9661 8.51497 31.9661 9.49986V19.4997H46.9491C47.6731 19.4915 48.3901 19.6409 49.0507 19.9377C49.7112 20.2345 50.2993 20.6715 50.7744 21.2184C51.2495 21.7654 51.6001 22.4092 51.802 23.1052C52.0038 23.8013 52.0521 24.533 51.9434 25.2496L48.4973 47.7492C48.3167 48.9414 47.7118 50.0281 46.794 50.8091C45.8763 51.5901 44.7075 52.0127 43.503 51.9991H14.4859ZM14.4859 51.9991H7.81841C6.40511 52.0241 5.03182 51.5288 3.95925 50.6071C2.88667 49.6854 2.18947 48.4015 2 46.9992V29.4995C2.39261 26.5968 4.89256 24.1704 7.81841 24.2218H14.4859V51.9991Z" stroke="#009BE2" stroke-width="3.33333" stroke-linejoin="round"/>
</svg>