<svg xmlns="http://www.w3.org/2000/svg" width="52" height="50" viewBox="0 0 52 50" fill="none">
  <path d="M24.7642 3.15882C25.1384 2.00718 26.7677 2.00717 27.1419 3.15881L31.8778 17.7346C32.0452 18.2496 32.5251 18.5983 33.0667 18.5983H48.3925C49.6034 18.5983 50.1069 20.1478 49.1272 20.8596L36.7284 29.8679C36.2903 30.1862 36.1069 30.7504 36.2743 31.2654L41.0102 45.8412C41.3844 46.9928 40.0663 47.9505 39.0867 47.2387L26.6878 38.2304C26.2497 37.9121 25.6564 37.9121 25.2183 38.2304L12.8195 47.2387C11.8398 47.9505 10.5217 46.9928 10.8959 45.8412L15.6318 31.2654C15.7992 30.7504 15.6159 30.1862 15.1778 29.8679L2.77888 20.8596C1.79924 20.1478 2.3027 18.5983 3.51361 18.5983H18.8395C19.381 18.5983 19.8609 18.2496 20.0283 17.7346L24.7642 3.15882Z" stroke="#009BE2" stroke-width="3.33333"/>
</svg>