<svg width="109" height="40" viewBox="0 0 109 40" fill="none" xmlns="http://www.w3.org/2000/svg">
<g clip-path="url(#clip0_54_275)">
<path d="M7.42237 21.2528C11.5216 21.2528 14.8447 17.9233 14.8447 13.8161C14.8447 9.70883 11.5216 6.37927 7.42237 6.37927C3.32311 6.37927 0 9.70883 0 13.8161C0 17.9233 3.32311 21.2528 7.42237 21.2528Z" fill="white"/>
<path d="M60.0329 0.836426H63.3024V18.9629H60.0329V17.5836C59.4762 18.1351 58.8229 18.5793 58.1056 18.8939C57.443 19.1649 56.7334 19.3017 56.0177 19.2962C55.1895 19.3015 54.3698 19.1288 53.6138 18.7897C52.8578 18.4507 52.1832 17.9531 51.6354 17.3307C50.4043 16.008 49.741 14.2536 49.7884 12.4456C49.7358 10.6127 50.3983 8.83142 51.6354 7.4801C52.176 6.86332 52.8436 6.37129 53.5922 6.03792C54.3408 5.70456 55.1527 5.53777 55.9718 5.54907C56.7291 5.54451 57.479 5.69714 58.1745 5.99734C58.8902 6.31271 59.5372 6.76571 60.0788 7.33068L60.0329 0.836426ZM56.5913 8.58355C56.1189 8.57121 55.6493 8.66021 55.214 8.84457C54.7788 9.02893 54.3878 9.30441 54.0675 9.65252C53.4081 10.4265 53.0459 11.4108 53.0459 12.4284C53.0459 13.446 53.4081 14.4302 54.0675 15.2042C54.384 15.5556 54.772 15.8349 55.2054 16.0233C55.6388 16.2117 56.1075 16.3047 56.5799 16.2962C57.0585 16.309 57.5343 16.2193 57.9755 16.033C58.4167 15.8466 58.8131 15.568 59.1381 15.2157C59.8331 14.4477 60.1961 13.4352 60.1476 12.3996C60.1709 11.8957 60.0936 11.3921 59.9203 10.9184C59.747 10.4447 59.481 10.0105 59.1381 9.64102C58.8093 9.2984 58.4133 9.0276 57.975 8.84562C57.5367 8.66365 57.0657 8.57442 56.5913 8.58355Z" fill="white"/>
<path d="M79.6844 13.3768H69.1646C69.2862 14.2428 69.7235 15.033 70.3921 15.5952C71.1096 16.1595 72.0045 16.4489 72.9159 16.4113C73.501 16.4192 74.0817 16.3093 74.6236 16.0882C75.1655 15.8671 75.6576 15.5391 76.0707 15.1239L78.824 16.4228C78.1977 17.3436 77.3493 18.0909 76.3575 18.5952C75.2794 19.0911 74.1017 19.331 72.9159 19.2963C71.9938 19.3339 71.0738 19.1808 70.2132 18.8466C69.3527 18.5124 68.5701 18.0042 67.9141 17.3538C67.2769 16.7188 66.7762 15.9599 66.4428 15.1237C66.1093 14.2875 65.9503 13.3918 65.9753 12.4917C65.948 11.5769 66.1045 10.6659 66.4356 9.81283C66.7667 8.95981 67.2656 8.18219 67.9026 7.5262C68.5257 6.87768 69.2773 6.36681 70.109 6.02635C70.9407 5.68589 71.8343 5.52336 72.7323 5.54919C73.6591 5.51243 74.5834 5.6692 75.4464 6.00955C76.3095 6.3499 77.0925 6.86639 77.7456 7.5262C78.3987 8.2228 78.9057 9.04352 79.2367 9.93983C79.5678 10.8361 79.7161 11.7899 79.6729 12.7446L79.6844 13.3768ZM76.4148 10.7906C76.2008 10.0678 75.7477 9.43954 75.13 9.00896C74.4843 8.54954 73.7076 8.31165 72.9159 8.3308C72.0536 8.31401 71.2101 8.58492 70.5182 9.10092C70.0023 9.56047 69.6082 10.141 69.371 10.7906H76.4148Z" fill="white"/>
<path d="M82.7276 0.874146H86.0627V5.9269H88.0245V8.73722H86.0627V18.9275H82.7276V8.73722H81.0312V5.9269H82.7276V0.874146Z" fill="white"/>
<path d="M90.9844 0.503199C91.2587 0.498662 91.5311 0.551517 91.7839 0.658391C92.0367 0.765266 92.2645 0.92381 92.4528 1.12389C92.6521 1.32237 92.8097 1.55893 92.9161 1.81955C93.0225 2.08018 93.0756 2.35956 93.0723 2.64113C93.076 2.91831 93.0241 3.19341 92.9196 3.4501C92.8152 3.70678 92.6603 3.93983 92.4642 4.13538C92.2728 4.33316 92.0437 4.49041 91.7905 4.59779C91.5372 4.70517 91.2651 4.7605 90.9901 4.7605C90.7151 4.7605 90.4429 4.70517 90.1897 4.59779C89.9365 4.49041 89.7074 4.33316 89.5159 4.13538C89.3146 3.93596 89.1559 3.69759 89.0494 3.43479C88.9429 3.17199 88.8909 2.89023 88.8965 2.60664C88.8949 2.3315 88.9479 2.05879 89.0523 1.80429C89.1567 1.5498 89.3104 1.31857 89.5046 1.12401C89.6988 0.929452 89.9296 0.775417 90.1836 0.670826C90.4376 0.566236 90.7097 0.513167 90.9844 0.514691V0.503199ZM89.3439 5.88251H92.6134V18.963H89.3439V5.88251Z" fill="white"/>
<path d="M95.619 0.836426H98.8885V11.2732L103.707 5.8824H107.848L102.227 12.1583L108.514 18.9629H104.407L98.8656 12.9399V18.9629H95.619V0.836426Z" fill="white"/>
<path d="M52.3122 20.5454C52.5889 20.5442 52.8629 20.5997 53.1173 20.7084C53.3718 20.8171 53.6014 20.9768 53.7921 21.1776C53.9931 21.3749 54.1517 21.6112 54.2582 21.8721C54.3648 22.133 54.417 22.413 54.4116 22.6949C54.4159 22.9731 54.3631 23.2493 54.2565 23.5063C54.15 23.7634 53.9919 23.9957 53.7921 24.1891C53.6052 24.3877 53.3793 24.5455 53.1285 24.6523C52.8778 24.7591 52.6076 24.8127 52.3352 24.8098C52.0567 24.8119 51.7808 24.7569 51.5243 24.6482C51.2678 24.5394 51.0363 24.3793 50.8438 24.1776C50.6437 23.9755 50.4867 23.7347 50.3821 23.47C50.2776 23.2052 50.2278 22.922 50.2358 22.6374C50.2388 22.0855 50.4582 21.5568 50.8466 21.1655C51.235 20.7741 51.7614 20.5515 52.3122 20.5454ZM50.6717 25.9362H53.9298V39.0167H50.6717V25.9362Z" fill="white"/>
<path d="M66.549 20.8903H69.83V39.0167H66.549V37.6374C65.9923 38.189 65.339 38.6332 64.6217 38.9477C63.9608 39.2242 63.25 39.3612 62.5338 39.35C61.7075 39.3537 60.89 39.1802 60.1361 38.8412C59.3823 38.5022 58.7095 38.0055 58.163 37.3845C56.9318 36.0618 56.2685 34.3075 56.316 32.4995C56.2441 30.6739 56.8862 28.8923 58.1056 27.5339C58.9093 26.6404 59.9687 26.0173 61.1391 25.7499C62.3095 25.4824 63.5338 25.5836 64.6447 26.0397C65.3607 26.3595 66.0076 26.8163 66.549 27.3845V20.8903ZM63.1074 28.6259C62.6342 28.6158 62.1643 28.7069 61.7291 28.8932C61.2939 29.0795 60.9033 29.3567 60.5836 29.7063C59.9242 30.4804 59.562 31.4646 59.562 32.4822C59.562 33.4998 59.9242 34.4841 60.5836 35.2581C60.9001 35.6095 61.2881 35.8888 61.7215 36.0771C62.1549 36.2655 62.6236 36.3586 63.0959 36.35C63.5747 36.3636 64.0507 36.2742 64.492 36.0878C64.9333 35.9015 65.3296 35.6224 65.6542 35.2696C66.3522 34.5027 66.7192 33.4904 66.6752 32.4535C66.6953 31.9471 66.6155 31.4418 66.4403 30.9665C66.2651 30.4911 65.9979 30.0551 65.6542 29.6834C65.3254 29.3407 64.9294 29.0699 64.4911 28.888C64.0528 28.706 63.5817 28.6168 63.1074 28.6259Z" fill="white"/>
<path d="M86.2235 33.4305H75.7266C75.8262 34.2854 76.2342 35.0743 76.8738 35.6489C77.5932 36.2097 78.4868 36.4986 79.3977 36.465C79.9923 36.4807 80.5839 36.3746 81.1363 36.1533C81.6886 35.9319 82.19 35.5999 82.6098 35.1776L85.3631 36.4765C84.7369 37.3974 83.8884 38.1447 82.8966 38.6489C81.8185 39.1448 80.6408 39.3847 79.455 39.35C78.5313 39.3864 77.6099 39.2328 76.7477 38.8988C75.8855 38.5647 75.1007 38.0572 74.4418 37.4075C73.8066 36.7716 73.308 36.0122 72.9766 35.176C72.6452 34.3399 72.4879 33.4447 72.5145 32.5454C72.4871 31.6306 72.6437 30.7196 72.9748 29.8665C73.3059 29.0135 73.8047 28.2359 74.4418 27.5799C75.0649 26.9314 75.8164 26.4205 76.6481 26.0801C77.4798 25.7396 78.3734 25.5771 79.2715 25.6029C80.1982 25.5661 81.1225 25.7229 81.9856 26.0633C82.8486 26.4036 83.6316 26.9201 84.2847 27.5799C84.9378 28.2765 85.4448 29.0972 85.7758 29.9935C86.1069 30.8899 86.2552 31.8436 86.212 32.7983L86.2235 33.4305ZM82.954 30.8443C82.7433 30.1199 82.2894 29.4906 81.6691 29.0627C81.0245 28.5999 80.2479 28.358 79.455 28.373C78.5897 28.3597 77.7437 28.6301 77.0459 29.1431C76.533 29.6099 76.1396 30.1933 75.8987 30.8443H82.954Z" fill="white"/>
<path d="M98.51 25.9362H101.791V39.0167H98.51V37.6374C97.9592 38.1909 97.3093 38.6354 96.5942 38.9477C95.9292 39.2242 95.2147 39.3611 94.4948 39.35C93.6687 39.3522 92.8517 39.178 92.098 38.8391C91.3444 38.5002 90.6714 38.0043 90.124 37.3845C88.8928 36.0618 88.2295 34.3074 88.277 32.4994C88.205 30.6738 88.8472 28.8922 90.0666 27.5339C90.8702 26.6404 91.9297 26.0173 93.1001 25.7498C94.2705 25.4824 95.4948 25.5836 96.6056 26.0397C97.3234 26.3566 97.9708 26.8138 98.51 27.3845V25.9362ZM95.0684 28.6259C94.5954 28.6172 94.126 28.709 93.6909 28.8952C93.2559 29.0815 92.8652 29.3579 92.5445 29.7063C91.8917 30.4834 91.5337 31.4665 91.5337 32.4822C91.5337 33.4979 91.8917 34.481 92.5445 35.258C92.8611 35.6094 93.2491 35.8887 93.6825 36.0771C94.1159 36.2655 94.5846 36.3585 95.0569 36.35C95.5356 36.3636 96.0117 36.2742 96.453 36.0878C96.8943 35.9014 97.2906 35.6224 97.6152 35.2695C98.3257 34.5082 98.7053 33.4952 98.6706 32.4534C98.6907 31.9471 98.6108 31.4418 98.4356 30.9664C98.2604 30.4911 97.9933 30.055 97.6496 29.6833C97.3168 29.3364 96.9152 29.063 96.4707 28.8809C96.0261 28.6988 95.5485 28.6119 95.0684 28.6259Z" fill="white"/>
<path d="M104.739 20.8903H108.02V39.0167H104.739V20.8903Z" fill="white"/>
<path d="M2.82208 0V3.93103C10.4604 3.85683 18.0714 4.85504 25.4334 6.89655C33.98 9.66667 41.3679 13.7931 41.6203 19.7011C41.5286 24.1379 37.4904 27.5632 31.938 30.1839C25.6318 32.889 18.9291 34.5505 12.0914 35.1034V23.2644H2.82208V39.9885C14.6726 38.6667 47.6316 33.3448 47.884 19.8851C47.3793 6.66667 14.7071 1.28736 2.82208 0Z" fill="white"/>
</g>
<defs>
<clipPath id="clip0_54_275">
<rect width="108.491" height="40" fill="white"/>
</clipPath>
</defs>
</svg>
