<svg width="600" height="598" viewBox="0 0 741 595" fill="none" xmlns="http://www.w3.org/2000/svg">
<g filter="url(#filter0_b_361_564)">
<path d="M395.546 145.353C405.494 135.405 423.046 132.353 433.047 134.853L656.327 197.622C676.827 204.052 670.732 231.164 660.784 241.112L319.981 581.915C310.033 591.863 290.992 596.831 277.452 593.013L59.3465 531.5C45.8064 527.682 39.8272 499.552 51.7638 488.506L395.546 145.353Z" fill="url(#paint0_linear_361_564)" fill-opacity="0.4"/>
<path d="M394.724 145.545C404.076 136.193 421.977 131.522 434.706 135.112L655.748 197.452C668.477 201.042 671.215 211.534 661.863 220.886L318.902 563.846C309.55 573.199 291.65 577.87 278.92 574.28L57.8787 511.94C45.1492 508.35 42.4115 497.858 51.7638 488.506L394.724 145.545Z" fill="url(#paint1_linear_361_564)" fill-opacity="0.4"/>
<path d="M394.724 145.545C404.076 136.193 421.977 131.522 434.706 135.112L655.748 197.452C668.477 201.042 671.215 211.534 661.863 220.886L318.902 563.846C309.55 573.199 291.65 577.87 278.92 574.28L57.8787 511.94C45.1492 508.35 42.4115 497.858 51.7638 488.506L394.724 145.545Z" fill="white" fill-opacity="0.4"/>
<path d="M396.183 145.989L396.182 145.99L52.4002 489.142L52.3996 489.143L396.183 145.989ZM396.183 145.989C401.009 141.163 407.72 137.976 414.492 136.309C421.263 134.642 427.992 134.52 432.816 135.723M396.183 145.989L432.816 135.723M664.189 203.394C665.187 204.58 665.861 205.878 666.215 207.236C667.214 211.062 665.766 215.711 661.226 220.25L318.266 563.21C313.729 567.747 307.071 571.187 299.95 573.046C292.83 574.904 285.339 575.155 279.164 573.414L58.123 511.073C51.9444 509.331 48.4099 505.983 47.4114 502.156C47.0702 500.848 47.0147 499.445 47.2706 497.982C47.9156 495.675 48.8733 493.543 50.1669 491.703C50.8034 490.852 51.544 489.999 52.3927 489.149L664.189 203.394ZM664.189 203.394C662.211 201.284 659.553 199.58 656.071 198.485C656.066 198.484 656.062 198.483 656.058 198.481L432.828 135.726C432.824 135.725 432.82 135.724 432.816 135.723M664.189 203.394L432.816 135.723M46.281 504.348C47.9971 508.18 51.9214 511.195 57.6344 512.806L278.676 575.146C285.23 576.995 293.055 576.705 300.405 574.787C307.755 572.869 314.723 569.298 319.539 564.483L662.499 221.523C665.957 218.065 667.891 214.369 668.254 210.835C668.877 213.106 669.132 215.538 669.074 218.027C668.874 226.642 664.943 235.68 660.148 240.475L319.344 581.279C314.51 586.113 307.418 589.777 299.836 591.755C292.255 593.734 284.277 594.002 277.697 592.146L59.5908 530.634C56.4708 529.754 53.7155 527.451 51.5149 524.218C49.3172 520.99 47.714 516.89 46.8854 512.545C46.3675 509.828 46.1565 507.047 46.281 504.348Z" stroke="url(#paint2_radial_361_564)" stroke-width="1.8"/>
<path d="M396.183 145.989L396.182 145.99L52.4002 489.142L52.3996 489.143L396.183 145.989ZM396.183 145.989C401.009 141.163 407.72 137.976 414.492 136.309C421.263 134.642 427.992 134.52 432.816 135.723M396.183 145.989L432.816 135.723M664.189 203.394C665.187 204.58 665.861 205.878 666.215 207.236C667.214 211.062 665.766 215.711 661.226 220.25L318.266 563.21C313.729 567.747 307.071 571.187 299.95 573.046C292.83 574.904 285.339 575.155 279.164 573.414L58.123 511.073C51.9444 509.331 48.4099 505.983 47.4114 502.156C47.0702 500.848 47.0147 499.445 47.2706 497.982C47.9156 495.675 48.8733 493.543 50.1669 491.703C50.8034 490.852 51.544 489.999 52.3927 489.149L664.189 203.394ZM664.189 203.394C662.211 201.284 659.553 199.58 656.071 198.485C656.066 198.484 656.062 198.483 656.058 198.481L432.828 135.726C432.824 135.725 432.82 135.724 432.816 135.723M664.189 203.394L432.816 135.723M46.281 504.348C47.9971 508.18 51.9214 511.195 57.6344 512.806L278.676 575.146C285.23 576.995 293.055 576.705 300.405 574.787C307.755 572.869 314.723 569.298 319.539 564.483L662.499 221.523C665.957 218.065 667.891 214.369 668.254 210.835C668.877 213.106 669.132 215.538 669.074 218.027C668.874 226.642 664.943 235.68 660.148 240.475L319.344 581.279C314.51 586.113 307.418 589.777 299.836 591.755C292.255 593.734 284.277 594.002 277.697 592.146L59.5908 530.634C56.4708 529.754 53.7155 527.451 51.5149 524.218C49.3172 520.99 47.714 516.89 46.8854 512.545C46.3675 509.828 46.1565 507.047 46.281 504.348Z" stroke="url(#paint3_radial_361_564)" stroke-width="1.8"/>
</g>
<g filter="url(#filter1_b_361_564)">
<path d="M358.876 441.618C369.979 444.578 371.914 461.817 362.653 471.077L343.852 489.878C334.592 499.139 316.866 503.765 304.261 500.21L104.14 443.77C92.5747 440.508 90.184 426.778 94.156 418.246C94.8546 416.745 95.9813 415.504 97.1752 414.358L119.046 393.353C128.546 384.353 144.546 382.353 155.047 383.853L358.876 441.618Z" fill="url(#paint4_linear_361_564)"/>
<path d="M356.299 440.504C369.028 444.094 371.766 454.586 362.414 463.938L343.944 482.408C334.592 491.76 316.691 496.431 303.962 492.841L104.291 436.528C91.562 432.938 88.8242 422.446 98.1764 413.094L116.646 394.624C125.998 385.272 143.899 380.601 156.629 384.191L356.299 440.504Z" fill="url(#paint5_linear_361_564)" fill-opacity="0.8"/>
<path d="M358.876 441.618C369.979 444.578 371.914 461.817 362.653 471.077L343.852 489.878C334.592 499.139 316.866 503.765 304.261 500.21L104.14 443.77C92.5747 440.508 90.184 426.778 94.156 418.246C94.8546 416.745 95.9813 415.504 97.1752 414.358L119.046 393.353C128.546 384.353 144.546 382.353 155.047 383.853L358.876 441.618Z" stroke="url(#paint6_radial_361_564)" stroke-opacity="0.7" stroke-width="1.5"/>
<path d="M358.876 441.618C369.979 444.578 371.914 461.817 362.653 471.077L343.852 489.878C334.592 499.139 316.866 503.765 304.261 500.21L104.14 443.77C92.5747 440.508 90.184 426.778 94.156 418.246C94.8546 416.745 95.9813 415.504 97.1752 414.358L119.046 393.353C128.546 384.353 144.546 382.353 155.047 383.853L358.876 441.618Z" stroke="url(#paint7_radial_361_564)" stroke-opacity="0.7" stroke-width="1.5"/>
<path d="M356.299 440.504C369.028 444.094 371.766 454.586 362.414 463.938L343.944 482.408C334.592 491.76 316.691 496.431 303.962 492.841L104.291 436.528C91.562 432.938 88.8242 422.446 98.1764 413.094L116.646 394.624C125.998 385.272 143.899 380.601 156.629 384.191L356.299 440.504Z" stroke="url(#paint8_radial_361_564)" stroke-opacity="0.7" stroke-width="1.5"/>
<path d="M356.299 440.504C369.028 444.094 371.766 454.586 362.414 463.938L343.944 482.408C334.592 491.76 316.691 496.431 303.962 492.841L104.291 436.528C91.562 432.938 88.8242 422.446 98.1764 413.094L116.646 394.624C125.998 385.272 143.899 380.601 156.629 384.191L356.299 440.504Z" stroke="url(#paint9_radial_361_564)" stroke-opacity="0.7" stroke-width="1.5"/>
</g>
<path d="M126.617 429.405C138.419 432.734 155.017 428.402 163.689 419.731C172.36 411.059 169.822 401.331 158.019 398.002C146.216 394.674 129.618 399.005 120.947 407.676C112.275 416.348 114.814 426.076 126.617 429.405Z" fill="#009BE2"/>
<path d="M340.647 465.612L181.789 420.809C179.428 420.144 176.108 421.01 174.374 422.744C172.64 424.479 173.148 426.424 175.508 427.09L334.367 471.893C336.727 472.558 340.047 471.692 341.781 469.958C343.515 468.224 343.008 466.278 340.647 465.612Z" fill="white"/>
<path d="M269.41 445.521L181.789 420.809C179.428 420.144 176.108 421.01 174.374 422.744C172.64 424.479 173.148 426.424 175.508 427.09L263.13 451.802C265.49 452.468 268.81 451.601 270.544 449.867C272.278 448.133 271.771 446.187 269.41 445.521Z" fill="url(#paint10_linear_361_564)"/>
<path d="M155.967 410.653L136.958 415.613L135.436 409.783C135.256 409.092 134.153 408.781 132.974 409.088C131.794 409.396 130.984 410.206 131.164 410.898L133.012 417.98C133.193 418.671 134.295 418.982 135.475 418.674L156.62 413.156C157.8 412.849 158.61 412.039 158.429 411.347C158.249 410.656 157.146 410.345 155.967 410.653Z" fill="#D6DCE5"/>
<g filter="url(#filter2_b_361_564)">
<path d="M589.327 131.382C606.327 137.052 603.234 156.256 593.286 166.203L519.926 239.564C509.978 249.512 490.937 254.48 477.397 250.662L280.663 195.177C267.123 191.358 262.827 171.052 272.104 161.835L349.841 84.0587C350.644 83.2558 351.494 82.5017 352.433 81.8636C362.519 75.0085 378.063 71.51 389.047 74.8528L589.327 131.382Z" fill="url(#paint11_linear_361_564)" fill-opacity="0.8"/>
<path d="M588.25 131.054C600.979 134.644 603.717 145.136 594.365 154.488L518.848 230.006C509.495 239.358 491.595 244.029 478.865 240.439L279.195 184.126C266.466 180.536 263.728 170.044 273.08 160.692L348.597 85.1746C357.95 75.8224 375.85 71.1512 388.58 74.7413L588.25 131.054Z" fill="url(#paint12_linear_361_564)" fill-opacity="0.8"/>
<path d="M589.327 131.382C606.327 137.052 603.234 156.256 593.286 166.203L519.926 239.564C509.978 249.512 490.937 254.48 477.397 250.662L280.663 195.177C267.123 191.358 262.827 171.052 272.104 161.835L349.841 84.0587C350.644 83.2558 351.494 82.5017 352.433 81.8636C362.519 75.0085 378.063 71.51 389.047 74.8528L589.327 131.382Z" stroke="url(#paint13_radial_361_564)" stroke-opacity="0.7" stroke-width="1.5"/>
<path d="M589.327 131.382C606.327 137.052 603.234 156.256 593.286 166.203L519.926 239.564C509.978 249.512 490.937 254.48 477.397 250.662L280.663 195.177C267.123 191.358 262.827 171.052 272.104 161.835L349.841 84.0587C350.644 83.2558 351.494 82.5017 352.433 81.8636C362.519 75.0085 378.063 71.51 389.047 74.8528L589.327 131.382Z" stroke="url(#paint14_radial_361_564)" stroke-opacity="0.7" stroke-width="1.5"/>
<path d="M588.25 131.054C600.979 134.644 603.717 145.136 594.365 154.488L518.848 230.006C509.495 239.358 491.595 244.029 478.865 240.439L279.195 184.126C266.466 180.536 263.728 170.044 273.08 160.692L348.597 85.1746C357.95 75.8224 375.85 71.1512 388.58 74.7413L588.25 131.054Z" stroke="url(#paint15_radial_361_564)" stroke-opacity="0.7" stroke-width="1.5"/>
<path d="M588.25 131.054C600.979 134.644 603.717 145.136 594.365 154.488L518.848 230.006C509.495 239.358 491.595 244.029 478.865 240.439L279.195 184.126C266.466 180.536 263.728 170.044 273.08 160.692L348.597 85.1746C357.95 75.8224 375.85 71.1512 388.58 74.7413L588.25 131.054Z" stroke="url(#paint16_radial_361_564)" stroke-opacity="0.7" stroke-width="1.5"/>
</g>
<path d="M391.532 90.3353L304.289 177.578" stroke="white" stroke-width="0.566353"/>
<path d="M561.557 138.288L474.314 225.531" stroke="white" stroke-width="0.566353"/>
<path d="M326.1 155.768L496.125 203.72" stroke="white" stroke-width="0.566353"/>
<path d="M348.307 133.56L518.333 181.513" stroke="white" stroke-width="0.566353"/>
<path d="M369.721 112.146L539.747 160.099" stroke="white" stroke-width="0.566353"/>
<path d="M391.532 90.3353L561.557 138.287" stroke="white" stroke-width="0.566353"/>
<path d="M304.686 177.182L474.711 225.134" stroke="white" stroke-width="0.566353"/>
<path d="M443.923 163.034L435.358 171.599L433.242 171.002L439.994 164.25L436.511 164.14L437.766 162.885L443.683 162.967L443.923 163.034ZM450.458 171.864L449.238 173.084L440.862 170.722L441.713 169.759L452.347 165.44L454.032 165.916L449.941 167.672L444.142 170.083L450.458 171.864ZM454.503 166.048L445.962 174.59L443.846 173.993L452.387 165.452L454.503 166.048Z" fill="#009BE2"/>
<path d="M486.329 161.267L477.764 169.832L475.648 169.235L482.4 162.483L478.917 162.373L480.172 161.118L486.089 161.199L486.329 161.267ZM484.468 170.181L484.62 170.224C485.306 170.417 485.951 170.516 486.554 170.521C487.162 170.527 487.73 170.454 488.257 170.302C488.794 170.147 489.293 169.925 489.755 169.634C490.225 169.34 490.662 168.992 491.065 168.589L492.614 167.041C492.942 166.712 493.185 166.412 493.34 166.14C493.5 165.864 493.582 165.619 493.585 165.404C493.593 165.191 493.529 165.013 493.393 164.869C493.261 164.721 493.07 164.612 492.82 164.542C492.543 164.464 492.251 164.442 491.944 164.475C491.638 164.509 491.328 164.587 491.014 164.709C490.71 164.829 490.413 164.983 490.122 165.172C489.836 165.362 489.576 165.575 489.341 165.809C489.114 166.036 488.932 166.263 488.794 166.49C488.661 166.718 488.586 166.933 488.57 167.134C488.558 167.336 488.618 167.516 488.747 167.672C488.881 167.825 489.097 167.944 489.395 168.028C489.677 168.108 489.972 168.141 490.279 168.127C490.595 168.111 490.905 168.06 491.208 167.975C491.515 167.887 491.796 167.773 492.051 167.634C492.315 167.493 492.538 167.338 492.721 167.169L493.229 167.613C492.944 167.898 492.58 168.157 492.137 168.388C491.699 168.62 491.221 168.809 490.701 168.953C490.191 169.095 489.676 169.18 489.156 169.209C488.639 169.234 488.16 169.184 487.719 169.059C487.17 168.905 486.76 168.694 486.488 168.427C486.216 168.159 486.068 167.854 486.042 167.511C486.026 167.166 486.118 166.801 486.319 166.416C486.523 166.027 486.823 165.636 487.218 165.241C487.628 164.83 488.101 164.469 488.637 164.159C489.176 163.845 489.748 163.598 490.352 163.417C490.965 163.234 491.586 163.131 492.216 163.108C492.85 163.081 493.463 163.151 494.054 163.318C494.666 163.491 495.124 163.732 495.427 164.044C495.73 164.355 495.893 164.714 495.915 165.121C495.941 165.525 495.831 165.963 495.585 166.435C495.343 166.908 494.972 167.395 494.472 167.896L493.926 168.441C493.398 168.969 492.826 169.449 492.209 169.882C491.592 170.315 490.939 170.685 490.25 170.992C489.56 171.299 488.841 171.53 488.093 171.684C487.35 171.841 486.58 171.907 485.785 171.883C484.999 171.857 484.199 171.729 483.384 171.5L483.201 171.448L484.468 170.181Z" fill="#009BE2"/>
<path d="M534.629 156.344L533.409 157.564L525.536 155.343L526.58 154.299L533.355 152.367C534.077 152.149 534.674 151.952 535.145 151.774C535.617 151.596 535.998 151.423 536.289 151.254C536.59 151.083 536.83 150.908 537.01 150.728C537.272 150.466 537.437 150.219 537.505 149.987C537.577 149.752 537.545 149.545 537.409 149.366C537.279 149.189 537.039 149.051 536.687 148.952C536.299 148.843 535.9 148.815 535.49 148.87C535.089 148.923 534.702 149.044 534.327 149.234C533.958 149.426 533.625 149.67 533.328 149.968L531.212 149.371C531.716 148.866 532.336 148.452 533.069 148.127C533.807 147.799 534.599 147.594 535.446 147.512C536.292 147.429 537.126 147.504 537.945 147.735C538.744 147.96 539.322 148.249 539.68 148.6C540.042 148.948 540.189 149.341 540.12 149.777C540.052 150.214 539.771 150.679 539.279 151.172C539.005 151.446 538.674 151.698 538.285 151.93C537.897 152.161 537.46 152.376 536.974 152.575C536.498 152.772 535.975 152.96 535.406 153.141C534.837 153.321 534.227 153.498 533.576 153.67L529.455 154.884L534.629 156.344ZM537.67 157.224L537.821 157.267C538.508 157.46 539.153 157.559 539.756 157.564C540.364 157.57 540.932 157.497 541.459 157.345C541.996 157.19 542.495 156.968 542.956 156.677C543.427 156.383 543.864 156.035 544.267 155.632L545.815 154.084C546.144 153.755 546.386 153.455 546.542 153.183C546.702 152.907 546.783 152.662 546.787 152.447C546.795 152.234 546.731 152.056 546.595 151.912C546.463 151.764 546.272 151.655 546.021 151.585C545.745 151.507 545.453 151.484 545.146 151.518C544.839 151.552 544.529 151.63 544.216 151.752C543.912 151.872 543.614 152.026 543.323 152.215C543.038 152.405 542.777 152.618 542.543 152.852C542.316 153.079 542.133 153.306 541.995 153.533C541.863 153.761 541.788 153.976 541.771 154.176C541.76 154.379 541.819 154.558 541.949 154.715C542.083 154.868 542.298 154.987 542.597 155.071C542.879 155.151 543.173 155.183 543.48 155.17C543.797 155.154 544.107 155.103 544.41 155.018C544.717 154.929 544.998 154.816 545.253 154.677C545.517 154.536 545.74 154.381 545.923 154.212L546.431 154.656C546.145 154.941 545.781 155.2 545.339 155.431C544.901 155.663 544.423 155.852 543.903 155.996C543.393 156.138 542.877 156.223 542.357 156.252C541.841 156.277 541.362 156.227 540.92 156.102C540.372 155.948 539.962 155.737 539.69 155.47C539.418 155.202 539.269 154.897 539.244 154.554C539.228 154.209 539.32 153.844 539.52 153.459C539.725 153.07 540.024 152.678 540.419 152.283C540.83 151.873 541.303 151.512 541.838 151.202C542.378 150.888 542.949 150.64 543.553 150.46C544.166 150.277 544.788 150.174 545.418 150.151C546.052 150.124 546.665 150.194 547.256 150.361C547.868 150.533 548.325 150.775 548.628 151.086C548.931 151.398 549.094 151.757 549.117 152.164C549.143 152.568 549.033 153.006 548.786 153.477C548.545 153.951 548.174 154.438 547.673 154.938L547.128 155.484C546.6 156.012 546.027 156.492 545.41 156.925C544.793 157.358 544.14 157.728 543.451 158.035C542.762 158.342 542.043 158.573 541.295 158.727C540.551 158.884 539.782 158.95 538.987 158.926C538.201 158.9 537.401 158.772 536.586 158.543L536.403 158.491L537.67 157.224Z" fill="#009BE2"/>
<path d="M360.578 174.477L359.357 175.698L350.982 173.335L351.832 172.372L362.467 168.054L364.152 168.529L360.061 170.286L354.262 172.696L360.578 174.477ZM364.623 168.662L356.081 177.203L353.965 176.606L362.507 168.065L364.623 168.662Z" fill="#009BE2"/>
<path d="M322.17 165.351L323.359 165.687C323.78 165.805 324.179 165.85 324.556 165.821C324.942 165.79 325.296 165.699 325.616 165.549C325.946 165.396 326.237 165.195 326.487 164.944C326.733 164.698 326.885 164.467 326.943 164.253C327.004 164.035 326.959 163.841 326.806 163.673C326.663 163.502 326.4 163.363 326.016 163.255C325.708 163.168 325.378 163.132 325.027 163.149C324.682 163.167 324.348 163.238 324.025 163.362C323.712 163.485 323.44 163.661 323.209 163.892L321.093 163.295C321.555 162.834 322.124 162.475 322.802 162.22C323.49 161.963 324.218 161.815 324.987 161.776C325.756 161.737 326.492 161.817 327.195 162.015C327.961 162.231 328.538 162.514 328.925 162.864C329.322 163.212 329.5 163.61 329.459 164.06C329.424 164.512 329.141 165.003 328.609 165.535C328.354 165.789 328.018 166.02 327.599 166.228C327.189 166.433 326.725 166.593 326.207 166.708C325.699 166.82 325.156 166.875 324.579 166.873C324.01 166.868 323.436 166.784 322.856 166.62L321.331 166.19L322.17 165.351ZM320.973 166.548L321.8 165.721L323.325 166.151C323.98 166.335 324.49 166.552 324.856 166.801C325.231 167.047 325.473 167.316 325.584 167.608C325.699 167.896 325.698 168.194 325.581 168.502C325.469 168.811 325.261 169.118 324.956 169.423C324.557 169.822 324.1 170.15 323.585 170.406C323.073 170.657 322.527 170.839 321.944 170.951C321.367 171.064 320.777 171.108 320.174 171.083C319.575 171.055 318.99 170.96 318.421 170.799C317.926 170.66 317.493 170.475 317.122 170.245C316.761 170.013 316.493 169.744 316.32 169.44C316.151 169.131 316.11 168.794 316.197 168.427C316.287 168.057 316.536 167.668 316.943 167.261L319.059 167.858C318.824 168.093 318.692 168.324 318.663 168.551C318.638 168.78 318.712 168.986 318.883 169.17C319.064 169.351 319.33 169.491 319.681 169.59C320.069 169.7 320.453 169.743 320.831 169.719C321.219 169.693 321.583 169.605 321.924 169.456C322.269 169.302 322.576 169.091 322.846 168.821C323.166 168.5 323.344 168.217 323.378 167.971C323.413 167.725 323.323 167.511 323.108 167.33C322.898 167.151 322.583 167.002 322.163 166.883L320.973 166.548Z" fill="#009BE2"/>
<path d="M403.784 171.572L402.94 172.417L390.676 178.825L388.448 178.197L400.336 172.164L394.428 170.497L395.648 169.277L403.784 171.572Z" fill="#009BE2"/>
<rect width="12.853" height="89.4507" transform="matrix(0.962455 0.27144 -0.707107 0.707107 525.21 158.541)" fill="url(#paint17_linear_361_564)"/>
<rect width="12.853" height="58.6056" transform="matrix(0.962455 0.27144 -0.707107 0.707107 472.087 171.52)" fill="url(#paint18_linear_361_564)"/>
<rect width="12.853" height="43.1831" transform="matrix(0.962455 0.27144 -0.707107 0.707107 429.681 173.288)" fill="url(#paint19_linear_361_564)"/>
<rect width="12.853" height="21.5915" transform="matrix(0.962455 0.27144 -0.707107 0.707107 382.516 179.813)" fill="url(#paint20_linear_361_564)"/>
<rect width="12.853" height="12.338" transform="matrix(0.962455 0.27144 -0.707107 0.707107 344.472 177.218)" fill="url(#paint21_linear_361_564)"/>
<rect width="12.853" height="9.25352" transform="matrix(0.962455 0.27144 -0.707107 0.707107 310.78 170.766)" fill="url(#paint22_linear_361_564)"/>
<g filter="url(#filter3_b_361_564)">
<path d="M490.319 340.131C501.422 343.461 502.941 360.269 493.681 369.53L448.711 414.499C439.45 423.76 421.725 428.385 409.12 424.83L355.035 409.577C342.43 406.022 341.177 387.871 347.098 380.839L397.547 331.071C406.547 323.853 424.547 321.353 433.547 323.853L490.319 340.131Z" fill="url(#paint23_linear_361_564)"/>
<path d="M487.4 338.859C500.129 342.45 502.867 352.941 493.515 362.294L448.877 406.932C439.524 416.284 421.624 420.955 408.894 417.365L355.26 402.239C342.53 398.649 339.793 388.157 349.145 378.805L393.783 334.166C403.135 324.814 421.036 320.143 433.766 323.733L487.4 338.859Z" fill="url(#paint24_linear_361_564)" fill-opacity="0.7"/>
<path d="M490.319 340.131C501.422 343.461 502.941 360.269 493.681 369.53L448.711 414.499C439.45 423.76 421.725 428.385 409.12 424.83L355.035 409.577C342.43 406.022 341.177 387.871 347.098 380.839L397.547 331.071C406.547 323.853 424.547 321.353 433.547 323.853L490.319 340.131Z" stroke="url(#paint25_radial_361_564)" stroke-opacity="0.7" stroke-width="1.5"/>
<path d="M490.319 340.131C501.422 343.461 502.941 360.269 493.681 369.53L448.711 414.499C439.45 423.76 421.725 428.385 409.12 424.83L355.035 409.577C342.43 406.022 341.177 387.871 347.098 380.839L397.547 331.071C406.547 323.853 424.547 321.353 433.547 323.853L490.319 340.131Z" stroke="url(#paint26_radial_361_564)" stroke-opacity="0.7" stroke-width="1.5"/>
<path d="M487.4 338.859C500.129 342.45 502.867 352.941 493.515 362.294L448.877 406.932C439.524 416.284 421.624 420.955 408.894 417.365L355.26 402.239C342.53 398.649 339.793 388.157 349.145 378.805L393.783 334.166C403.135 324.814 421.036 320.143 433.766 323.733L487.4 338.859Z" stroke="url(#paint27_radial_361_564)" stroke-opacity="0.7" stroke-width="1.5"/>
<path d="M487.4 338.859C500.129 342.45 502.867 352.941 493.515 362.294L448.877 406.932C439.524 416.284 421.624 420.955 408.894 417.365L355.26 402.239C342.53 398.649 339.793 388.157 349.145 378.805L393.783 334.166C403.135 324.814 421.036 320.143 433.766 323.733L487.4 338.859Z" stroke="url(#paint28_radial_361_564)" stroke-opacity="0.7" stroke-width="1.5"/>
</g>
<path d="M461.206 381.183C466.519 375.869 469.716 370.092 470.446 364.486C471.175 358.88 469.408 353.664 465.339 349.412L421.598 370.012L461.206 381.183Z" fill="#264AA0" stroke="white" stroke-width="0.747463"/>
<path d="M458.26 351.834C454.825 348.21 449.642 345.507 443.233 343.996C436.824 342.485 429.415 342.219 421.753 343.227L419.191 370.334L458.26 351.834Z" fill="#009BE2"/>
<path d="M421.753 343.227C416.078 343.973 410.393 345.4 405.016 347.428L419.191 370.333L421.753 343.227Z" fill="#009BE2"/>
<path d="M405.017 347.428C397.992 350.078 391.698 353.676 386.729 357.884L419.191 370.334L405.017 347.428Z" fill="#009BE2"/>
<path d="M386.729 357.883C381.156 362.601 377.468 367.898 376.099 373.151L419.191 370.334L386.729 357.883Z" fill="#009BE2"/>
<path d="M376.099 373.151C375.297 376.227 375.306 379.228 376.125 382.031L419.191 370.333L376.099 373.151Z" fill="#009BE2"/>
<path d="M376.125 382.031C377.797 387.754 382.77 392.395 390.22 395.186L419.191 370.334L376.125 382.031Z" fill="#009BE2"/>
<path d="M390.22 395.186C395.182 397.044 401.078 398.02 407.463 398.04L419.191 370.334L390.22 395.186Z" fill="#009BE2"/>
<path d="M407.463 398.04C417.703 398.071 428.631 395.644 438.202 391.213L419.191 370.334L407.463 398.04Z" fill="#009BE2"/>
<path d="M438.202 391.213C444.618 388.242 450.179 384.482 454.398 380.263L419.191 370.334L438.202 391.213Z" fill="#009BE2"/>
<g filter="url(#filter4_b_361_564)">
<path d="M395.327 290.341C409.327 295.5 409.164 312.189 399.903 321.45L354.934 366.419C345.673 375.68 327.947 380.305 315.342 376.75L261.257 361.497C248.652 357.942 244.327 340.488 255.15 329.665L303.046 282.853C310.546 276.353 327.046 271.353 338.546 274.353L395.327 290.341Z" fill="url(#paint29_linear_361_564)"/>
<path d="M393.405 289.72C406.134 293.31 408.872 303.802 399.52 313.154L354.882 357.792C345.529 367.145 327.629 371.816 314.899 368.226L261.265 353.099C248.535 349.509 245.797 339.017 255.15 329.665L299.788 285.027C309.14 275.674 327.041 271.003 339.771 274.593L393.405 289.72Z" fill="url(#paint30_linear_361_564)" fill-opacity="0.7"/>
<path d="M255.15 329.665L303.046 282.853C310.546 276.353 327.046 271.353 338.546 274.353L395.327 290.341C409.327 295.5 409.164 312.189 399.903 321.45L354.934 366.419C345.673 375.68 327.947 380.305 315.342 376.75L261.257 361.497C248.652 357.942 244.327 340.488 255.15 329.665ZM255.15 329.665L299.788 285.027C309.14 275.674 327.041 271.003 339.771 274.593L393.405 289.72C406.134 293.31 408.872 303.802 399.52 313.154L354.882 357.792C345.529 367.145 327.629 371.816 314.899 368.226L261.265 353.099C248.535 349.509 245.797 339.017 255.15 329.665Z" stroke="url(#paint31_radial_361_564)" stroke-opacity="0.7" stroke-width="1.5"/>
<path d="M255.15 329.665L303.046 282.853C310.546 276.353 327.046 271.353 338.546 274.353L395.327 290.341C409.327 295.5 409.164 312.189 399.903 321.45L354.934 366.419C345.673 375.68 327.947 380.305 315.342 376.75L261.257 361.497C248.652 357.942 244.327 340.488 255.15 329.665ZM255.15 329.665L299.788 285.027C309.14 275.674 327.041 271.003 339.771 274.593L393.405 289.72C406.134 293.31 408.872 303.802 399.52 313.154L354.882 357.792C345.529 367.145 327.629 371.816 314.899 368.226L261.265 353.099C248.535 349.509 245.797 339.017 255.15 329.665Z" stroke="url(#paint32_radial_361_564)" stroke-opacity="0.7" stroke-width="1.5"/>
</g>
<path d="M271.434 334.999L342.193 354.955" stroke="white" stroke-width="0.747463"/>
<path d="M281.203 325.229L351.963 345.186" stroke="white" stroke-width="0.398523"/>
<path d="M290.973 315.46L361.733 335.416" stroke="white" stroke-width="0.398523"/>
<path d="M300.917 305.515L371.677 325.471" stroke="white" stroke-width="0.398523"/>
<path d="M310.687 295.746L381.446 315.702" stroke="white" stroke-width="0.398523"/>
<path d="M320.462 285.922L271.44 334.945" stroke="white" stroke-width="0.747463"/>
<path d="M274.223 332.21C274.223 332.21 279.965 331.416 283.793 330.887C287.621 330.358 289.143 330.485 293.363 329.564C297.583 328.642 300.595 327.279 304.894 326.28C309.193 325.28 310.714 325.407 314.856 324.564C318.998 323.721 321.618 322.751 325.603 322.064C329.588 321.378 330.717 321.898 334.781 321.133C338.844 320.369 341.856 319.006 345.92 318.241C349.983 317.477 351.191 317.918 355.098 317.31C359.004 316.703 361.702 315.654 365.452 315.203C369.202 314.752 370.018 315.585 373.846 315.056C377.674 314.527 384.592 312.556 384.592 312.556" stroke="url(#paint33_linear_361_564)" stroke-width="1.49493"/>
<g filter="url(#filter5_b_361_564)">
<path d="M313.828 230.272C327.827 234.5 328.516 251.686 319.255 260.947L274.285 305.916C265.025 315.177 247.299 319.802 234.694 316.247L180.609 300.994C168.004 297.439 163.827 279.5 174.367 269.848L220.547 223.853C230.047 215.853 247.547 212.353 256.547 214.353L313.828 230.272Z" fill="url(#paint34_linear_361_564)"/>
<path d="M312.623 229.902C325.352 233.493 328.09 243.984 318.738 253.337L274.099 297.975C264.747 307.327 246.846 311.998 234.117 308.408L180.482 293.282C167.753 289.692 165.015 279.2 174.367 269.848L219.006 225.209C228.358 215.857 246.259 211.186 258.988 214.776L312.623 229.902Z" fill="url(#paint35_linear_361_564)" fill-opacity="0.7"/>
<path d="M180.812 300.272C174.368 298.455 170.205 292.646 169.308 286.22C171.129 289.72 174.893 292.485 180.279 294.004L233.913 309.13C240.436 310.97 248.233 310.684 255.564 308.771C262.895 306.858 269.837 303.298 274.63 298.505L319.268 253.867C322.096 251.039 323.891 248.06 324.64 245.151C324.924 250.537 322.848 256.293 318.724 260.416L273.755 305.386C269.241 309.9 262.624 313.317 255.554 315.162C248.485 317.007 241.042 317.258 234.897 315.526L180.812 300.272ZM318.223 233.17C320.117 234.471 321.576 236.115 322.622 237.973C322.882 238.518 323.086 239.077 323.235 239.648C324.252 243.544 322.769 248.244 318.207 252.806L273.569 297.445C269.009 302.005 262.325 305.456 255.185 307.319C248.045 309.182 240.527 309.437 234.32 307.686L180.686 292.56C174.476 290.809 170.887 287.432 169.87 283.536C168.853 279.641 170.335 274.94 174.897 270.378C174.897 270.378 174.898 270.378 174.898 270.378L221.054 224.407C225.684 220.516 232.303 217.688 238.911 216.082C245.528 214.474 252.019 214.12 256.365 215.081L313.607 230.989C315.386 231.584 316.924 232.321 318.223 233.17Z" stroke="url(#paint36_radial_361_564)" stroke-opacity="0.7" stroke-width="1.5"/>
<path d="M180.812 300.272C174.368 298.455 170.205 292.646 169.308 286.22C171.129 289.72 174.893 292.485 180.279 294.004L233.913 309.13C240.436 310.97 248.233 310.684 255.564 308.771C262.895 306.858 269.837 303.298 274.63 298.505L319.268 253.867C322.096 251.039 323.891 248.06 324.64 245.151C324.924 250.537 322.848 256.293 318.724 260.416L273.755 305.386C269.241 309.9 262.624 313.317 255.554 315.162C248.485 317.007 241.042 317.258 234.897 315.526L180.812 300.272ZM318.223 233.17C320.117 234.471 321.576 236.115 322.622 237.973C322.882 238.518 323.086 239.077 323.235 239.648C324.252 243.544 322.769 248.244 318.207 252.806L273.569 297.445C269.009 302.005 262.325 305.456 255.185 307.319C248.045 309.182 240.527 309.437 234.32 307.686L180.686 292.56C174.476 290.809 170.887 287.432 169.87 283.536C168.853 279.641 170.335 274.94 174.897 270.378C174.897 270.378 174.898 270.378 174.898 270.378L221.054 224.407C225.684 220.516 232.303 217.688 238.911 216.082C245.528 214.474 252.019 214.12 256.365 215.081L313.607 230.989C315.386 231.584 316.924 232.321 318.223 233.17Z" stroke="url(#paint37_radial_361_564)" stroke-opacity="0.7" stroke-width="1.5"/>
</g>
<path d="M290.012 249.396C288.732 245.38 285.819 241.884 281.517 239.201C277.215 236.517 271.646 234.723 265.275 233.967C258.904 233.211 251.913 233.515 244.884 234.854C237.856 236.193 230.992 238.528 224.864 241.665C218.735 244.802 213.519 248.651 209.648 252.891C205.778 257.132 203.365 261.641 202.61 266.045C201.855 270.449 202.78 274.621 205.307 278.213C207.835 281.805 211.893 284.713 217.144 286.697L227.437 277.91C224.024 276.621 221.386 274.73 219.743 272.395C218.1 270.061 217.499 267.349 217.99 264.487C218.48 261.624 220.049 258.693 222.565 255.937C225.081 253.18 228.471 250.679 232.455 248.639C236.438 246.6 240.9 245.083 245.468 244.212C250.037 243.342 254.581 243.144 258.722 243.636C262.863 244.127 266.483 245.294 269.279 247.038C272.076 248.782 273.969 251.054 274.801 253.665L290.012 249.396Z" fill="url(#paint38_linear_361_564)"/>
<path d="M217.136 286.694C222.149 288.59 228.115 289.591 234.58 289.622C241.046 289.652 247.842 288.712 254.451 286.871C261.059 285.031 267.308 282.339 272.721 279C278.134 275.661 282.569 271.763 285.69 267.603L271.992 265.499C269.963 268.203 267.08 270.737 263.562 272.907C260.043 275.077 255.982 276.827 251.686 278.023C247.391 279.22 242.973 279.831 238.771 279.811C234.568 279.791 230.69 279.141 227.431 277.908L217.136 286.694Z" fill="white"/>
<path d="M290.66 255.941C290.894 253.667 290.674 251.46 290.004 249.37L274.796 253.648C275.231 255.006 275.375 256.441 275.222 257.919L290.66 255.941Z" fill="#264AA0"/>
<path d="M285.756 267.515C288.599 263.699 290.27 259.752 290.661 255.928L275.223 257.911C274.969 260.396 273.883 262.961 272.035 265.442L285.756 267.515Z" fill="#009BE2"/>
<defs>
<filter id="filter0_b_361_564" x="20.2019" y="108.757" width="674.925" height="510.687" filterUnits="userSpaceOnUse" color-interpolation-filters="sRGB">
<feFlood flood-opacity="0" result="BackgroundImageFix"/>
<feGaussianBlur in="BackgroundImageFix" stdDeviation="12.5726"/>
<feComposite in2="SourceAlpha" operator="in" result="effect1_backgroundBlur_361_564"/>
<feBlend mode="normal" in="SourceGraphic" in2="effect1_backgroundBlur_361_564" result="shape"/>
</filter>
<filter id="filter1_b_361_564" x="66.4788" y="357.086" width="327.967" height="170.217" filterUnits="userSpaceOnUse" color-interpolation-filters="sRGB">
<feFlood flood-opacity="0" result="BackgroundImageFix"/>
<feGaussianBlur in="BackgroundImageFix" stdDeviation="12.5726"/>
<feComposite in2="SourceAlpha" operator="in" result="effect1_backgroundBlur_361_564"/>
<feBlend mode="normal" in="SourceGraphic" in2="effect1_backgroundBlur_361_564" result="shape"/>
</filter>
<filter id="filter2_b_361_564" x="241.265" y="47.6364" width="386.045" height="230.207" filterUnits="userSpaceOnUse" color-interpolation-filters="sRGB">
<feFlood flood-opacity="0" result="BackgroundImageFix"/>
<feGaussianBlur in="BackgroundImageFix" stdDeviation="12.5726"/>
<feComposite in2="SourceAlpha" operator="in" result="effect1_backgroundBlur_361_564"/>
<feBlend mode="normal" in="SourceGraphic" in2="effect1_backgroundBlur_361_564" result="shape"/>
</filter>
<filter id="filter3_b_361_564" x="317.695" y="296.628" width="207.946" height="155.295" filterUnits="userSpaceOnUse" color-interpolation-filters="sRGB">
<feFlood flood-opacity="0" result="BackgroundImageFix"/>
<feGaussianBlur in="BackgroundImageFix" stdDeviation="12.5726"/>
<feComposite in2="SourceAlpha" operator="in" result="effect1_backgroundBlur_361_564"/>
<feBlend mode="normal" in="SourceGraphic" in2="effect1_backgroundBlur_361_564" result="shape"/>
</filter>
<filter id="filter4_b_361_564" x="223.101" y="247.488" width="209.211" height="156.355" filterUnits="userSpaceOnUse" color-interpolation-filters="sRGB">
<feFlood flood-opacity="0" result="BackgroundImageFix"/>
<feGaussianBlur in="BackgroundImageFix" stdDeviation="12.5726"/>
<feComposite in2="SourceAlpha" operator="in" result="effect1_backgroundBlur_361_564"/>
<feBlend mode="normal" in="SourceGraphic" in2="effect1_backgroundBlur_361_564" result="shape"/>
</filter>
<filter id="filter5_b_361_564" x="143.232" y="188.421" width="207.328" height="154.169" filterUnits="userSpaceOnUse" color-interpolation-filters="sRGB">
<feFlood flood-opacity="0" result="BackgroundImageFix"/>
<feGaussianBlur in="BackgroundImageFix" stdDeviation="12.5726"/>
<feComposite in2="SourceAlpha" operator="in" result="effect1_backgroundBlur_361_564"/>
<feBlend mode="normal" in="SourceGraphic" in2="effect1_backgroundBlur_361_564" result="shape"/>
</filter>
<linearGradient id="paint0_linear_361_564" x1="-70.7149" y1="629.007" x2="714.787" y2="-15.2655" gradientUnits="userSpaceOnUse">
<stop stop-color="#FAFDFF"/>
<stop offset="1" stop-color="#009BE2"/>
</linearGradient>
<linearGradient id="paint1_linear_361_564" x1="-69.5827" y1="609.852" x2="715.065" y2="-31.0374" gradientUnits="userSpaceOnUse">
<stop stop-color="#28374D"/>
<stop offset="0.0001" stop-color="#273E6C"/>
<stop offset="0.106266" stop-color="#264AA0" stop-opacity="0.7"/>
<stop offset="0.339482" stop-color="#009BE2" stop-opacity="0.7"/>
<stop offset="0.661964" stop-color="#E4F7FF" stop-opacity="0.7"/>
<stop offset="1" stop-color="white"/>
</linearGradient>
<radialGradient id="paint2_radial_361_564" cx="0" cy="0" r="1" gradientUnits="userSpaceOnUse" gradientTransform="translate(541.801 169.708) rotate(135) scale(462.667 210.247)">
<stop stop-color="white"/>
<stop offset="1" stop-color="white" stop-opacity="0"/>
</radialGradient>
<radialGradient id="paint3_radial_361_564" cx="0" cy="0" r="1" gradientUnits="userSpaceOnUse" gradientTransform="translate(168.4 543.11) rotate(-45) scale(266.457 121.085)">
<stop stop-color="white"/>
<stop offset="1" stop-color="white" stop-opacity="0"/>
</radialGradient>
<linearGradient id="paint4_linear_361_564" x1="353.253" y1="480.404" x2="195.153" y2="322.864" gradientUnits="userSpaceOnUse">
<stop stop-color="#009BE2" stop-opacity="0.25"/>
<stop offset="1" stop-color="#264AA0" stop-opacity="0.25"/>
</linearGradient>
<linearGradient id="paint5_linear_361_564" x1="348.276" y1="440.649" x2="236.177" y2="657.138" gradientUnits="userSpaceOnUse">
<stop stop-color="white"/>
<stop offset="0.3125" stop-color="white" stop-opacity="0.7"/>
<stop offset="1" stop-color="#17A6E8" stop-opacity="0.5"/>
</linearGradient>
<radialGradient id="paint6_radial_361_564" cx="0" cy="0" r="1" gradientUnits="userSpaceOnUse" gradientTransform="translate(350.945 472.542) rotate(-164.25) scale(221.695 56.066)">
<stop stop-color="white"/>
<stop offset="1" stop-color="white" stop-opacity="0"/>
</radialGradient>
<radialGradient id="paint7_radial_361_564" cx="0" cy="0" r="1" gradientUnits="userSpaceOnUse" gradientTransform="translate(107.411 403.859) rotate(15.75) scale(127.677 32.2893)">
<stop stop-color="white"/>
<stop offset="1" stop-color="white" stop-opacity="0"/>
</radialGradient>
<radialGradient id="paint8_radial_361_564" cx="0" cy="0" r="1" gradientUnits="userSpaceOnUse" gradientTransform="translate(350.945 472.542) rotate(-164.25) scale(221.695 56.066)">
<stop stop-color="white"/>
<stop offset="1" stop-color="white" stop-opacity="0"/>
</radialGradient>
<radialGradient id="paint9_radial_361_564" cx="0" cy="0" r="1" gradientUnits="userSpaceOnUse" gradientTransform="translate(107.411 403.859) rotate(15.75) scale(127.677 32.2893)">
<stop stop-color="white"/>
<stop offset="1" stop-color="white" stop-opacity="0"/>
</radialGradient>
<linearGradient id="paint10_linear_361_564" x1="289.066" y1="455.091" x2="215.547" y2="381.572" gradientUnits="userSpaceOnUse">
<stop stop-color="white"/>
<stop offset="0.416667" stop-color="#009BE2"/>
<stop offset="1" stop-color="#264AA0"/>
</linearGradient>
<linearGradient id="paint11_linear_361_564" x1="592.521" y1="114.08" x2="256.008" y2="110.535" gradientUnits="userSpaceOnUse">
<stop stop-color="#009BE2" stop-opacity="0.25"/>
<stop offset="1" stop-color="#264AA0" stop-opacity="0.25"/>
</linearGradient>
<linearGradient id="paint12_linear_361_564" x1="590.828" y1="103.475" x2="256.659" y2="99.9778" gradientUnits="userSpaceOnUse">
<stop stop-color="white"/>
<stop offset="0.332259" stop-color="white" stop-opacity="0.7"/>
</linearGradient>
<radialGradient id="paint13_radial_361_564" cx="0" cy="0" r="1" gradientUnits="userSpaceOnUse" gradientTransform="translate(554.372 191.617) rotate(-164.25) scale(221.694 117.178)">
<stop stop-color="white"/>
<stop offset="1" stop-color="white" stop-opacity="0"/>
</radialGradient>
<radialGradient id="paint14_radial_361_564" cx="0" cy="0" r="1" gradientUnits="userSpaceOnUse" gradientTransform="translate(310.838 122.933) rotate(15.75) scale(127.677 67.4847)">
<stop stop-color="white"/>
<stop offset="1" stop-color="white" stop-opacity="0"/>
</radialGradient>
<radialGradient id="paint15_radial_361_564" cx="0" cy="0" r="1" gradientUnits="userSpaceOnUse" gradientTransform="translate(554.372 191.617) rotate(-164.25) scale(221.694 117.178)">
<stop stop-color="white"/>
<stop offset="1" stop-color="white" stop-opacity="0"/>
</radialGradient>
<radialGradient id="paint16_radial_361_564" cx="0" cy="0" r="1" gradientUnits="userSpaceOnUse" gradientTransform="translate(310.838 122.933) rotate(15.75) scale(127.677 67.4847)">
<stop stop-color="white"/>
<stop offset="1" stop-color="white" stop-opacity="0"/>
</radialGradient>
<linearGradient id="paint17_linear_361_564" x1="1.96811" y1="-12.8585" x2="60.8185" y2="48.9106" gradientUnits="userSpaceOnUse">
<stop stop-color="white"/>
<stop offset="0.38568" stop-color="#17A6E8"/>
<stop offset="0.848958" stop-color="#314F97"/>
</linearGradient>
<linearGradient id="paint18_linear_361_564" x1="1.96811" y1="-8.42456" x2="36.6477" y2="47.1326" gradientUnits="userSpaceOnUse">
<stop stop-color="white"/>
<stop offset="0.38568" stop-color="#17A6E8"/>
<stop offset="0.848958" stop-color="#314F97"/>
</linearGradient>
<linearGradient id="paint19_linear_361_564" x1="1.96811" y1="-6.20757" x2="23.5646" y2="40.7468" gradientUnits="userSpaceOnUse">
<stop stop-color="white"/>
<stop offset="0.38568" stop-color="#17A6E8"/>
<stop offset="0.848958" stop-color="#314F97"/>
</linearGradient>
<linearGradient id="paint20_linear_361_564" x1="1.96811" y1="-3.10378" x2="8.18086" y2="23.9113" gradientUnits="userSpaceOnUse">
<stop stop-color="white"/>
<stop offset="0.38568" stop-color="#17A6E8"/>
<stop offset="0.848958" stop-color="#314F97"/>
</linearGradient>
<linearGradient id="paint21_linear_361_564" x1="1.96811" y1="-1.77359" x2="4.06779" y2="14.2041" gradientUnits="userSpaceOnUse">
<stop stop-color="white"/>
<stop offset="0.38568" stop-color="#17A6E8"/>
<stop offset="0.848958" stop-color="#314F97"/>
</linearGradient>
<linearGradient id="paint22_linear_361_564" x1="1.96811" y1="-1.33019" x2="3.15802" y2="10.7427" gradientUnits="userSpaceOnUse">
<stop stop-color="white"/>
<stop offset="0.38568" stop-color="#17A6E8"/>
<stop offset="0.848958" stop-color="#314F97"/>
</linearGradient>
<linearGradient id="paint23_linear_361_564" x1="471.179" y1="391.886" x2="407.01" y2="327.919" gradientUnits="userSpaceOnUse">
<stop offset="0.578125" stop-color="#009BE2" stop-opacity="0.25"/>
<stop offset="1" stop-color="#264AA0" stop-opacity="0.25"/>
</linearGradient>
<linearGradient id="paint24_linear_361_564" x1="495.785" y1="344.836" x2="170.092" y2="506.801" gradientUnits="userSpaceOnUse">
<stop stop-color="white"/>
<stop offset="0.3125" stop-color="white" stop-opacity="0.7"/>
<stop offset="1" stop-color="#17A6E8" stop-opacity="0.5"/>
</linearGradient>
<radialGradient id="paint25_radial_361_564" cx="0" cy="0" r="1" gradientUnits="userSpaceOnUse" gradientTransform="translate(470.289 384.357) rotate(-164.25) scale(89.963 84.099)">
<stop stop-color="white"/>
<stop offset="1" stop-color="white" stop-opacity="0"/>
</radialGradient>
<radialGradient id="paint26_radial_361_564" cx="0" cy="0" r="1" gradientUnits="userSpaceOnUse" gradientTransform="translate(371.464 356.486) rotate(15.75) scale(51.8111 48.434)">
<stop stop-color="white"/>
<stop offset="1" stop-color="white" stop-opacity="0"/>
</radialGradient>
<radialGradient id="paint27_radial_361_564" cx="0" cy="0" r="1" gradientUnits="userSpaceOnUse" gradientTransform="translate(470.289 384.357) rotate(-164.25) scale(89.963 84.099)">
<stop stop-color="white"/>
<stop offset="1" stop-color="white" stop-opacity="0"/>
</radialGradient>
<radialGradient id="paint28_radial_361_564" cx="0" cy="0" r="1" gradientUnits="userSpaceOnUse" gradientTransform="translate(371.464 356.486) rotate(15.75) scale(51.8111 48.434)">
<stop stop-color="white"/>
<stop offset="1" stop-color="white" stop-opacity="0"/>
</radialGradient>
<linearGradient id="paint29_linear_361_564" x1="377.618" y1="343.909" x2="313.643" y2="279.423" gradientUnits="userSpaceOnUse">
<stop stop-color="#009BE2" stop-opacity="0.25"/>
<stop offset="1" stop-color="#264AA0" stop-opacity="0.25"/>
</linearGradient>
<linearGradient id="paint30_linear_361_564" x1="401.79" y1="295.696" x2="76.0967" y2="457.661" gradientUnits="userSpaceOnUse">
<stop stop-color="white"/>
<stop offset="0.3125" stop-color="white" stop-opacity="0.7"/>
<stop offset="1" stop-color="#17A6E8" stop-opacity="0.5"/>
</linearGradient>
<radialGradient id="paint31_radial_361_564" cx="0" cy="0" r="1" gradientUnits="userSpaceOnUse" gradientTransform="translate(376.294 335.217) rotate(-164.25) scale(89.963 84.099)">
<stop stop-color="white"/>
<stop offset="1" stop-color="white" stop-opacity="0"/>
</radialGradient>
<radialGradient id="paint32_radial_361_564" cx="0" cy="0" r="1" gradientUnits="userSpaceOnUse" gradientTransform="translate(277.469 307.346) rotate(15.75) scale(51.8111 48.434)">
<stop stop-color="white"/>
<stop offset="1" stop-color="white" stop-opacity="0"/>
</radialGradient>
<linearGradient id="paint33_linear_361_564" x1="437.702" y1="284.176" x2="398.395" y2="403.044" gradientUnits="userSpaceOnUse">
<stop offset="0.208333" stop-color="#264AA0"/>
<stop offset="0.667631" stop-color="#009BE2"/>
<stop offset="1" stop-color="#D7E9F0"/>
</linearGradient>
<linearGradient id="paint34_linear_361_564" x1="296.688" y1="283.355" x2="232.614" y2="219.026" gradientUnits="userSpaceOnUse">
<stop stop-color="#009BE2" stop-opacity="0.25"/>
<stop offset="1" stop-color="#264AA0" stop-opacity="0.25"/>
</linearGradient>
<linearGradient id="paint35_linear_361_564" x1="321.007" y1="235.879" x2="-4.68575" y2="397.843" gradientUnits="userSpaceOnUse">
<stop stop-color="white"/>
<stop offset="0.3125" stop-color="white" stop-opacity="0.7"/>
<stop offset="1" stop-color="#17A6E8" stop-opacity="0.5"/>
</linearGradient>
<radialGradient id="paint36_radial_361_564" cx="0" cy="0" r="1" gradientUnits="userSpaceOnUse" gradientTransform="translate(295.512 275.4) rotate(-164.25) scale(89.963 84.099)">
<stop stop-color="white"/>
<stop offset="1" stop-color="white" stop-opacity="0"/>
</radialGradient>
<radialGradient id="paint37_radial_361_564" cx="0" cy="0" r="1" gradientUnits="userSpaceOnUse" gradientTransform="translate(196.686 247.528) rotate(15.75) scale(51.8111 48.434)">
<stop stop-color="white"/>
<stop offset="1" stop-color="white" stop-opacity="0"/>
</radialGradient>
<linearGradient id="paint38_linear_361_564" x1="372.446" y1="206.259" x2="317.88" y2="363.67" gradientUnits="userSpaceOnUse">
<stop offset="0.275634" stop-color="#264AA0"/>
<stop offset="0.532688" stop-color="#54BAB4"/>
<stop offset="0.86676" stop-color="#D7E9F0"/>
<stop offset="0.992881" stop-color="white"/>
</linearGradient>
</defs>
</svg>
