<svg width="500" height="754" viewBox="0 0 1349 754" fill="none" xmlns="http://www.w3.org/2000/svg">
<g filter="url(#filter0_b_347_78)">
<rect width="277.56" height="532.915" rx="23.9478" transform="matrix(0.962455 0.27144 -0.707107 0.707107 709.611 150.759)" fill="white" fill-opacity="0.7"/>
<rect x="0.267533" y="1.02524" width="275.464" height="530.819" rx="22.9001" transform="matrix(0.962455 0.27144 -0.707107 0.707107 710.346 150.987)" stroke="url(#paint0_radial_347_78)" stroke-width="2.09544"/>
<rect x="0.267533" y="1.02524" width="275.464" height="530.819" rx="22.9001" transform="matrix(0.962455 0.27144 -0.707107 0.707107 710.346 150.987)" stroke="url(#paint1_radial_347_78)" stroke-width="2.09544"/>
</g>
<g filter="url(#filter1_b_347_78)">
<path d="M691.598 187.918C701.546 177.97 720.587 173.001 734.127 176.82L955.112 220.679C968.652 224.498 968.685 253.311 958.737 263.259L617.934 604.062C607.986 614.01 588.945 618.978 575.405 615.16L357.3 553.648C343.759 549.829 339.395 521.545 349.343 511.597L691.598 187.918Z" fill="url(#paint2_linear_347_78)" fill-opacity="0.4"/>
</g>
<g filter="url(#filter2_b_347_78)">
<rect width="277.56" height="532.915" rx="23.9478" transform="matrix(0.962455 0.27144 -0.707107 0.707107 709.611 150.759)" fill="url(#paint3_linear_347_78)" fill-opacity="0.4"/>
<rect x="0.267533" y="1.02524" width="275.464" height="530.819" rx="22.9001" transform="matrix(0.962455 0.27144 -0.707107 0.707107 710.346 150.986)" stroke="url(#paint4_radial_347_78)" stroke-width="2.09544"/>
<rect x="0.267533" y="1.02524" width="275.464" height="530.819" rx="22.9001" transform="matrix(0.962455 0.27144 -0.707107 0.707107 710.346 150.986)" stroke="url(#paint5_radial_347_78)" stroke-width="2.09544"/>
</g>
<g filter="url(#filter3_b_347_78)">
<path d="M656.829 463.765C667.932 466.725 669.867 483.963 660.606 493.224L641.806 512.025C632.545 521.286 614.819 525.911 602.214 522.356L402.093 465.916C391.407 462.902 388.553 450.95 391.315 442.42C392.265 439.488 394.652 437.351 397.218 435.642L412.859 425.229C414.175 424.352 415.382 423.325 416.587 422.3C426.201 414.126 442.579 410.237 454.43 413.579L656.829 463.765Z" fill="url(#paint6_linear_347_78)"/>
</g>
<g filter="url(#filter4_b_347_78)">
<rect width="74.0159" height="255.355" rx="23.9478" transform="matrix(-0.707107 0.707107 -0.962455 -0.271441 677.301 469.151)" fill="url(#paint7_linear_347_78)" fill-opacity="0.8"/>
<rect x="-1.74923" y="0.456455" width="71.9205" height="253.26" rx="22.9001" transform="matrix(-0.707107 0.707107 -0.962455 -0.271441 674.754 470.968)" stroke="url(#paint8_radial_347_78)" stroke-width="2.09544"/>
<rect x="-1.74923" y="0.456455" width="71.9205" height="253.26" rx="22.9001" transform="matrix(-0.707107 0.707107 -0.962455 -0.271441 674.754 470.968)" stroke="url(#paint9_radial_347_78)" stroke-width="2.09544"/>
</g>
<path d="M424.57 451.552C436.372 454.88 452.97 450.549 461.642 441.878C470.313 433.206 467.775 423.478 455.972 420.149C444.169 416.821 427.571 421.152 418.9 429.823C410.228 438.495 412.767 448.223 424.57 451.552Z" fill="#009BE2"/>
<path d="M638.6 487.759L479.742 442.956C477.381 442.291 474.062 443.157 472.327 444.891C470.593 446.626 471.101 448.571 473.461 449.237L632.32 494.04C634.68 494.705 638 493.839 639.734 492.105C641.469 490.371 640.961 488.425 638.6 487.759Z" fill="#D6DCE5"/>
<path d="M567.363 467.668L479.742 442.956C477.381 442.291 474.062 443.157 472.327 444.891C470.593 446.626 471.101 448.571 473.461 449.237L561.083 473.949C563.443 474.614 566.763 473.748 568.497 472.014C570.232 470.28 569.724 468.334 567.363 467.668Z" fill="url(#paint10_linear_347_78)"/>
<path d="M453.92 432.8L434.911 437.76L433.39 431.93C433.209 431.239 432.107 430.928 430.927 431.236C429.747 431.543 428.937 432.353 429.118 433.045L430.966 440.127C431.146 440.818 432.249 441.129 433.428 440.821L454.573 435.304C455.753 434.996 456.563 434.186 456.382 433.494C456.202 432.803 455.099 432.492 453.92 432.8Z" fill="#D6DCE5"/>
<g filter="url(#filter5_b_347_78)">
<path d="M887.035 153.667C899.268 156.858 901.187 178.403 891.239 188.351L817.879 261.711C807.931 271.659 788.89 276.628 775.35 272.809L578.616 217.324C565.789 213.707 562.425 195.614 568.887 185.579C569.601 184.47 570.559 183.549 571.559 182.689L645.472 119.037C655.42 109.089 674.46 104.121 688 107.939L887.035 153.667Z" fill="url(#paint11_linear_347_78)" fill-opacity="0.8"/>
</g>
<g filter="url(#filter6_b_347_78)">
<rect width="154.693" height="255.355" rx="23.9478" transform="matrix(-0.707107 0.707107 -0.962455 -0.271441 909.252 159.702)" fill="url(#paint12_linear_347_78)" fill-opacity="0.8"/>
<rect x="-1.74923" y="0.456455" width="152.598" height="253.26" rx="22.9001" transform="matrix(-0.707107 0.707107 -0.962455 -0.271441 906.705 161.519)" stroke="url(#paint13_radial_347_78)" stroke-width="2.09544"/>
<rect x="-1.74923" y="0.456455" width="152.598" height="253.26" rx="22.9001" transform="matrix(-0.707107 0.707107 -0.962455 -0.271441 906.705 161.519)" stroke="url(#paint14_radial_347_78)" stroke-width="2.09544"/>
</g>
<path d="M689.485 112.483L602.242 199.726" stroke="#D6DCE5" stroke-width="0.566353"/>
<path d="M859.51 160.435L772.267 247.678" stroke="#D6DCE5" stroke-width="0.566353"/>
<path d="M624.053 177.915L794.078 225.867" stroke="#D6DCE5" stroke-width="0.566353"/>
<path d="M646.26 155.708L816.286 203.66" stroke="#D6DCE5" stroke-width="0.566353"/>
<path d="M667.674 134.294L837.7 182.246" stroke="#D6DCE5" stroke-width="0.566353"/>
<path d="M689.485 112.483L859.511 160.435" stroke="#D6DCE5" stroke-width="0.566353"/>
<path d="M602.639 199.329L772.664 247.281" stroke="#D6DCE5" stroke-width="0.566353"/>
<path d="M741.876 185.182L733.311 193.746L731.195 193.15L737.947 186.398L734.464 186.288L735.719 185.032L741.636 185.114L741.876 185.182ZM748.411 194.012L747.191 195.232L738.815 192.87L739.666 191.906L750.3 187.588L751.985 188.063L747.894 189.82L742.095 192.23L748.411 194.012ZM752.456 188.196L743.915 196.737L741.799 196.14L750.34 187.599L752.456 188.196Z" fill="#009BE2"/>
<path d="M784.282 183.414L775.717 191.979L773.601 191.382L780.353 184.63L776.87 184.52L778.125 183.265L784.042 183.347L784.282 183.414ZM782.421 192.328L782.573 192.371C783.259 192.565 783.904 192.664 784.507 192.668C785.115 192.674 785.683 192.601 786.21 192.449C786.747 192.295 787.246 192.072 787.708 191.781C788.178 191.488 788.615 191.14 789.018 190.737L790.567 189.188C790.895 188.859 791.138 188.559 791.293 188.287C791.453 188.012 791.535 187.766 791.538 187.552C791.546 187.338 791.482 187.16 791.346 187.016C791.214 186.869 791.023 186.76 790.773 186.689C790.496 186.611 790.204 186.589 789.897 186.623C789.591 186.656 789.281 186.734 788.967 186.857C788.663 186.977 788.366 187.131 788.075 187.319C787.789 187.51 787.529 187.722 787.294 187.957C787.067 188.183 786.885 188.41 786.747 188.637C786.614 188.865 786.539 189.08 786.523 189.281C786.511 189.483 786.571 189.663 786.7 189.82C786.834 189.973 787.05 190.091 787.348 190.175C787.63 190.255 787.925 190.288 788.232 190.274C788.548 190.258 788.858 190.208 789.161 190.123C789.468 190.034 789.749 189.92 790.004 189.781C790.268 189.64 790.491 189.485 790.674 189.316L791.182 189.76C790.897 190.046 790.533 190.304 790.09 190.535C789.652 190.768 789.174 190.956 788.654 191.1C788.144 191.242 787.629 191.328 787.109 191.356C786.592 191.381 786.113 191.331 785.672 191.207C785.123 191.052 784.713 190.841 784.441 190.574C784.169 190.307 784.021 190.002 783.995 189.659C783.979 189.313 784.071 188.948 784.272 188.563C784.476 188.175 784.776 187.783 785.171 187.388C785.581 186.977 786.054 186.617 786.59 186.307C787.129 185.992 787.701 185.745 788.305 185.564C788.918 185.381 789.539 185.278 790.169 185.255C790.803 185.229 791.416 185.299 792.007 185.465C792.619 185.638 793.077 185.88 793.38 186.191C793.683 186.502 793.846 186.861 793.868 187.269C793.894 187.672 793.784 188.11 793.538 188.582C793.296 189.055 792.925 189.542 792.425 190.043L791.879 190.588C791.351 191.116 790.779 191.597 790.162 192.029C789.545 192.462 788.892 192.832 788.203 193.139C787.513 193.446 786.794 193.677 786.046 193.832C785.303 193.988 784.533 194.055 783.738 194.031C782.952 194.005 782.152 193.877 781.337 193.647L781.154 193.595L782.421 192.328Z" fill="#009BE2"/>
<path d="M832.582 178.491L831.362 179.711L823.489 177.491L824.533 176.446L831.308 174.514C832.03 174.297 832.627 174.099 833.098 173.921C833.57 173.743 833.951 173.57 834.242 173.401C834.543 173.23 834.783 173.055 834.963 172.875C835.225 172.613 835.39 172.366 835.458 172.135C835.529 171.899 835.498 171.692 835.362 171.514C835.232 171.336 834.992 171.198 834.64 171.099C834.252 170.99 833.852 170.962 833.443 171.017C833.042 171.07 832.655 171.191 832.28 171.381C831.911 171.573 831.578 171.818 831.281 172.115L829.165 171.518C829.669 171.013 830.288 170.599 831.022 170.275C831.76 169.946 832.552 169.741 833.399 169.659C834.245 169.577 835.078 169.651 835.898 169.882C836.697 170.107 837.275 170.396 837.633 170.748C837.995 171.095 838.142 171.488 838.073 171.925C838.005 172.362 837.724 172.827 837.232 173.319C836.958 173.593 836.627 173.846 836.238 174.077C835.85 174.308 835.413 174.524 834.927 174.723C834.451 174.919 833.928 175.108 833.359 175.288C832.789 175.468 832.18 175.645 831.529 175.817L827.408 177.032L832.582 178.491ZM835.623 179.371L835.774 179.414C836.461 179.607 837.106 179.707 837.708 179.711C838.317 179.717 838.884 179.644 839.412 179.492C839.948 179.338 840.448 179.115 840.909 178.824C841.38 178.53 841.817 178.182 842.22 177.78L843.768 176.231C844.097 175.902 844.339 175.602 844.495 175.33C844.655 175.054 844.736 174.809 844.739 174.594C844.748 174.381 844.684 174.203 844.548 174.059C844.416 173.911 844.225 173.802 843.974 173.732C843.698 173.654 843.406 173.632 843.099 173.665C842.792 173.699 842.482 173.777 842.169 173.899C841.865 174.019 841.567 174.174 841.276 174.362C840.99 174.552 840.73 174.765 840.496 174.999C840.269 175.226 840.086 175.453 839.948 175.68C839.816 175.908 839.741 176.123 839.724 176.324C839.713 176.526 839.772 176.706 839.902 176.863C840.035 177.016 840.251 177.134 840.549 177.218C840.832 177.298 841.126 177.331 841.433 177.317C841.75 177.301 842.059 177.25 842.363 177.166C842.67 177.077 842.951 176.963 843.206 176.824C843.47 176.683 843.693 176.528 843.876 176.359L844.384 176.803C844.098 177.088 843.734 177.347 843.291 177.578C842.854 177.811 842.376 177.999 841.856 178.143C841.346 178.285 840.83 178.37 840.31 178.399C839.794 178.424 839.315 178.374 838.873 178.25C838.325 178.095 837.915 177.884 837.643 177.617C837.371 177.35 837.222 177.044 837.197 176.701C837.181 176.356 837.273 175.991 837.473 175.606C837.678 175.217 837.977 174.826 838.372 174.431C838.783 174.02 839.256 173.66 839.791 173.349C840.331 173.035 840.902 172.788 841.506 172.607C842.119 172.424 842.741 172.321 843.371 172.298C844.005 172.271 844.618 172.341 845.208 172.508C845.821 172.681 846.278 172.923 846.581 173.234C846.884 173.545 847.047 173.904 847.07 174.311C847.096 174.715 846.986 175.153 846.739 175.625C846.498 176.098 846.127 176.585 845.626 177.086L845.081 177.631C844.553 178.159 843.98 178.64 843.363 179.072C842.746 179.505 842.093 179.875 841.404 180.182C840.715 180.489 839.996 180.72 839.247 180.875C838.504 181.031 837.735 181.097 836.94 181.074C836.154 181.047 835.353 180.92 834.539 180.69L834.355 180.638L835.623 179.371Z" fill="#009BE2"/>
<path d="M658.531 196.625L657.31 197.845L648.934 195.483L649.785 194.519L660.42 190.201L662.104 190.676L658.014 192.433L652.215 194.843L658.531 196.625ZM662.576 190.809L654.034 199.35L651.918 198.753L660.46 190.212L662.576 190.809Z" fill="#009BE2"/>
<path d="M620.123 187.498L621.312 187.834C621.733 187.952 622.132 187.997 622.509 187.968C622.895 187.937 623.249 187.846 623.569 187.696C623.899 187.543 624.19 187.342 624.44 187.091C624.686 186.845 624.838 186.615 624.896 186.4C624.957 186.182 624.911 185.989 624.759 185.82C624.616 185.649 624.353 185.51 623.969 185.402C623.661 185.315 623.331 185.28 622.98 185.296C622.635 185.314 622.301 185.385 621.978 185.51C621.665 185.632 621.393 185.808 621.162 186.039L619.046 185.442C619.508 184.981 620.077 184.623 620.755 184.368C621.443 184.11 622.171 183.962 622.94 183.923C623.709 183.885 624.445 183.964 625.148 184.162C625.914 184.379 626.491 184.662 626.878 185.011C627.275 185.359 627.453 185.758 627.412 186.207C627.377 186.659 627.094 187.15 626.562 187.682C626.307 187.937 625.971 188.167 625.552 188.375C625.142 188.58 624.678 188.74 624.16 188.855C623.652 188.968 623.109 189.023 622.532 189.02C621.963 189.015 621.389 188.931 620.809 188.767L619.284 188.337L620.123 187.498ZM618.926 188.695L619.753 187.868L621.278 188.298C621.933 188.483 622.443 188.699 622.809 188.948C623.184 189.194 623.426 189.463 623.537 189.755C623.652 190.043 623.651 190.341 623.534 190.649C623.422 190.958 623.214 191.266 622.909 191.571C622.51 191.97 622.053 192.297 621.538 192.553C621.026 192.805 620.48 192.986 619.897 193.098C619.32 193.211 618.73 193.255 618.127 193.23C617.528 193.202 616.943 193.107 616.374 192.946C615.879 192.807 615.446 192.622 615.075 192.392C614.714 192.16 614.446 191.892 614.273 191.587C614.104 191.279 614.063 190.941 614.15 190.574C614.24 190.204 614.489 189.815 614.896 189.409L617.012 190.005C616.777 190.24 616.645 190.471 616.616 190.698C616.591 190.927 616.665 191.133 616.836 191.317C617.017 191.498 617.282 191.638 617.634 191.738C618.022 191.847 618.406 191.89 618.784 191.867C619.172 191.841 619.536 191.753 619.877 191.603C620.222 191.45 620.529 191.238 620.799 190.968C621.119 190.647 621.297 190.364 621.331 190.118C621.366 189.872 621.276 189.659 621.061 189.478C620.851 189.298 620.536 189.149 620.116 189.031L618.926 188.695Z" fill="#009BE2"/>
<path d="M701.737 193.719L700.893 194.564L688.629 200.972L686.401 200.344L698.289 194.311L692.381 192.644L693.601 191.424L701.737 193.719Z" fill="#009BE2"/>
<rect width="12.853" height="89.4507" transform="matrix(0.962455 0.27144 -0.707107 0.707107 823.163 180.688)" fill="url(#paint15_linear_347_78)"/>
<rect width="12.853" height="58.6056" transform="matrix(0.962455 0.27144 -0.707107 0.707107 770.04 193.667)" fill="url(#paint16_linear_347_78)"/>
<rect width="12.853" height="43.1831" transform="matrix(0.962455 0.27144 -0.707107 0.707107 727.634 195.435)" fill="url(#paint17_linear_347_78)"/>
<rect width="12.853" height="21.5915" transform="matrix(0.962455 0.27144 -0.707107 0.707107 680.469 201.96)" fill="url(#paint18_linear_347_78)"/>
<rect width="12.853" height="12.338" transform="matrix(0.962455 0.27144 -0.707107 0.707107 642.425 199.365)" fill="url(#paint19_linear_347_78)"/>
<rect width="12.853" height="9.25352" transform="matrix(0.962455 0.27144 -0.707107 0.707107 608.733 192.913)" fill="url(#paint20_linear_347_78)"/>
<g filter="url(#filter7_b_347_78)">
<path d="M788.272 362.278C799.375 365.608 800.894 382.416 791.634 391.677L746.664 436.646C737.404 445.907 719.678 450.532 707.073 446.977L652.988 431.724C641.292 428.425 639.37 412.56 643.884 404.672C644.563 403.485 645.578 402.544 646.624 401.663L691.902 363.549C701.163 354.289 718.889 349.663 731.494 353.218L788.272 362.278Z" fill="url(#paint21_linear_347_78)"/>
</g>
<g filter="url(#filter8_b_347_78)">
<rect width="111.024" height="103.622" rx="23.9478" transform="matrix(-0.707107 0.707107 -0.962455 -0.271441 808.402 367.507)" fill="url(#paint22_linear_347_78)" fill-opacity="0.7"/>
<rect x="-1.74923" y="0.456455" width="108.928" height="101.527" rx="22.9001" transform="matrix(-0.707107 0.707107 -0.962455 -0.271441 805.855 369.324)" stroke="url(#paint23_radial_347_78)" stroke-width="2.09544"/>
<rect x="-1.74923" y="0.456455" width="108.928" height="101.527" rx="22.9001" transform="matrix(-0.707107 0.707107 -0.962455 -0.271441 805.855 369.324)" stroke="url(#paint24_radial_347_78)" stroke-width="2.09544"/>
</g>
<path d="M759.159 403.33C764.472 398.017 767.67 392.239 768.399 386.633C769.128 381.027 767.361 375.811 763.292 371.559L719.551 392.159L759.159 403.33Z" fill="#264AA0" stroke="white" stroke-width="0.747463"/>
<path d="M756.213 373.981C752.778 370.358 747.595 367.654 741.186 366.143C734.777 364.632 727.369 364.366 719.706 365.374L717.144 392.481L756.213 373.981Z" fill="#009BE2"/>
<path d="M719.706 365.374C714.032 366.12 708.346 367.547 702.97 369.575L717.144 392.48L719.706 365.374Z" fill="#009BE2"/>
<path d="M702.97 369.575C695.945 372.225 689.651 375.823 684.682 380.031L717.144 392.481L702.97 369.575Z" fill="#009BE2"/>
<path d="M684.682 380.031C679.11 384.748 675.422 390.045 674.052 395.299L717.144 392.481L684.682 380.031Z" fill="#009BE2"/>
<path d="M674.052 395.298C673.25 398.374 673.259 401.376 674.078 404.178L717.144 392.481L674.052 395.298Z" fill="#009BE2"/>
<path d="M674.078 404.178C675.75 409.901 680.723 414.542 688.174 417.333L717.144 392.481L674.078 404.178Z" fill="#009BE2"/>
<path d="M688.174 417.333C693.135 419.191 699.031 420.167 705.416 420.187L717.144 392.48L688.174 417.333Z" fill="#009BE2"/>
<path d="M705.416 420.187C715.656 420.219 726.585 417.791 736.155 413.36L717.144 392.481L705.416 420.187Z" fill="#009BE2"/>
<path d="M736.155 413.36C742.572 410.389 748.132 406.63 752.351 402.41L717.144 392.481L736.155 413.36Z" fill="#009BE2"/>
<g filter="url(#filter9_b_347_78)">
<path d="M696.495 314.198C707.598 317.528 709.118 334.336 699.857 343.597L654.887 388.566C645.627 397.827 627.901 402.452 615.296 398.897L561.211 383.644C549.515 380.345 547.593 364.48 552.107 356.592C552.786 355.405 553.801 354.464 554.847 353.583L600.125 315.469C609.386 306.209 627.112 301.583 639.717 305.138L696.495 314.198Z" fill="url(#paint25_linear_347_78)"/>
</g>
<g filter="url(#filter10_b_347_78)">
<rect width="111.024" height="103.622" rx="23.9478" transform="matrix(-0.707107 0.707107 -0.962455 -0.271441 716.407 318.367)" fill="url(#paint26_linear_347_78)" fill-opacity="0.7"/>
<rect x="-1.74923" y="0.456455" width="108.928" height="101.527" rx="22.9001" transform="matrix(-0.707107 0.707107 -0.962455 -0.271441 713.86 320.184)" stroke="url(#paint27_radial_347_78)" stroke-width="2.09544"/>
<rect x="-1.74923" y="0.456455" width="108.928" height="101.527" rx="22.9001" transform="matrix(-0.707107 0.707107 -0.962455 -0.271441 713.86 320.184)" stroke="url(#paint28_radial_347_78)" stroke-width="2.09544"/>
</g>
<path d="M571.387 357.146L642.147 377.102" stroke="#D6DCE5" stroke-width="0.747463"/>
<path d="M581.157 347.376L651.916 367.333" stroke="#D6DCE5" stroke-width="0.398523"/>
<path d="M590.926 337.607L661.686 357.563" stroke="#D6DCE5" stroke-width="0.398523"/>
<path d="M600.87 327.662L671.63 347.619" stroke="#D6DCE5" stroke-width="0.398523"/>
<path d="M610.64 317.893L681.399 337.849" stroke="#D6DCE5" stroke-width="0.398523"/>
<path d="M620.416 308.069L571.393 357.092" stroke="#D6DCE5" stroke-width="0.747463"/>
<path d="M574.176 354.357C574.176 354.357 579.918 353.563 583.746 353.034C587.574 352.504 589.096 352.632 593.316 351.711C597.536 350.789 600.549 349.426 604.847 348.426C609.146 347.426 610.668 347.554 614.809 346.711C618.951 345.868 621.571 344.897 625.556 344.211C629.541 343.525 630.671 344.045 634.734 343.28C638.797 342.516 641.81 341.153 645.873 340.388C649.936 339.624 651.144 340.065 655.051 339.457C658.957 338.849 661.656 337.8 665.405 337.35C669.155 336.899 669.971 337.732 673.799 337.203C677.627 336.674 684.546 334.703 684.546 334.703" stroke="url(#paint29_linear_347_78)" stroke-width="1.49493"/>
<g filter="url(#filter11_b_347_78)">
<path d="M618.846 255.695C629.949 259.025 631.469 275.833 622.208 285.094L577.238 330.063C567.978 339.324 550.252 343.949 537.647 340.394L483.562 325.141C471.866 321.842 469.944 305.977 474.458 298.089C475.137 296.902 476.152 295.961 477.198 295.08L522.476 256.966C531.737 247.706 549.463 243.08 562.068 246.635L618.846 255.695Z" fill="url(#paint30_linear_347_78)"/>
</g>
<g filter="url(#filter12_b_347_78)">
<rect width="111.024" height="103.622" rx="23.9478" transform="matrix(-0.707107 0.707107 -0.962455 -0.271441 638.624 260.55)" fill="url(#paint31_linear_347_78)" fill-opacity="0.7"/>
<rect x="-1.74923" y="0.456455" width="108.928" height="101.527" rx="22.9001" transform="matrix(-0.707107 0.707107 -0.962455 -0.271441 636.077 262.367)" stroke="url(#paint32_radial_347_78)" stroke-width="2.09544"/>
<rect x="-1.74923" y="0.456455" width="108.928" height="101.527" rx="22.9001" transform="matrix(-0.707107 0.707107 -0.962455 -0.271441 636.077 262.367)" stroke="url(#paint33_radial_347_78)" stroke-width="2.09544"/>
</g>
<path d="M592.965 273.543C591.685 269.527 588.772 266.032 584.47 263.348C580.167 260.665 574.599 258.87 568.228 258.114C561.856 257.358 554.866 257.662 547.837 259.001C540.809 260.34 533.945 262.675 527.817 265.812C521.688 268.949 516.472 272.798 512.601 277.039C508.731 281.279 506.318 285.788 505.563 290.193C504.808 294.597 505.732 298.768 508.26 302.36C510.788 305.952 514.846 308.861 520.096 310.845L530.39 302.058C526.977 300.768 524.339 298.877 522.696 296.543C521.053 294.208 520.452 291.496 520.943 288.634C521.433 285.771 523.002 282.84 525.518 280.084C528.034 277.328 531.424 274.826 535.408 272.787C539.391 270.748 543.853 269.23 548.421 268.359C552.99 267.489 557.534 267.292 561.675 267.783C565.816 268.274 569.436 269.441 572.232 271.185C575.029 272.929 576.922 275.201 577.754 277.812L592.965 273.543Z" fill="url(#paint34_linear_347_78)"/>
<path d="M520.088 310.842C525.102 312.737 531.068 313.738 537.533 313.769C543.999 313.8 550.795 312.859 557.403 311.018C564.012 309.178 570.261 306.486 575.674 303.147C581.087 299.808 585.522 295.911 588.643 291.75L574.945 289.646C572.916 292.351 570.033 294.884 566.515 297.054C562.996 299.225 558.935 300.974 554.639 302.171C550.343 303.367 545.926 303.978 541.724 303.959C537.521 303.939 533.643 303.288 530.384 302.056L520.088 310.842Z" fill="#D6DCE5"/>
<path d="M593.613 280.088C593.847 277.814 593.627 275.607 592.957 273.517L577.749 277.795C578.184 279.153 578.328 280.588 578.175 282.066L593.613 280.088Z" fill="#264AA0"/>
<path d="M588.709 291.662C591.552 287.846 593.222 283.899 593.614 280.075L578.176 282.058C577.921 284.543 576.835 287.109 574.987 289.589L588.709 291.662Z" fill="#009BE2"/>
<defs>
<filter id="filter0_b_347_78" x="319.018" y="130.905" width="671.497" height="491.878" filterUnits="userSpaceOnUse" color-interpolation-filters="sRGB">
<feFlood flood-opacity="0" result="BackgroundImageFix"/>
<feGaussianBlur in="BackgroundImageFix" stdDeviation="12.5726"/>
<feComposite in2="SourceAlpha" operator="in" result="effect1_backgroundBlur_347_78"/>
<feBlend mode="normal" in="SourceGraphic" in2="effect1_backgroundBlur_347_78" result="shape"/>
</filter>
<filter id="filter1_b_347_78" x="318.773" y="150.388" width="672.158" height="491.204" filterUnits="userSpaceOnUse" color-interpolation-filters="sRGB">
<feFlood flood-opacity="0" result="BackgroundImageFix"/>
<feGaussianBlur in="BackgroundImageFix" stdDeviation="12.5726"/>
<feComposite in2="SourceAlpha" operator="in" result="effect1_backgroundBlur_347_78"/>
<feBlend mode="normal" in="SourceGraphic" in2="effect1_backgroundBlur_347_78" result="shape"/>
</filter>
<filter id="filter2_b_347_78" x="319.018" y="130.904" width="671.497" height="491.878" filterUnits="userSpaceOnUse" color-interpolation-filters="sRGB">
<feFlood flood-opacity="0" result="BackgroundImageFix"/>
<feGaussianBlur in="BackgroundImageFix" stdDeviation="12.5726"/>
<feComposite in2="SourceAlpha" operator="in" result="effect1_backgroundBlur_347_78"/>
<feBlend mode="normal" in="SourceGraphic" in2="effect1_backgroundBlur_347_78" result="shape"/>
</filter>
<filter id="filter3_b_347_78" x="365.182" y="387.236" width="326.467" height="161.463" filterUnits="userSpaceOnUse" color-interpolation-filters="sRGB">
<feFlood flood-opacity="0" result="BackgroundImageFix"/>
<feGaussianBlur in="BackgroundImageFix" stdDeviation="12.5726"/>
<feComposite in2="SourceAlpha" operator="in" result="effect1_backgroundBlur_347_78"/>
<feBlend mode="normal" in="SourceGraphic" in2="effect1_backgroundBlur_347_78" result="shape"/>
</filter>
<filter id="filter4_b_347_78" x="365.431" y="379.983" width="325.635" height="161.36" filterUnits="userSpaceOnUse" color-interpolation-filters="sRGB">
<feFlood flood-opacity="0" result="BackgroundImageFix"/>
<feGaussianBlur in="BackgroundImageFix" stdDeviation="12.5726"/>
<feComposite in2="SourceAlpha" operator="in" result="effect1_backgroundBlur_347_78"/>
<feBlend mode="normal" in="SourceGraphic" in2="effect1_backgroundBlur_347_78" result="shape"/>
</filter>
<filter id="filter5_b_347_78" x="540.541" y="81.5074" width="382.217" height="217.734" filterUnits="userSpaceOnUse" color-interpolation-filters="sRGB">
<feFlood flood-opacity="0" result="BackgroundImageFix"/>
<feGaussianBlur in="BackgroundImageFix" stdDeviation="12.5726"/>
<feComposite in2="SourceAlpha" operator="in" result="effect1_backgroundBlur_347_78"/>
<feBlend mode="normal" in="SourceGraphic" in2="effect1_backgroundBlur_347_78" result="shape"/>
</filter>
<filter id="filter6_b_347_78" x="540.334" y="70.5335" width="382.683" height="218.407" filterUnits="userSpaceOnUse" color-interpolation-filters="sRGB">
<feFlood flood-opacity="0" result="BackgroundImageFix"/>
<feGaussianBlur in="BackgroundImageFix" stdDeviation="12.5726"/>
<feComposite in2="SourceAlpha" operator="in" result="effect1_backgroundBlur_347_78"/>
<feBlend mode="normal" in="SourceGraphic" in2="effect1_backgroundBlur_347_78" result="shape"/>
</filter>
<filter id="filter7_b_347_78" x="616.492" y="326.875" width="206.352" height="146.445" filterUnits="userSpaceOnUse" color-interpolation-filters="sRGB">
<feFlood flood-opacity="0" result="BackgroundImageFix"/>
<feGaussianBlur in="BackgroundImageFix" stdDeviation="12.5726"/>
<feComposite in2="SourceAlpha" operator="in" result="effect1_backgroundBlur_347_78"/>
<feBlend mode="normal" in="SourceGraphic" in2="effect1_backgroundBlur_347_78" result="shape"/>
</filter>
<filter id="filter8_b_347_78" x="616.399" y="319.525" width="205.768" height="146.342" filterUnits="userSpaceOnUse" color-interpolation-filters="sRGB">
<feFlood flood-opacity="0" result="BackgroundImageFix"/>
<feGaussianBlur in="BackgroundImageFix" stdDeviation="12.5726"/>
<feComposite in2="SourceAlpha" operator="in" result="effect1_backgroundBlur_347_78"/>
<feBlend mode="normal" in="SourceGraphic" in2="effect1_backgroundBlur_347_78" result="shape"/>
</filter>
<filter id="filter9_b_347_78" x="524.715" y="278.795" width="206.352" height="146.445" filterUnits="userSpaceOnUse" color-interpolation-filters="sRGB">
<feFlood flood-opacity="0" result="BackgroundImageFix"/>
<feGaussianBlur in="BackgroundImageFix" stdDeviation="12.5726"/>
<feComposite in2="SourceAlpha" operator="in" result="effect1_backgroundBlur_347_78"/>
<feBlend mode="normal" in="SourceGraphic" in2="effect1_backgroundBlur_347_78" result="shape"/>
</filter>
<filter id="filter10_b_347_78" x="524.404" y="270.385" width="205.768" height="146.342" filterUnits="userSpaceOnUse" color-interpolation-filters="sRGB">
<feFlood flood-opacity="0" result="BackgroundImageFix"/>
<feGaussianBlur in="BackgroundImageFix" stdDeviation="12.5726"/>
<feComposite in2="SourceAlpha" operator="in" result="effect1_backgroundBlur_347_78"/>
<feBlend mode="normal" in="SourceGraphic" in2="effect1_backgroundBlur_347_78" result="shape"/>
</filter>
<filter id="filter11_b_347_78" x="447.066" y="220.292" width="206.352" height="146.445" filterUnits="userSpaceOnUse" color-interpolation-filters="sRGB">
<feFlood flood-opacity="0" result="BackgroundImageFix"/>
<feGaussianBlur in="BackgroundImageFix" stdDeviation="12.5726"/>
<feComposite in2="SourceAlpha" operator="in" result="effect1_backgroundBlur_347_78"/>
<feBlend mode="normal" in="SourceGraphic" in2="effect1_backgroundBlur_347_78" result="shape"/>
</filter>
<filter id="filter12_b_347_78" x="446.621" y="212.568" width="205.768" height="146.342" filterUnits="userSpaceOnUse" color-interpolation-filters="sRGB">
<feFlood flood-opacity="0" result="BackgroundImageFix"/>
<feGaussianBlur in="BackgroundImageFix" stdDeviation="12.5726"/>
<feComposite in2="SourceAlpha" operator="in" result="effect1_backgroundBlur_347_78"/>
<feBlend mode="normal" in="SourceGraphic" in2="effect1_backgroundBlur_347_78" result="shape"/>
</filter>
<radialGradient id="paint0_radial_347_78" cx="0" cy="0" r="1" gradientUnits="userSpaceOnUse" gradientTransform="translate(138.78 4.84469) rotate(90) scale(462.667 240.972)">
<stop stop-color="white"/>
<stop offset="1" stop-color="white" stop-opacity="0"/>
</radialGradient>
<radialGradient id="paint1_radial_347_78" cx="0" cy="0" r="1" gradientUnits="userSpaceOnUse" gradientTransform="translate(138.78 532.915) rotate(-90) scale(266.457 138.78)">
<stop stop-color="white"/>
<stop offset="1" stop-color="white" stop-opacity="0"/>
</radialGradient>
<linearGradient id="paint2_linear_347_78" x1="228.37" y1="651.146" x2="1013.02" y2="10.2565" gradientUnits="userSpaceOnUse">
<stop stop-color="#FAFDFF"/>
<stop offset="1" stop-color="#009BE2"/>
</linearGradient>
<linearGradient id="paint3_linear_347_78" x1="1.79077e-06" y1="680.576" x2="440.635" y2="-83.6078" gradientUnits="userSpaceOnUse">
<stop stop-color="#28374D"/>
<stop offset="0.0001" stop-color="#273E6C"/>
<stop offset="0.106266" stop-color="#264AA0" stop-opacity="0.7"/>
<stop offset="0.339482" stop-color="#009BE2" stop-opacity="0.7"/>
<stop offset="0.661964" stop-color="#E4F7FF" stop-opacity="0.7"/>
<stop offset="1" stop-color="white"/>
</linearGradient>
<radialGradient id="paint4_radial_347_78" cx="0" cy="0" r="1" gradientUnits="userSpaceOnUse" gradientTransform="translate(138.78 4.84469) rotate(90) scale(462.667 240.972)">
<stop stop-color="white"/>
<stop offset="1" stop-color="white" stop-opacity="0"/>
</radialGradient>
<radialGradient id="paint5_radial_347_78" cx="0" cy="0" r="1" gradientUnits="userSpaceOnUse" gradientTransform="translate(138.78 532.915) rotate(-90) scale(266.457 138.78)">
<stop stop-color="white"/>
<stop offset="1" stop-color="white" stop-opacity="0"/>
</radialGradient>
<linearGradient id="paint6_linear_347_78" x1="651.206" y1="502.625" x2="493.665" y2="345.084" gradientUnits="userSpaceOnUse">
<stop stop-color="#009BE2" stop-opacity="0.25"/>
<stop offset="1" stop-color="#264AA0" stop-opacity="0.25"/>
</linearGradient>
<linearGradient id="paint7_linear_347_78" x1="2.65607" y1="30.3322" x2="247.508" y2="82.1026" gradientUnits="userSpaceOnUse">
<stop stop-color="white"/>
<stop offset="0.3125" stop-color="white" stop-opacity="0.7"/>
<stop offset="1" stop-color="#17A6E8" stop-opacity="0.5"/>
</linearGradient>
<radialGradient id="paint8_radial_347_78" cx="0" cy="0" r="1" gradientUnits="userSpaceOnUse" gradientTransform="translate(37.008 2.32141) rotate(90) scale(221.695 64.2593)">
<stop stop-color="white"/>
<stop offset="1" stop-color="white" stop-opacity="0"/>
</radialGradient>
<radialGradient id="paint9_radial_347_78" cx="0" cy="0" r="1" gradientUnits="userSpaceOnUse" gradientTransform="translate(37.008 255.355) rotate(-90) scale(127.677 37.008)">
<stop stop-color="white"/>
<stop offset="1" stop-color="white" stop-opacity="0"/>
</radialGradient>
<linearGradient id="paint10_linear_347_78" x1="587.019" y1="477.238" x2="513.5" y2="403.719" gradientUnits="userSpaceOnUse">
<stop stop-color="white"/>
<stop offset="0.416667" stop-color="#009BE2"/>
<stop offset="1" stop-color="#264AA0"/>
</linearGradient>
<linearGradient id="paint11_linear_347_78" x1="888.781" y1="136.259" x2="554.612" y2="132.762" gradientUnits="userSpaceOnUse">
<stop stop-color="#009BE2" stop-opacity="0.25"/>
<stop offset="1" stop-color="#264AA0" stop-opacity="0.25"/>
</linearGradient>
<linearGradient id="paint12_linear_347_78" x1="-31.2253" y1="44.2102" x2="133.295" y2="271.177" gradientUnits="userSpaceOnUse">
<stop stop-color="white"/>
<stop offset="0.332259" stop-color="white" stop-opacity="0.7"/>
</linearGradient>
<radialGradient id="paint13_radial_347_78" cx="0" cy="0" r="1" gradientUnits="userSpaceOnUse" gradientTransform="translate(77.3467 2.32141) rotate(90) scale(221.695 134.302)">
<stop stop-color="white"/>
<stop offset="1" stop-color="white" stop-opacity="0"/>
</radialGradient>
<radialGradient id="paint14_radial_347_78" cx="0" cy="0" r="1" gradientUnits="userSpaceOnUse" gradientTransform="translate(77.3467 255.355) rotate(-90) scale(127.677 77.3467)">
<stop stop-color="white"/>
<stop offset="1" stop-color="white" stop-opacity="0"/>
</radialGradient>
<linearGradient id="paint15_linear_347_78" x1="1.96811" y1="-12.8585" x2="60.8185" y2="48.9106" gradientUnits="userSpaceOnUse">
<stop stop-color="white"/>
<stop offset="0.38568" stop-color="#17A6E8"/>
<stop offset="0.848958" stop-color="#314F97"/>
</linearGradient>
<linearGradient id="paint16_linear_347_78" x1="1.96811" y1="-8.42456" x2="36.6477" y2="47.1326" gradientUnits="userSpaceOnUse">
<stop stop-color="white"/>
<stop offset="0.38568" stop-color="#17A6E8"/>
<stop offset="0.848958" stop-color="#314F97"/>
</linearGradient>
<linearGradient id="paint17_linear_347_78" x1="1.96811" y1="-6.20757" x2="23.5646" y2="40.7468" gradientUnits="userSpaceOnUse">
<stop stop-color="white"/>
<stop offset="0.38568" stop-color="#17A6E8"/>
<stop offset="0.848958" stop-color="#314F97"/>
</linearGradient>
<linearGradient id="paint18_linear_347_78" x1="1.96811" y1="-3.10378" x2="8.18086" y2="23.9113" gradientUnits="userSpaceOnUse">
<stop stop-color="white"/>
<stop offset="0.38568" stop-color="#17A6E8"/>
<stop offset="0.848958" stop-color="#314F97"/>
</linearGradient>
<linearGradient id="paint19_linear_347_78" x1="1.96811" y1="-1.77359" x2="4.06779" y2="14.2041" gradientUnits="userSpaceOnUse">
<stop stop-color="white"/>
<stop offset="0.38568" stop-color="#17A6E8"/>
<stop offset="0.848958" stop-color="#314F97"/>
</linearGradient>
<linearGradient id="paint20_linear_347_78" x1="1.96811" y1="-1.33019" x2="3.15802" y2="10.7427" gradientUnits="userSpaceOnUse">
<stop stop-color="white"/>
<stop offset="0.38568" stop-color="#17A6E8"/>
<stop offset="0.848958" stop-color="#314F97"/>
</linearGradient>
<linearGradient id="paint21_linear_347_78" x1="769.149" y1="414.161" x2="705.22" y2="350.232" gradientUnits="userSpaceOnUse">
<stop offset="0.578125" stop-color="#009BE2" stop-opacity="0.25"/>
<stop offset="1" stop-color="#264AA0" stop-opacity="0.25"/>
</linearGradient>
<linearGradient id="paint22_linear_347_78" x1="3.98411" y1="12.3087" x2="242.182" y2="198.474" gradientUnits="userSpaceOnUse">
<stop stop-color="white"/>
<stop offset="0.3125" stop-color="white" stop-opacity="0.7"/>
<stop offset="1" stop-color="#17A6E8" stop-opacity="0.5"/>
</linearGradient>
<radialGradient id="paint23_radial_347_78" cx="0" cy="0" r="1" gradientUnits="userSpaceOnUse" gradientTransform="translate(55.512 0.942022) rotate(90) scale(89.963 96.3889)">
<stop stop-color="white"/>
<stop offset="1" stop-color="white" stop-opacity="0"/>
</radialGradient>
<radialGradient id="paint24_radial_347_78" cx="0" cy="0" r="1" gradientUnits="userSpaceOnUse" gradientTransform="translate(55.512 103.622) rotate(-90) scale(51.8111 55.512)">
<stop stop-color="white"/>
<stop offset="1" stop-color="white" stop-opacity="0"/>
</radialGradient>
<linearGradient id="paint25_linear_347_78" x1="677.372" y1="366.081" x2="613.443" y2="302.152" gradientUnits="userSpaceOnUse">
<stop stop-color="#009BE2" stop-opacity="0.25"/>
<stop offset="1" stop-color="#264AA0" stop-opacity="0.25"/>
</linearGradient>
<linearGradient id="paint26_linear_347_78" x1="3.98411" y1="12.3087" x2="242.182" y2="198.474" gradientUnits="userSpaceOnUse">
<stop stop-color="white"/>
<stop offset="0.3125" stop-color="white" stop-opacity="0.7"/>
<stop offset="1" stop-color="#17A6E8" stop-opacity="0.5"/>
</linearGradient>
<radialGradient id="paint27_radial_347_78" cx="0" cy="0" r="1" gradientUnits="userSpaceOnUse" gradientTransform="translate(55.512 0.942022) rotate(90) scale(89.963 96.3889)">
<stop stop-color="white"/>
<stop offset="1" stop-color="white" stop-opacity="0"/>
</radialGradient>
<radialGradient id="paint28_radial_347_78" cx="0" cy="0" r="1" gradientUnits="userSpaceOnUse" gradientTransform="translate(55.512 103.622) rotate(-90) scale(51.8111 55.512)">
<stop stop-color="white"/>
<stop offset="1" stop-color="white" stop-opacity="0"/>
</radialGradient>
<linearGradient id="paint29_linear_347_78" x1="737.655" y1="306.323" x2="698.348" y2="425.191" gradientUnits="userSpaceOnUse">
<stop offset="0.208333" stop-color="#264AA0"/>
<stop offset="0.667631" stop-color="#009BE2"/>
<stop offset="1" stop-color="#D7E9F0"/>
</linearGradient>
<linearGradient id="paint30_linear_347_78" x1="599.723" y1="307.578" x2="535.794" y2="243.649" gradientUnits="userSpaceOnUse">
<stop stop-color="#009BE2" stop-opacity="0.25"/>
<stop offset="1" stop-color="#264AA0" stop-opacity="0.25"/>
</linearGradient>
<linearGradient id="paint31_linear_347_78" x1="3.98411" y1="12.3087" x2="242.182" y2="198.474" gradientUnits="userSpaceOnUse">
<stop stop-color="white"/>
<stop offset="0.3125" stop-color="white" stop-opacity="0.7"/>
<stop offset="1" stop-color="#17A6E8" stop-opacity="0.5"/>
</linearGradient>
<radialGradient id="paint32_radial_347_78" cx="0" cy="0" r="1" gradientUnits="userSpaceOnUse" gradientTransform="translate(55.512 0.942022) rotate(90) scale(89.963 96.3889)">
<stop stop-color="white"/>
<stop offset="1" stop-color="white" stop-opacity="0"/>
</radialGradient>
<radialGradient id="paint33_radial_347_78" cx="0" cy="0" r="1" gradientUnits="userSpaceOnUse" gradientTransform="translate(55.512 103.622) rotate(-90) scale(51.8111 55.512)">
<stop stop-color="white"/>
<stop offset="1" stop-color="white" stop-opacity="0"/>
</radialGradient>
<linearGradient id="paint34_linear_347_78" x1="675.399" y1="230.406" x2="620.833" y2="387.817" gradientUnits="userSpaceOnUse">
<stop offset="0.275634" stop-color="#264AA0"/>
<stop offset="0.532688" stop-color="#54BAB4"/>
<stop offset="0.86676" stop-color="#D7E9F0"/>
<stop offset="0.992881" stop-color="white"/>
</linearGradient>
</defs>
</svg>
