<svg width="64" height="64" viewBox="0 0 64 64" fill="none" xmlns="http://www.w3.org/2000/svg">
<path d="M38 5.807C38 3.704 36.296 2 34.193 2H29.81C27.704 2 26 3.704 26 5.807C26 7.541 24.812 9.029 23.195 9.665C22.94 9.767 22.685 9.875 22.436 9.983C20.843 10.673 18.95 10.463 17.72 9.236C17.0061 8.52263 16.0382 8.12191 15.029 8.12191C14.0198 8.12191 13.0519 8.52263 12.338 9.236L9.236 12.338C8.52263 13.0519 8.12191 14.0198 8.12191 15.029C8.12191 16.0382 8.52263 17.0061 9.236 17.72C10.466 18.95 10.676 20.84 9.98 22.436C9.87065 22.6872 9.76563 22.9402 9.665 23.195C9.029 24.812 7.541 26 5.807 26C3.704 26 2 27.704 2 29.807V34.193C2 36.296 3.704 38 5.807 38C7.541 38 9.029 39.188 9.665 40.805C9.767 41.06 9.875 41.315 9.98 41.564C10.673 43.157 10.463 45.05 9.236 46.28C8.52263 46.9939 8.12191 47.9618 8.12191 48.971C8.12191 49.9802 8.52263 50.9481 9.236 51.662L12.338 54.764C13.0519 55.4774 14.0198 55.8781 15.029 55.8781C16.0382 55.8781 17.0061 55.4774 17.72 54.764C18.95 53.534 20.84 53.324 22.436 54.017C22.685 54.128 22.94 54.233 23.195 54.335C24.812 54.971 26 56.459 26 58.193C26 60.296 27.704 62 29.807 62H34.193C36.296 62 38 60.296 38 58.193C38 56.459 39.188 54.971 40.805 54.332C41.06 54.233 41.315 54.128 41.564 54.02C43.157 53.324 45.05 53.537 46.277 54.764C46.6305 55.1177 47.0503 55.3982 47.5123 55.5896C47.9743 55.7811 48.4694 55.8796 48.9695 55.8796C49.4696 55.8796 49.9647 55.7811 50.4267 55.5896C50.8887 55.3982 51.3085 55.1177 51.662 54.764L54.764 51.662C55.4774 50.9481 55.8781 49.9802 55.8781 48.971C55.8781 47.9618 55.4774 46.9939 54.764 46.28C53.534 45.05 53.324 43.16 54.017 41.564C54.128 41.315 54.233 41.06 54.335 40.805C54.971 39.188 56.459 38 58.193 38C60.296 38 62 36.296 62 34.193V29.81C62 27.707 60.296 26.003 58.193 26.003C56.459 26.003 54.971 24.815 54.332 23.198C54.2315 22.9432 54.1265 22.6901 54.017 22.439C53.327 20.846 53.537 18.953 54.764 17.723C55.4774 17.0091 55.8781 16.0412 55.8781 15.032C55.8781 14.0228 55.4774 13.0549 54.764 12.341L51.662 9.239C50.9481 8.52563 49.9802 8.12491 48.971 8.12491C47.9618 8.12491 46.9939 8.52563 46.28 9.239C45.05 10.469 43.16 10.679 41.564 9.986C41.3129 9.87562 41.0598 9.76961 40.805 9.668C39.188 9.029 38 7.541 38 5.81V5.807Z" stroke="#009BE2" stroke-width="3.6"/>
<path d="M39.5182 26.4884L43.6692 31.6849C43.7829 31.8272 43.7845 32.0288 43.6731 32.1729L39.5182 37.5476" stroke="#009BE2" stroke-width="3.6" stroke-linecap="round"/>
<path d="M24.1151 26.4883L19.9641 31.6847C19.8504 31.8271 19.8488 32.0287 19.9602 32.1728L24.1151 37.5475" stroke="#009BE2" stroke-width="3.6" stroke-linecap="round"/>
<line x1="30.1597" y1="39.6429" x2="32.9182" y2="23.9985" stroke="#009BE2" stroke-width="3.6" stroke-linecap="round"/>
</svg>
