<svg width="64" height="72" viewBox="0 0 64 72" fill="none" xmlns="http://www.w3.org/2000/svg">
<path d="M55.0948 29.333V42.6664M37.7748 59.333L43.5482 55.9997L49.3215 52.6664M26.2282 59.333L20.4532 55.9997L14.6799 52.6664M8.9082 29.333V42.6664M14.6799 19.333L20.4549 15.9997L26.2282 12.6664M37.7748 12.6664L43.5482 15.9997L49.3215 19.333" stroke="#009BE2" stroke-width="4" stroke-linecap="round" stroke-linejoin="round"/>
<path d="M32 69.3333C33.7681 69.3333 35.4638 68.631 36.714 67.3807C37.9643 66.1305 38.6666 64.4348 38.6666 62.6667C38.6666 60.8986 37.9643 59.2029 36.714 57.9526C35.4638 56.7024 33.7681 56 32 56C30.2319 56 28.5362 56.7024 27.2859 57.9526C26.0357 59.2029 25.3333 60.8986 25.3333 62.6667C25.3333 64.4348 26.0357 66.1305 27.2859 67.3807C28.5362 68.631 30.2319 69.3333 32 69.3333ZM32 16C33.7681 16 35.4638 15.2976 36.714 14.0474C37.9643 12.7972 38.6666 11.1015 38.6666 9.33335C38.6666 7.56524 37.9643 5.86955 36.714 4.61931C35.4638 3.36907 33.7681 2.66669 32 2.66669C30.2319 2.66669 28.5362 3.36907 27.2859 4.61931C26.0357 5.86955 25.3333 7.56524 25.3333 9.33335C25.3333 11.1015 26.0357 12.7972 27.2859 14.0474C28.5362 15.2976 30.2319 16 32 16ZM55.3333 29.3334C57.1014 29.3334 58.7971 28.631 60.0473 27.3807C61.2976 26.1305 61.9999 24.4348 61.9999 22.6667C61.9999 20.8986 61.2976 19.2029 60.0473 17.9526C58.7971 16.7024 57.1014 16 55.3333 16C53.5652 16 51.8695 16.7024 50.6192 17.9526C49.369 19.2029 48.6666 20.8986 48.6666 22.6667C48.6666 24.4348 49.369 26.1305 50.6192 27.3807C51.8695 28.631 53.5652 29.3334 55.3333 29.3334ZM55.3333 56C57.1014 56 58.7971 55.2976 60.0473 54.0474C61.2976 52.7971 61.9999 51.1015 61.9999 49.3334C61.9999 47.5652 61.2976 45.8696 60.0473 44.6193C58.7971 43.3691 57.1014 42.6667 55.3333 42.6667C53.5652 42.6667 51.8695 43.3691 50.6192 44.6193C49.369 45.8696 48.6666 47.5652 48.6666 49.3334C48.6666 51.1015 49.369 52.7971 50.6192 54.0474C51.8695 55.2976 53.5652 56 55.3333 56ZM8.66666 29.3334C10.4348 29.3334 12.1305 28.631 13.3807 27.3807C14.6309 26.1305 15.3333 24.4348 15.3333 22.6667C15.3333 20.8986 14.6309 19.2029 13.3807 17.9526C12.1305 16.7024 10.4348 16 8.66666 16C6.89855 16 5.20286 16.7024 3.95262 17.9526C2.70238 19.2029 2 20.8986 2 22.6667C2 24.4348 2.70238 26.1305 3.95262 27.3807C5.20286 28.631 6.89855 29.3334 8.66666 29.3334ZM8.66666 56C10.4348 56 12.1305 55.2976 13.3807 54.0474C14.6309 52.7971 15.3333 51.1015 15.3333 49.3334C15.3333 47.5652 14.6309 45.8696 13.3807 44.6193C12.1305 43.3691 10.4348 42.6667 8.66666 42.6667C6.89855 42.6667 5.20286 43.3691 3.95262 44.6193C2.70238 45.8696 2 47.5652 2 49.3334C2 51.1015 2.70238 52.7971 3.95262 54.0474C5.20286 55.2976 6.89855 56 8.66666 56Z" stroke="#009BE2" stroke-width="4" stroke-linecap="round" stroke-linejoin="round"/>
</svg>
