<svg width="600" height="598" viewBox="0 0 741 598" fill="none" xmlns="http://www.w3.org/2000/svg">
<g filter="url(#filter0_b_361_369)">
<path d="M395.546 148.353C405.494 138.405 423.046 135.353 433.047 137.853L656.327 200.623C676.827 207.052 670.732 234.164 660.784 244.112L319.981 584.915C310.033 594.863 290.992 599.831 277.452 596.013L59.3465 534.501C45.8064 530.682 39.8272 502.552 51.7638 491.506L395.546 148.353Z" fill="url(#paint0_linear_361_369)" fill-opacity="0.4"/>
<path d="M394.724 148.545C404.076 139.193 421.977 134.522 434.706 138.112L655.748 200.452C668.477 204.042 671.215 214.534 661.863 223.886L318.902 566.847C309.55 576.199 291.65 580.87 278.92 577.28L57.8787 514.94C45.1492 511.35 42.4115 500.858 51.7638 491.506L394.724 148.545Z" fill="url(#paint1_linear_361_369)" fill-opacity="0.4"/>
<path d="M394.724 148.545C404.076 139.193 421.977 134.522 434.706 138.112L655.748 200.452C668.477 204.042 671.215 214.534 661.863 223.886L318.902 566.847C309.55 576.199 291.65 580.87 278.92 577.28L57.8787 514.94C45.1492 511.35 42.4115 500.858 51.7638 491.506L394.724 148.545Z" fill="white" fill-opacity="0.4"/>
<path d="M396.183 148.989L396.182 148.99L52.4002 492.142L52.3996 492.143L396.183 148.989ZM396.183 148.989C401.009 144.163 407.72 140.976 414.492 139.309C421.263 137.642 427.992 137.52 432.816 138.723M396.183 148.989L432.816 138.723M664.189 206.394C665.187 207.58 665.861 208.878 666.215 210.236C667.214 214.062 665.766 218.711 661.226 223.25L318.266 566.21C313.729 570.747 307.071 574.188 299.95 576.046C292.83 577.904 285.339 578.155 279.164 576.414L58.123 514.073C51.9444 512.331 48.4099 508.983 47.4114 505.156C47.0702 503.849 47.0147 502.445 47.2706 500.982C47.9156 498.675 48.8733 496.543 50.1669 494.703C50.8034 493.852 51.544 492.999 52.3927 492.149L664.189 206.394ZM664.189 206.394C662.211 204.284 659.553 202.58 656.071 201.485C656.066 201.484 656.062 201.483 656.058 201.481L432.828 138.726C432.824 138.725 432.82 138.724 432.816 138.723M664.189 206.394L432.816 138.723M46.281 507.348C47.9971 511.18 51.9214 514.195 57.6344 515.806L278.676 578.146C285.23 579.995 293.055 579.705 300.405 577.787C307.755 575.869 314.723 572.298 319.539 567.483L662.499 224.523C665.957 221.065 667.891 217.369 668.254 213.835C668.877 216.106 669.132 218.539 669.074 221.027C668.874 229.643 664.943 238.68 660.148 243.475L319.344 584.279C314.51 589.113 307.418 592.777 299.836 594.755C292.255 596.734 284.277 597.002 277.697 595.146L59.5908 533.634C56.4708 532.754 53.7155 530.451 51.5149 527.219C49.3172 523.99 47.714 519.89 46.8854 515.545C46.3675 512.828 46.1565 510.048 46.281 507.348Z" stroke="url(#paint2_radial_361_369)" stroke-width="1.8"/>
<path d="M396.183 148.989L396.182 148.99L52.4002 492.142L52.3996 492.143L396.183 148.989ZM396.183 148.989C401.009 144.163 407.72 140.976 414.492 139.309C421.263 137.642 427.992 137.52 432.816 138.723M396.183 148.989L432.816 138.723M664.189 206.394C665.187 207.58 665.861 208.878 666.215 210.236C667.214 214.062 665.766 218.711 661.226 223.25L318.266 566.21C313.729 570.747 307.071 574.188 299.95 576.046C292.83 577.904 285.339 578.155 279.164 576.414L58.123 514.073C51.9444 512.331 48.4099 508.983 47.4114 505.156C47.0702 503.849 47.0147 502.445 47.2706 500.982C47.9156 498.675 48.8733 496.543 50.1669 494.703C50.8034 493.852 51.544 492.999 52.3927 492.149L664.189 206.394ZM664.189 206.394C662.211 204.284 659.553 202.58 656.071 201.485C656.066 201.484 656.062 201.483 656.058 201.481L432.828 138.726C432.824 138.725 432.82 138.724 432.816 138.723M664.189 206.394L432.816 138.723M46.281 507.348C47.9971 511.18 51.9214 514.195 57.6344 515.806L278.676 578.146C285.23 579.995 293.055 579.705 300.405 577.787C307.755 575.869 314.723 572.298 319.539 567.483L662.499 224.523C665.957 221.065 667.891 217.369 668.254 213.835C668.877 216.106 669.132 218.539 669.074 221.027C668.874 229.643 664.943 238.68 660.148 243.475L319.344 584.279C314.51 589.113 307.418 592.777 299.836 594.755C292.255 596.734 284.277 597.002 277.697 595.146L59.5908 533.634C56.4708 532.754 53.7155 530.451 51.5149 527.219C49.3172 523.99 47.714 519.89 46.8854 515.545C46.3675 512.828 46.1565 510.048 46.281 507.348Z" stroke="url(#paint3_radial_361_369)" stroke-width="1.8"/>
</g>
<g filter="url(#filter1_b_361_369)">
<path d="M358.876 444.618C369.979 447.578 371.914 464.817 362.653 474.077L343.852 492.878C334.592 502.139 316.866 506.765 304.261 503.21L104.14 446.77C92.5747 443.508 90.184 429.778 94.156 421.246C94.8546 419.745 95.9813 418.504 97.1752 417.358L119.046 396.353C128.546 387.353 144.546 385.353 155.047 386.853L358.876 444.618Z" fill="url(#paint4_linear_361_369)"/>
<path d="M356.299 443.504C369.028 447.094 371.766 457.586 362.414 466.938L343.944 485.408C334.592 494.76 316.691 499.431 303.962 495.841L104.291 439.528C91.562 435.938 88.8242 425.446 98.1764 416.094L116.646 397.624C125.998 388.272 143.899 383.601 156.629 387.191L356.299 443.504Z" fill="url(#paint5_linear_361_369)" fill-opacity="0.8"/>
<path d="M358.876 444.618C369.979 447.578 371.914 464.817 362.653 474.077L343.852 492.878C334.592 502.139 316.866 506.765 304.261 503.21L104.14 446.77C92.5747 443.508 90.184 429.778 94.156 421.246C94.8546 419.745 95.9813 418.504 97.1752 417.358L119.046 396.353C128.546 387.353 144.546 385.353 155.047 386.853L358.876 444.618Z" stroke="url(#paint6_radial_361_369)" stroke-opacity="0.7" stroke-width="1.5"/>
<path d="M358.876 444.618C369.979 447.578 371.914 464.817 362.653 474.077L343.852 492.878C334.592 502.139 316.866 506.765 304.261 503.21L104.14 446.77C92.5747 443.508 90.184 429.778 94.156 421.246C94.8546 419.745 95.9813 418.504 97.1752 417.358L119.046 396.353C128.546 387.353 144.546 385.353 155.047 386.853L358.876 444.618Z" stroke="url(#paint7_radial_361_369)" stroke-opacity="0.7" stroke-width="1.5"/>
<path d="M356.299 443.504C369.028 447.094 371.766 457.586 362.414 466.938L343.944 485.408C334.592 494.76 316.691 499.431 303.962 495.841L104.291 439.528C91.562 435.938 88.8242 425.446 98.1764 416.094L116.646 397.624C125.998 388.272 143.899 383.601 156.629 387.191L356.299 443.504Z" stroke="url(#paint8_radial_361_369)" stroke-opacity="0.7" stroke-width="1.5"/>
<path d="M356.299 443.504C369.028 447.094 371.766 457.586 362.414 466.938L343.944 485.408C334.592 494.76 316.691 499.431 303.962 495.841L104.291 439.528C91.562 435.938 88.8242 425.446 98.1764 416.094L116.646 397.624C125.998 388.272 143.899 383.601 156.629 387.191L356.299 443.504Z" stroke="url(#paint9_radial_361_369)" stroke-opacity="0.7" stroke-width="1.5"/>
</g>
<path d="M126.617 432.405C138.419 435.734 155.017 431.402 163.689 422.731C172.36 414.059 169.822 404.331 158.019 401.002C146.216 397.674 129.618 402.005 120.947 410.676C112.275 419.348 114.814 429.076 126.617 432.405Z" fill="#009BE2"/>
<path d="M340.647 468.612L181.789 423.809C179.428 423.144 176.108 424.01 174.374 425.744C172.64 427.479 173.148 429.424 175.508 430.09L334.367 474.893C336.727 475.558 340.047 474.692 341.781 472.958C343.515 471.224 343.008 469.278 340.647 468.612Z" fill="white"/>
<path d="M269.41 448.521L181.789 423.809C179.428 423.144 176.108 424.01 174.374 425.744C172.64 427.479 173.148 429.424 175.508 430.09L263.13 454.802C265.49 455.468 268.81 454.601 270.544 452.867C272.278 451.133 271.771 449.187 269.41 448.521Z" fill="url(#paint10_linear_361_369)"/>
<path d="M155.967 413.653L136.958 418.613L135.436 412.783C135.256 412.092 134.153 411.781 132.974 412.088C131.794 412.396 130.984 413.206 131.164 413.898L133.012 420.98C133.193 421.671 134.295 421.982 135.475 421.674L156.62 416.156C157.8 415.849 158.61 415.039 158.429 414.347C158.249 413.656 157.146 413.345 155.967 413.653Z" fill="#D6DCE5"/>
<g filter="url(#filter2_b_361_369)">
<path d="M589.327 131.382C606.327 137.052 603.234 156.256 593.286 166.203L519.926 239.564C509.978 249.512 490.937 254.48 477.397 250.662L280.663 195.177C267.123 191.358 262.827 171.052 272.104 161.835L349.841 84.0587C350.644 83.2558 351.494 82.5017 352.433 81.8636C362.519 75.0085 378.063 71.51 389.047 74.8528L589.327 131.382Z" fill="url(#paint11_linear_361_369)" fill-opacity="0.8"/>
<path d="M588.25 131.054C600.979 134.644 603.717 145.136 594.365 154.488L518.848 230.006C509.495 239.358 491.595 244.029 478.865 240.439L279.195 184.126C266.466 180.536 263.728 170.044 273.08 160.692L348.597 85.1746C357.95 75.8224 375.85 71.1512 388.58 74.7413L588.25 131.054Z" fill="url(#paint12_linear_361_369)" fill-opacity="0.8"/>
<path d="M589.327 131.382C606.327 137.052 603.234 156.256 593.286 166.203L519.926 239.564C509.978 249.512 490.937 254.48 477.397 250.662L280.663 195.177C267.123 191.358 262.827 171.052 272.104 161.835L349.841 84.0587C350.644 83.2558 351.494 82.5017 352.433 81.8636C362.519 75.0085 378.063 71.51 389.047 74.8528L589.327 131.382Z" stroke="url(#paint13_radial_361_369)" stroke-opacity="0.7" stroke-width="1.5"/>
<path d="M589.327 131.382C606.327 137.052 603.234 156.256 593.286 166.203L519.926 239.564C509.978 249.512 490.937 254.48 477.397 250.662L280.663 195.177C267.123 191.358 262.827 171.052 272.104 161.835L349.841 84.0587C350.644 83.2558 351.494 82.5017 352.433 81.8636C362.519 75.0085 378.063 71.51 389.047 74.8528L589.327 131.382Z" stroke="url(#paint14_radial_361_369)" stroke-opacity="0.7" stroke-width="1.5"/>
<path d="M588.25 131.054C600.979 134.644 603.717 145.136 594.365 154.488L518.848 230.006C509.495 239.358 491.595 244.029 478.865 240.439L279.195 184.126C266.466 180.536 263.728 170.044 273.08 160.692L348.597 85.1746C357.95 75.8224 375.85 71.1512 388.58 74.7413L588.25 131.054Z" stroke="url(#paint15_radial_361_369)" stroke-opacity="0.7" stroke-width="1.5"/>
<path d="M588.25 131.054C600.979 134.644 603.717 145.136 594.365 154.488L518.848 230.006C509.495 239.358 491.595 244.029 478.865 240.439L279.195 184.126C266.466 180.536 263.728 170.044 273.08 160.692L348.597 85.1746C357.95 75.8224 375.85 71.1512 388.58 74.7413L588.25 131.054Z" stroke="url(#paint16_radial_361_369)" stroke-opacity="0.7" stroke-width="1.5"/>
</g>
<path d="M391.532 90.3354L304.289 177.578" stroke="white" stroke-width="0.566353"/>
<path d="M561.557 138.288L474.314 225.531" stroke="white" stroke-width="0.566353"/>
<path d="M326.1 155.768L496.125 203.72" stroke="white" stroke-width="0.566353"/>
<path d="M348.307 133.56L518.333 181.513" stroke="white" stroke-width="0.566353"/>
<path d="M369.721 112.146L539.747 160.099" stroke="white" stroke-width="0.566353"/>
<path d="M391.532 90.3354L561.557 138.288" stroke="white" stroke-width="0.566353"/>
<path d="M304.686 177.182L474.711 225.134" stroke="white" stroke-width="0.566353"/>
<path d="M443.923 163.034L435.358 171.599L433.242 171.002L439.994 164.25L436.511 164.14L437.766 162.885L443.683 162.967L443.923 163.034ZM450.458 171.864L449.238 173.084L440.862 170.722L441.713 169.759L452.347 165.44L454.032 165.916L449.941 167.672L444.142 170.083L450.458 171.864ZM454.503 166.048L445.962 174.59L443.846 173.993L452.387 165.452L454.503 166.048Z" fill="#009BE2"/>
<path d="M486.329 161.267L477.764 169.832L475.648 169.235L482.4 162.483L478.917 162.373L480.172 161.118L486.089 161.199L486.329 161.267ZM484.468 170.181L484.62 170.224C485.306 170.417 485.951 170.516 486.554 170.521C487.162 170.527 487.73 170.454 488.257 170.302C488.794 170.147 489.293 169.925 489.755 169.634C490.225 169.34 490.662 168.992 491.065 168.589L492.614 167.041C492.942 166.712 493.185 166.412 493.34 166.14C493.5 165.864 493.582 165.619 493.585 165.404C493.593 165.191 493.529 165.013 493.393 164.869C493.261 164.721 493.07 164.612 492.82 164.542C492.543 164.464 492.251 164.442 491.944 164.475C491.638 164.509 491.328 164.587 491.014 164.709C490.71 164.829 490.413 164.983 490.122 165.172C489.836 165.362 489.576 165.575 489.341 165.809C489.114 166.036 488.932 166.263 488.794 166.49C488.661 166.718 488.586 166.933 488.57 167.134C488.558 167.336 488.618 167.516 488.747 167.672C488.881 167.825 489.097 167.944 489.395 168.028C489.677 168.108 489.972 168.141 490.279 168.127C490.595 168.111 490.905 168.06 491.208 167.975C491.515 167.887 491.796 167.773 492.051 167.634C492.315 167.493 492.538 167.338 492.721 167.169L493.229 167.613C492.944 167.898 492.58 168.157 492.137 168.388C491.699 168.62 491.221 168.809 490.701 168.953C490.191 169.095 489.676 169.18 489.156 169.209C488.639 169.234 488.16 169.184 487.719 169.059C487.17 168.905 486.76 168.694 486.488 168.427C486.216 168.159 486.068 167.854 486.042 167.511C486.026 167.166 486.118 166.801 486.319 166.416C486.523 166.027 486.823 165.636 487.218 165.241C487.628 164.83 488.101 164.469 488.637 164.159C489.176 163.845 489.748 163.598 490.352 163.417C490.965 163.234 491.586 163.131 492.216 163.108C492.85 163.081 493.463 163.151 494.054 163.318C494.666 163.491 495.124 163.732 495.427 164.044C495.73 164.355 495.893 164.714 495.915 165.121C495.941 165.525 495.831 165.963 495.585 166.435C495.343 166.908 494.972 167.395 494.472 167.896L493.926 168.441C493.398 168.969 492.826 169.449 492.209 169.882C491.592 170.315 490.939 170.685 490.25 170.992C489.56 171.299 488.841 171.53 488.093 171.684C487.35 171.841 486.58 171.907 485.785 171.883C484.999 171.857 484.199 171.729 483.384 171.5L483.201 171.448L484.468 170.181Z" fill="#009BE2"/>
<path d="M534.629 156.344L533.409 157.564L525.536 155.343L526.58 154.299L533.355 152.367C534.077 152.149 534.674 151.952 535.145 151.774C535.617 151.596 535.998 151.423 536.289 151.254C536.59 151.083 536.83 150.908 537.01 150.728C537.272 150.466 537.437 150.219 537.505 149.987C537.577 149.752 537.545 149.545 537.409 149.366C537.279 149.189 537.039 149.051 536.687 148.952C536.299 148.843 535.9 148.815 535.49 148.87C535.089 148.923 534.702 149.044 534.327 149.234C533.958 149.426 533.625 149.67 533.328 149.968L531.212 149.371C531.716 148.866 532.336 148.452 533.069 148.127C533.807 147.799 534.599 147.594 535.446 147.512C536.292 147.429 537.126 147.504 537.945 147.735C538.744 147.96 539.322 148.249 539.68 148.6C540.042 148.948 540.189 149.341 540.12 149.777C540.052 150.214 539.771 150.679 539.279 151.172C539.005 151.446 538.674 151.698 538.285 151.93C537.897 152.161 537.46 152.376 536.974 152.575C536.498 152.772 535.975 152.96 535.406 153.141C534.837 153.321 534.227 153.498 533.576 153.67L529.455 154.884L534.629 156.344ZM537.67 157.224L537.821 157.267C538.508 157.46 539.153 157.559 539.756 157.564C540.364 157.57 540.932 157.497 541.459 157.345C541.996 157.19 542.495 156.968 542.956 156.677C543.427 156.383 543.864 156.035 544.267 155.632L545.815 154.084C546.144 153.755 546.386 153.455 546.542 153.183C546.702 152.907 546.783 152.662 546.787 152.447C546.795 152.234 546.731 152.056 546.595 151.912C546.463 151.764 546.272 151.655 546.021 151.585C545.745 151.507 545.453 151.484 545.146 151.518C544.839 151.552 544.529 151.63 544.216 151.752C543.912 151.872 543.614 152.026 543.323 152.215C543.038 152.405 542.777 152.618 542.543 152.852C542.316 153.079 542.133 153.306 541.995 153.533C541.863 153.761 541.788 153.976 541.771 154.176C541.76 154.379 541.819 154.558 541.949 154.715C542.083 154.868 542.298 154.987 542.597 155.071C542.879 155.151 543.173 155.183 543.48 155.17C543.797 155.154 544.107 155.103 544.41 155.018C544.717 154.929 544.998 154.816 545.253 154.677C545.517 154.536 545.74 154.381 545.923 154.212L546.431 154.656C546.145 154.941 545.781 155.2 545.339 155.431C544.901 155.663 544.423 155.852 543.903 155.996C543.393 156.138 542.877 156.223 542.357 156.252C541.841 156.277 541.362 156.227 540.92 156.102C540.372 155.948 539.962 155.737 539.69 155.47C539.418 155.202 539.269 154.897 539.244 154.554C539.228 154.209 539.32 153.844 539.52 153.459C539.725 153.07 540.024 152.678 540.419 152.283C540.83 151.873 541.303 151.512 541.838 151.202C542.378 150.888 542.949 150.64 543.553 150.46C544.166 150.277 544.788 150.174 545.418 150.151C546.052 150.124 546.665 150.194 547.256 150.361C547.868 150.533 548.325 150.775 548.628 151.086C548.931 151.398 549.094 151.757 549.117 152.164C549.143 152.568 549.033 153.006 548.786 153.477C548.545 153.951 548.174 154.438 547.673 154.938L547.128 155.484C546.6 156.012 546.027 156.492 545.41 156.925C544.793 157.358 544.14 157.728 543.451 158.035C542.762 158.342 542.043 158.573 541.295 158.727C540.551 158.884 539.782 158.95 538.987 158.926C538.201 158.9 537.401 158.772 536.586 158.543L536.403 158.491L537.67 157.224Z" fill="#009BE2"/>
<path d="M360.578 174.477L359.357 175.698L350.982 173.335L351.832 172.372L362.467 168.054L364.152 168.529L360.061 170.286L354.262 172.696L360.578 174.477ZM364.623 168.662L356.081 177.203L353.965 176.606L362.507 168.065L364.623 168.662Z" fill="#009BE2"/>
<path d="M322.17 165.351L323.359 165.687C323.78 165.805 324.179 165.85 324.556 165.821C324.942 165.79 325.296 165.699 325.616 165.549C325.946 165.396 326.237 165.195 326.487 164.944C326.733 164.698 326.885 164.467 326.943 164.253C327.004 164.035 326.959 163.841 326.806 163.673C326.663 163.502 326.4 163.363 326.016 163.255C325.708 163.168 325.378 163.132 325.027 163.149C324.682 163.167 324.348 163.238 324.025 163.362C323.712 163.485 323.44 163.661 323.209 163.892L321.093 163.295C321.555 162.834 322.124 162.475 322.802 162.22C323.49 161.963 324.218 161.815 324.987 161.776C325.756 161.737 326.492 161.817 327.195 162.015C327.961 162.231 328.538 162.514 328.925 162.864C329.322 163.212 329.5 163.61 329.459 164.06C329.424 164.512 329.141 165.003 328.609 165.535C328.354 165.789 328.018 166.02 327.599 166.228C327.189 166.433 326.725 166.593 326.207 166.708C325.699 166.82 325.156 166.875 324.579 166.873C324.01 166.868 323.436 166.784 322.856 166.62L321.331 166.19L322.17 165.351ZM320.973 166.548L321.8 165.721L323.325 166.151C323.98 166.335 324.49 166.552 324.856 166.801C325.231 167.047 325.473 167.316 325.584 167.608C325.699 167.896 325.698 168.194 325.581 168.502C325.469 168.811 325.261 169.118 324.956 169.423C324.557 169.822 324.1 170.15 323.585 170.406C323.073 170.657 322.527 170.839 321.944 170.951C321.367 171.064 320.777 171.108 320.174 171.083C319.575 171.055 318.99 170.96 318.421 170.799C317.926 170.66 317.493 170.475 317.122 170.245C316.761 170.013 316.493 169.744 316.32 169.44C316.151 169.131 316.11 168.794 316.197 168.427C316.287 168.057 316.536 167.668 316.943 167.261L319.059 167.858C318.824 168.093 318.692 168.324 318.663 168.551C318.638 168.78 318.712 168.986 318.883 169.17C319.064 169.351 319.33 169.491 319.681 169.59C320.069 169.7 320.453 169.743 320.831 169.719C321.219 169.693 321.583 169.605 321.924 169.456C322.269 169.302 322.576 169.091 322.846 168.821C323.166 168.5 323.344 168.217 323.378 167.971C323.413 167.725 323.323 167.511 323.108 167.33C322.898 167.151 322.583 167.002 322.163 166.883L320.973 166.548Z" fill="#009BE2"/>
<path d="M403.784 171.572L402.94 172.417L390.676 178.825L388.448 178.197L400.336 172.164L394.428 170.497L395.648 169.277L403.784 171.572Z" fill="#009BE2"/>
<rect width="12.853" height="89.4507" transform="matrix(0.962455 0.27144 -0.707107 0.707107 525.21 158.541)" fill="url(#paint17_linear_361_369)"/>
<rect width="12.853" height="58.6056" transform="matrix(0.962455 0.27144 -0.707107 0.707107 472.087 171.52)" fill="url(#paint18_linear_361_369)"/>
<rect width="12.853" height="43.1831" transform="matrix(0.962455 0.27144 -0.707107 0.707107 429.681 173.288)" fill="url(#paint19_linear_361_369)"/>
<rect width="12.853" height="21.5915" transform="matrix(0.962455 0.27144 -0.707107 0.707107 382.516 179.813)" fill="url(#paint20_linear_361_369)"/>
<rect width="12.853" height="12.338" transform="matrix(0.962455 0.27144 -0.707107 0.707107 344.472 177.218)" fill="url(#paint21_linear_361_369)"/>
<rect width="12.853" height="9.25352" transform="matrix(0.962455 0.27144 -0.707107 0.707107 310.78 170.766)" fill="url(#paint22_linear_361_369)"/>
<g filter="url(#filter3_b_361_369)">
<path d="M489.319 341.131C500.422 344.461 501.941 361.269 492.681 370.53L447.711 415.499C438.45 424.76 420.725 429.385 408.12 425.83L354.035 410.577C341.43 407.022 340.177 388.871 346.098 381.839L396.547 332.071C405.547 324.853 423.547 322.353 432.547 324.853L489.319 341.131Z" fill="url(#paint23_linear_361_369)"/>
<path d="M486.4 339.859C499.129 343.45 501.867 353.941 492.515 363.294L447.877 407.932C438.524 417.284 420.624 421.955 407.894 418.365L354.26 403.239C341.53 399.649 338.793 389.157 348.145 379.805L392.783 335.166C402.135 325.814 420.036 321.143 432.766 324.733L486.4 339.859Z" fill="url(#paint24_linear_361_369)" fill-opacity="0.7"/>
<path d="M489.319 341.131C500.422 344.461 501.941 361.269 492.681 370.53L447.711 415.499C438.45 424.76 420.725 429.385 408.12 425.83L354.035 410.577C341.43 407.022 340.177 388.871 346.098 381.839L396.547 332.071C405.547 324.853 423.547 322.353 432.547 324.853L489.319 341.131Z" stroke="url(#paint25_radial_361_369)" stroke-opacity="0.7" stroke-width="1.5"/>
<path d="M489.319 341.131C500.422 344.461 501.941 361.269 492.681 370.53L447.711 415.499C438.45 424.76 420.725 429.385 408.12 425.83L354.035 410.577C341.43 407.022 340.177 388.871 346.098 381.839L396.547 332.071C405.547 324.853 423.547 322.353 432.547 324.853L489.319 341.131Z" stroke="url(#paint26_radial_361_369)" stroke-opacity="0.7" stroke-width="1.5"/>
<path d="M486.4 339.859C499.129 343.45 501.867 353.941 492.515 363.294L447.877 407.932C438.524 417.284 420.624 421.955 407.894 418.365L354.26 403.239C341.53 399.649 338.793 389.157 348.145 379.805L392.783 335.166C402.135 325.814 420.036 321.143 432.766 324.733L486.4 339.859Z" stroke="url(#paint27_radial_361_369)" stroke-opacity="0.7" stroke-width="1.5"/>
<path d="M486.4 339.859C499.129 343.45 501.867 353.941 492.515 363.294L447.877 407.932C438.524 417.284 420.624 421.955 407.894 418.365L354.26 403.239C341.53 399.649 338.793 389.157 348.145 379.805L392.783 335.166C402.135 325.814 420.036 321.143 432.766 324.733L486.4 339.859Z" stroke="url(#paint28_radial_361_369)" stroke-opacity="0.7" stroke-width="1.5"/>
</g>
<path d="M460.206 382.183C465.519 376.869 468.716 371.092 469.446 365.486C470.175 359.88 468.408 354.664 464.339 350.412L420.598 371.012L460.206 382.183Z" fill="#264AA0" stroke="white" stroke-width="0.747463"/>
<path d="M457.26 352.834C453.825 349.21 448.642 346.507 442.233 344.996C435.824 343.485 428.415 343.219 420.753 344.227L418.191 371.334L457.26 352.834Z" fill="#009BE2"/>
<path d="M420.753 344.227C415.078 344.973 409.393 346.4 404.016 348.428L418.191 371.333L420.753 344.227Z" fill="#009BE2"/>
<path d="M404.017 348.428C396.992 351.078 390.698 354.676 385.729 358.884L418.191 371.334L404.017 348.428Z" fill="#009BE2"/>
<path d="M385.729 358.883C380.156 363.601 376.468 368.898 375.099 374.151L418.191 371.334L385.729 358.883Z" fill="#009BE2"/>
<path d="M375.099 374.151C374.297 377.227 374.306 380.228 375.125 383.031L418.191 371.333L375.099 374.151Z" fill="#009BE2"/>
<path d="M375.125 383.031C376.797 388.754 381.77 393.395 389.22 396.186L418.191 371.334L375.125 383.031Z" fill="#009BE2"/>
<path d="M389.22 396.186C394.182 398.044 400.078 399.02 406.463 399.04L418.191 371.334L389.22 396.186Z" fill="#009BE2"/>
<path d="M406.463 399.04C416.703 399.071 427.631 396.644 437.202 392.213L418.191 371.334L406.463 399.04Z" fill="#009BE2"/>
<path d="M437.202 392.213C443.618 389.242 449.179 385.482 453.398 381.263L418.191 371.334L437.202 392.213Z" fill="#009BE2"/>
<g filter="url(#filter4_b_361_369)">
<path d="M394.327 291.341C408.327 296.5 408.164 313.189 398.903 322.45L353.934 367.419C344.673 376.68 326.947 381.305 314.342 377.75L260.257 362.497C247.652 358.942 243.327 341.488 254.15 330.665L302.046 283.853C309.546 277.353 326.046 272.353 337.546 275.353L394.327 291.341Z" fill="url(#paint29_linear_361_369)"/>
<path d="M392.405 290.72C405.134 294.31 407.872 304.802 398.52 314.154L353.882 358.792C344.529 368.145 326.629 372.816 313.899 369.226L260.265 354.099C247.535 350.509 244.797 340.017 254.15 330.665L298.788 286.027C308.14 276.674 326.041 272.003 338.771 275.593L392.405 290.72Z" fill="url(#paint30_linear_361_369)" fill-opacity="0.7"/>
<path d="M254.15 330.665L302.046 283.853C309.546 277.353 326.046 272.353 337.546 275.353L394.327 291.341C408.327 296.5 408.164 313.189 398.903 322.45L353.934 367.419C344.673 376.68 326.947 381.305 314.342 377.75L260.257 362.497C247.652 358.942 243.327 341.488 254.15 330.665ZM254.15 330.665L298.788 286.027C308.14 276.674 326.041 272.003 338.771 275.593L392.405 290.72C405.134 294.31 407.872 304.802 398.52 314.154L353.882 358.792C344.529 368.145 326.629 372.816 313.899 369.226L260.265 354.099C247.535 350.509 244.797 340.017 254.15 330.665Z" stroke="url(#paint31_radial_361_369)" stroke-opacity="0.7" stroke-width="1.5"/>
<path d="M254.15 330.665L302.046 283.853C309.546 277.353 326.046 272.353 337.546 275.353L394.327 291.341C408.327 296.5 408.164 313.189 398.903 322.45L353.934 367.419C344.673 376.68 326.947 381.305 314.342 377.75L260.257 362.497C247.652 358.942 243.327 341.488 254.15 330.665ZM254.15 330.665L298.788 286.027C308.14 276.674 326.041 272.003 338.771 275.593L392.405 290.72C405.134 294.31 407.872 304.802 398.52 314.154L353.882 358.792C344.529 368.145 326.629 372.816 313.899 369.226L260.265 354.099C247.535 350.509 244.797 340.017 254.15 330.665Z" stroke="url(#paint32_radial_361_369)" stroke-opacity="0.7" stroke-width="1.5"/>
</g>
<path d="M270.434 335.999L341.193 355.955" stroke="white" stroke-width="0.747463"/>
<path d="M280.203 326.229L350.963 346.186" stroke="white" stroke-width="0.398523"/>
<path d="M289.973 316.46L360.733 336.416" stroke="white" stroke-width="0.398523"/>
<path d="M299.917 306.515L370.677 326.471" stroke="white" stroke-width="0.398523"/>
<path d="M309.687 296.746L380.446 316.702" stroke="white" stroke-width="0.398523"/>
<path d="M319.462 286.922L270.44 335.945" stroke="white" stroke-width="0.747463"/>
<path d="M273.223 333.21C273.223 333.21 278.965 332.416 282.793 331.887C286.621 331.358 288.143 331.485 292.363 330.564C296.583 329.642 299.595 328.279 303.894 327.28C308.193 326.28 309.714 326.407 313.856 325.564C317.998 324.721 320.618 323.751 324.603 323.064C328.588 322.378 329.717 322.898 333.781 322.133C337.844 321.369 340.856 320.006 344.92 319.241C348.983 318.477 350.191 318.918 354.098 318.31C358.004 317.703 360.702 316.654 364.452 316.203C368.202 315.752 369.018 316.585 372.846 316.056C376.674 315.527 383.592 313.556 383.592 313.556" stroke="url(#paint33_linear_361_369)" stroke-width="1.49493"/>
<g filter="url(#filter5_b_361_369)">
<path d="M312.828 231.272C326.827 235.5 327.516 252.686 318.255 261.947L273.285 306.916C264.025 316.177 246.299 320.802 233.694 317.247L179.609 301.994C167.004 298.439 162.827 280.5 173.367 270.848L219.547 224.853C229.047 216.853 246.547 213.353 255.547 215.353L312.828 231.272Z" fill="url(#paint34_linear_361_369)"/>
<path d="M311.623 230.902C324.352 234.493 327.09 244.984 317.738 254.337L273.099 298.975C263.747 308.327 245.846 312.998 233.117 309.408L179.482 294.282C166.753 290.692 164.015 280.2 173.367 270.848L218.006 226.209C227.358 216.857 245.259 212.186 257.988 215.776L311.623 230.902Z" fill="url(#paint35_linear_361_369)" fill-opacity="0.7"/>
<path d="M179.812 301.272C173.368 299.455 169.205 293.646 168.308 287.22C170.129 290.72 173.893 293.485 179.279 295.004L232.913 310.13C239.436 311.97 247.233 311.684 254.564 309.771C261.895 307.858 268.837 304.298 273.63 299.505L318.268 254.867C321.096 252.039 322.891 249.06 323.64 246.151C323.924 251.537 321.848 257.293 317.724 261.416L272.755 306.386C268.241 310.9 261.624 314.317 254.554 316.162C247.485 318.007 240.042 318.258 233.897 316.526L179.812 301.272ZM317.223 234.17C319.117 235.471 320.576 237.115 321.622 238.973C321.882 239.518 322.086 240.077 322.235 240.648C323.252 244.544 321.769 249.244 317.207 253.806L272.569 298.445C268.009 303.005 261.325 306.456 254.185 308.319C247.045 310.182 239.527 310.437 233.32 308.686L179.686 293.56C173.476 291.809 169.887 288.432 168.87 284.536C167.853 280.641 169.335 275.94 173.897 271.378C173.897 271.378 173.898 271.378 173.898 271.378L220.054 225.407C224.684 221.516 231.303 218.688 237.911 217.082C244.528 215.474 251.019 215.12 255.365 216.081L312.607 231.989C314.386 232.584 315.924 233.321 317.223 234.17Z" stroke="url(#paint36_radial_361_369)" stroke-opacity="0.7" stroke-width="1.5"/>
<path d="M179.812 301.272C173.368 299.455 169.205 293.646 168.308 287.22C170.129 290.72 173.893 293.485 179.279 295.004L232.913 310.13C239.436 311.97 247.233 311.684 254.564 309.771C261.895 307.858 268.837 304.298 273.63 299.505L318.268 254.867C321.096 252.039 322.891 249.06 323.64 246.151C323.924 251.537 321.848 257.293 317.724 261.416L272.755 306.386C268.241 310.9 261.624 314.317 254.554 316.162C247.485 318.007 240.042 318.258 233.897 316.526L179.812 301.272ZM317.223 234.17C319.117 235.471 320.576 237.115 321.622 238.973C321.882 239.518 322.086 240.077 322.235 240.648C323.252 244.544 321.769 249.244 317.207 253.806L272.569 298.445C268.009 303.005 261.325 306.456 254.185 308.319C247.045 310.182 239.527 310.437 233.32 308.686L179.686 293.56C173.476 291.809 169.887 288.432 168.87 284.536C167.853 280.641 169.335 275.94 173.897 271.378C173.897 271.378 173.898 271.378 173.898 271.378L220.054 225.407C224.684 221.516 231.303 218.688 237.911 217.082C244.528 215.474 251.019 215.12 255.365 216.081L312.607 231.989C314.386 232.584 315.924 233.321 317.223 234.17Z" stroke="url(#paint37_radial_361_369)" stroke-opacity="0.7" stroke-width="1.5"/>
</g>
<path d="M289.012 250.396C287.732 246.38 284.819 242.884 280.517 240.201C276.215 237.517 270.646 235.723 264.275 234.967C257.904 234.211 250.913 234.515 243.884 235.854C236.856 237.193 229.992 239.528 223.864 242.665C217.735 245.802 212.519 249.651 208.648 253.891C204.778 258.132 202.365 262.641 201.61 267.045C200.855 271.449 201.78 275.621 204.307 279.213C206.835 282.805 210.893 285.713 216.144 287.697L226.437 278.91C223.024 277.621 220.386 275.73 218.743 273.395C217.1 271.061 216.499 268.349 216.99 265.487C217.48 262.624 219.049 259.693 221.565 256.937C224.081 254.18 227.471 251.679 231.455 249.639C235.438 247.6 239.9 246.083 244.468 245.212C249.037 244.342 253.581 244.144 257.722 244.636C261.863 245.127 265.483 246.294 268.279 248.038C271.076 249.782 272.969 252.054 273.801 254.665L289.012 250.396Z" fill="url(#paint38_linear_361_369)"/>
<path d="M216.136 287.694C221.149 289.59 227.115 290.591 233.58 290.622C240.046 290.652 246.842 289.712 253.451 287.871C260.059 286.031 266.308 283.339 271.721 280C277.134 276.661 281.569 272.763 284.69 268.603L270.992 266.499C268.963 269.203 266.08 271.737 262.562 273.907C259.043 276.077 254.982 277.827 250.686 279.023C246.391 280.22 241.973 280.831 237.771 280.811C233.568 280.791 229.69 280.141 226.431 278.908L216.136 287.694Z" fill="white"/>
<path d="M289.66 256.941C289.894 254.667 289.674 252.46 289.004 250.37L273.796 254.648C274.231 256.006 274.375 257.441 274.222 258.919L289.66 256.941Z" fill="#264AA0"/>
<path d="M284.756 268.515C287.599 264.699 289.27 260.752 289.661 256.928L274.223 258.911C273.969 261.396 272.883 263.961 271.035 266.442L284.756 268.515Z" fill="#009BE2"/>
<defs>
<filter id="filter0_b_361_369" x="20.2019" y="111.757" width="674.925" height="510.687" filterUnits="userSpaceOnUse" color-interpolation-filters="sRGB">
<feFlood flood-opacity="0" result="BackgroundImageFix"/>
<feGaussianBlur in="BackgroundImageFix" stdDeviation="12.5726"/>
<feComposite in2="SourceAlpha" operator="in" result="effect1_backgroundBlur_361_369"/>
<feBlend mode="normal" in="SourceGraphic" in2="effect1_backgroundBlur_361_369" result="shape"/>
</filter>
<filter id="filter1_b_361_369" x="66.4788" y="360.086" width="327.967" height="170.217" filterUnits="userSpaceOnUse" color-interpolation-filters="sRGB">
<feFlood flood-opacity="0" result="BackgroundImageFix"/>
<feGaussianBlur in="BackgroundImageFix" stdDeviation="12.5726"/>
<feComposite in2="SourceAlpha" operator="in" result="effect1_backgroundBlur_361_369"/>
<feBlend mode="normal" in="SourceGraphic" in2="effect1_backgroundBlur_361_369" result="shape"/>
</filter>
<filter id="filter2_b_361_369" x="241.265" y="47.6364" width="386.045" height="230.207" filterUnits="userSpaceOnUse" color-interpolation-filters="sRGB">
<feFlood flood-opacity="0" result="BackgroundImageFix"/>
<feGaussianBlur in="BackgroundImageFix" stdDeviation="12.5726"/>
<feComposite in2="SourceAlpha" operator="in" result="effect1_backgroundBlur_361_369"/>
<feBlend mode="normal" in="SourceGraphic" in2="effect1_backgroundBlur_361_369" result="shape"/>
</filter>
<filter id="filter3_b_361_369" x="316.695" y="297.628" width="207.946" height="155.295" filterUnits="userSpaceOnUse" color-interpolation-filters="sRGB">
<feFlood flood-opacity="0" result="BackgroundImageFix"/>
<feGaussianBlur in="BackgroundImageFix" stdDeviation="12.5726"/>
<feComposite in2="SourceAlpha" operator="in" result="effect1_backgroundBlur_361_369"/>
<feBlend mode="normal" in="SourceGraphic" in2="effect1_backgroundBlur_361_369" result="shape"/>
</filter>
<filter id="filter4_b_361_369" x="222.101" y="248.488" width="209.211" height="156.355" filterUnits="userSpaceOnUse" color-interpolation-filters="sRGB">
<feFlood flood-opacity="0" result="BackgroundImageFix"/>
<feGaussianBlur in="BackgroundImageFix" stdDeviation="12.5726"/>
<feComposite in2="SourceAlpha" operator="in" result="effect1_backgroundBlur_361_369"/>
<feBlend mode="normal" in="SourceGraphic" in2="effect1_backgroundBlur_361_369" result="shape"/>
</filter>
<filter id="filter5_b_361_369" x="142.232" y="189.421" width="207.328" height="154.169" filterUnits="userSpaceOnUse" color-interpolation-filters="sRGB">
<feFlood flood-opacity="0" result="BackgroundImageFix"/>
<feGaussianBlur in="BackgroundImageFix" stdDeviation="12.5726"/>
<feComposite in2="SourceAlpha" operator="in" result="effect1_backgroundBlur_361_369"/>
<feBlend mode="normal" in="SourceGraphic" in2="effect1_backgroundBlur_361_369" result="shape"/>
</filter>
<linearGradient id="paint0_linear_361_369" x1="-70.7149" y1="632.007" x2="714.787" y2="-12.2654" gradientUnits="userSpaceOnUse">
<stop stop-color="#FAFDFF"/>
<stop offset="1" stop-color="#009BE2"/>
</linearGradient>
<linearGradient id="paint1_linear_361_369" x1="-69.5827" y1="612.852" x2="715.065" y2="-28.0373" gradientUnits="userSpaceOnUse">
<stop stop-color="#28374D"/>
<stop offset="0.0001" stop-color="#273E6C"/>
<stop offset="0.106266" stop-color="#264AA0" stop-opacity="0.7"/>
<stop offset="0.339482" stop-color="#009BE2" stop-opacity="0.7"/>
<stop offset="0.661964" stop-color="#E4F7FF" stop-opacity="0.7"/>
<stop offset="1" stop-color="white"/>
</linearGradient>
<radialGradient id="paint2_radial_361_369" cx="0" cy="0" r="1" gradientUnits="userSpaceOnUse" gradientTransform="translate(541.801 172.708) rotate(135) scale(462.667 210.247)">
<stop stop-color="white"/>
<stop offset="1" stop-color="white" stop-opacity="0"/>
</radialGradient>
<radialGradient id="paint3_radial_361_369" cx="0" cy="0" r="1" gradientUnits="userSpaceOnUse" gradientTransform="translate(168.4 546.11) rotate(-45) scale(266.457 121.085)">
<stop stop-color="white"/>
<stop offset="1" stop-color="white" stop-opacity="0"/>
</radialGradient>
<linearGradient id="paint4_linear_361_369" x1="353.253" y1="483.404" x2="195.153" y2="325.864" gradientUnits="userSpaceOnUse">
<stop stop-color="#009BE2" stop-opacity="0.25"/>
<stop offset="1" stop-color="#264AA0" stop-opacity="0.25"/>
</linearGradient>
<linearGradient id="paint5_linear_361_369" x1="348.276" y1="443.649" x2="236.177" y2="660.138" gradientUnits="userSpaceOnUse">
<stop stop-color="white"/>
<stop offset="0.3125" stop-color="white" stop-opacity="0.7"/>
<stop offset="1" stop-color="#17A6E8" stop-opacity="0.5"/>
</linearGradient>
<radialGradient id="paint6_radial_361_369" cx="0" cy="0" r="1" gradientUnits="userSpaceOnUse" gradientTransform="translate(350.945 475.542) rotate(-164.25) scale(221.695 56.066)">
<stop stop-color="white"/>
<stop offset="1" stop-color="white" stop-opacity="0"/>
</radialGradient>
<radialGradient id="paint7_radial_361_369" cx="0" cy="0" r="1" gradientUnits="userSpaceOnUse" gradientTransform="translate(107.411 406.859) rotate(15.75) scale(127.677 32.2893)">
<stop stop-color="white"/>
<stop offset="1" stop-color="white" stop-opacity="0"/>
</radialGradient>
<radialGradient id="paint8_radial_361_369" cx="0" cy="0" r="1" gradientUnits="userSpaceOnUse" gradientTransform="translate(350.945 475.542) rotate(-164.25) scale(221.695 56.066)">
<stop stop-color="white"/>
<stop offset="1" stop-color="white" stop-opacity="0"/>
</radialGradient>
<radialGradient id="paint9_radial_361_369" cx="0" cy="0" r="1" gradientUnits="userSpaceOnUse" gradientTransform="translate(107.411 406.859) rotate(15.75) scale(127.677 32.2893)">
<stop stop-color="white"/>
<stop offset="1" stop-color="white" stop-opacity="0"/>
</radialGradient>
<linearGradient id="paint10_linear_361_369" x1="289.066" y1="458.091" x2="215.547" y2="384.572" gradientUnits="userSpaceOnUse">
<stop stop-color="white"/>
<stop offset="0.416667" stop-color="#009BE2"/>
<stop offset="1" stop-color="#264AA0"/>
</linearGradient>
<linearGradient id="paint11_linear_361_369" x1="592.521" y1="114.08" x2="256.008" y2="110.535" gradientUnits="userSpaceOnUse">
<stop stop-color="#009BE2" stop-opacity="0.25"/>
<stop offset="1" stop-color="#264AA0" stop-opacity="0.25"/>
</linearGradient>
<linearGradient id="paint12_linear_361_369" x1="590.828" y1="103.475" x2="256.659" y2="99.9778" gradientUnits="userSpaceOnUse">
<stop stop-color="white"/>
<stop offset="0.332259" stop-color="white" stop-opacity="0.7"/>
</linearGradient>
<radialGradient id="paint13_radial_361_369" cx="0" cy="0" r="1" gradientUnits="userSpaceOnUse" gradientTransform="translate(554.372 191.617) rotate(-164.25) scale(221.694 117.178)">
<stop stop-color="white"/>
<stop offset="1" stop-color="white" stop-opacity="0"/>
</radialGradient>
<radialGradient id="paint14_radial_361_369" cx="0" cy="0" r="1" gradientUnits="userSpaceOnUse" gradientTransform="translate(310.838 122.933) rotate(15.75) scale(127.677 67.4847)">
<stop stop-color="white"/>
<stop offset="1" stop-color="white" stop-opacity="0"/>
</radialGradient>
<radialGradient id="paint15_radial_361_369" cx="0" cy="0" r="1" gradientUnits="userSpaceOnUse" gradientTransform="translate(554.372 191.617) rotate(-164.25) scale(221.694 117.178)">
<stop stop-color="white"/>
<stop offset="1" stop-color="white" stop-opacity="0"/>
</radialGradient>
<radialGradient id="paint16_radial_361_369" cx="0" cy="0" r="1" gradientUnits="userSpaceOnUse" gradientTransform="translate(310.838 122.933) rotate(15.75) scale(127.677 67.4847)">
<stop stop-color="white"/>
<stop offset="1" stop-color="white" stop-opacity="0"/>
</radialGradient>
<linearGradient id="paint17_linear_361_369" x1="1.96811" y1="-12.8585" x2="60.8185" y2="48.9106" gradientUnits="userSpaceOnUse">
<stop stop-color="white"/>
<stop offset="0.38568" stop-color="#17A6E8"/>
<stop offset="0.848958" stop-color="#314F97"/>
</linearGradient>
<linearGradient id="paint18_linear_361_369" x1="1.96811" y1="-8.42456" x2="36.6477" y2="47.1326" gradientUnits="userSpaceOnUse">
<stop stop-color="white"/>
<stop offset="0.38568" stop-color="#17A6E8"/>
<stop offset="0.848958" stop-color="#314F97"/>
</linearGradient>
<linearGradient id="paint19_linear_361_369" x1="1.96811" y1="-6.20757" x2="23.5646" y2="40.7468" gradientUnits="userSpaceOnUse">
<stop stop-color="white"/>
<stop offset="0.38568" stop-color="#17A6E8"/>
<stop offset="0.848958" stop-color="#314F97"/>
</linearGradient>
<linearGradient id="paint20_linear_361_369" x1="1.96811" y1="-3.10378" x2="8.18086" y2="23.9113" gradientUnits="userSpaceOnUse">
<stop stop-color="white"/>
<stop offset="0.38568" stop-color="#17A6E8"/>
<stop offset="0.848958" stop-color="#314F97"/>
</linearGradient>
<linearGradient id="paint21_linear_361_369" x1="1.96811" y1="-1.77359" x2="4.06779" y2="14.2041" gradientUnits="userSpaceOnUse">
<stop stop-color="white"/>
<stop offset="0.38568" stop-color="#17A6E8"/>
<stop offset="0.848958" stop-color="#314F97"/>
</linearGradient>
<linearGradient id="paint22_linear_361_369" x1="1.96811" y1="-1.33019" x2="3.15802" y2="10.7427" gradientUnits="userSpaceOnUse">
<stop stop-color="white"/>
<stop offset="0.38568" stop-color="#17A6E8"/>
<stop offset="0.848958" stop-color="#314F97"/>
</linearGradient>
<linearGradient id="paint23_linear_361_369" x1="470.179" y1="392.886" x2="406.01" y2="328.919" gradientUnits="userSpaceOnUse">
<stop offset="0.578125" stop-color="#009BE2" stop-opacity="0.25"/>
<stop offset="1" stop-color="#264AA0" stop-opacity="0.25"/>
</linearGradient>
<linearGradient id="paint24_linear_361_369" x1="494.785" y1="345.836" x2="169.092" y2="507.801" gradientUnits="userSpaceOnUse">
<stop stop-color="white"/>
<stop offset="0.3125" stop-color="white" stop-opacity="0.7"/>
<stop offset="1" stop-color="#17A6E8" stop-opacity="0.5"/>
</linearGradient>
<radialGradient id="paint25_radial_361_369" cx="0" cy="0" r="1" gradientUnits="userSpaceOnUse" gradientTransform="translate(469.289 385.357) rotate(-164.25) scale(89.963 84.099)">
<stop stop-color="white"/>
<stop offset="1" stop-color="white" stop-opacity="0"/>
</radialGradient>
<radialGradient id="paint26_radial_361_369" cx="0" cy="0" r="1" gradientUnits="userSpaceOnUse" gradientTransform="translate(370.464 357.486) rotate(15.75) scale(51.8111 48.434)">
<stop stop-color="white"/>
<stop offset="1" stop-color="white" stop-opacity="0"/>
</radialGradient>
<radialGradient id="paint27_radial_361_369" cx="0" cy="0" r="1" gradientUnits="userSpaceOnUse" gradientTransform="translate(469.289 385.357) rotate(-164.25) scale(89.963 84.099)">
<stop stop-color="white"/>
<stop offset="1" stop-color="white" stop-opacity="0"/>
</radialGradient>
<radialGradient id="paint28_radial_361_369" cx="0" cy="0" r="1" gradientUnits="userSpaceOnUse" gradientTransform="translate(370.464 357.486) rotate(15.75) scale(51.8111 48.434)">
<stop stop-color="white"/>
<stop offset="1" stop-color="white" stop-opacity="0"/>
</radialGradient>
<linearGradient id="paint29_linear_361_369" x1="376.618" y1="344.909" x2="312.643" y2="280.423" gradientUnits="userSpaceOnUse">
<stop stop-color="#009BE2" stop-opacity="0.25"/>
<stop offset="1" stop-color="#264AA0" stop-opacity="0.25"/>
</linearGradient>
<linearGradient id="paint30_linear_361_369" x1="400.79" y1="296.696" x2="75.0967" y2="458.661" gradientUnits="userSpaceOnUse">
<stop stop-color="white"/>
<stop offset="0.3125" stop-color="white" stop-opacity="0.7"/>
<stop offset="1" stop-color="#17A6E8" stop-opacity="0.5"/>
</linearGradient>
<radialGradient id="paint31_radial_361_369" cx="0" cy="0" r="1" gradientUnits="userSpaceOnUse" gradientTransform="translate(375.294 336.217) rotate(-164.25) scale(89.963 84.099)">
<stop stop-color="white"/>
<stop offset="1" stop-color="white" stop-opacity="0"/>
</radialGradient>
<radialGradient id="paint32_radial_361_369" cx="0" cy="0" r="1" gradientUnits="userSpaceOnUse" gradientTransform="translate(276.469 308.346) rotate(15.75) scale(51.8111 48.434)">
<stop stop-color="white"/>
<stop offset="1" stop-color="white" stop-opacity="0"/>
</radialGradient>
<linearGradient id="paint33_linear_361_369" x1="436.702" y1="285.176" x2="397.395" y2="404.044" gradientUnits="userSpaceOnUse">
<stop offset="0.208333" stop-color="#264AA0"/>
<stop offset="0.667631" stop-color="#009BE2"/>
<stop offset="1" stop-color="#D7E9F0"/>
</linearGradient>
<linearGradient id="paint34_linear_361_369" x1="295.688" y1="284.355" x2="231.614" y2="220.026" gradientUnits="userSpaceOnUse">
<stop stop-color="#009BE2" stop-opacity="0.25"/>
<stop offset="1" stop-color="#264AA0" stop-opacity="0.25"/>
</linearGradient>
<linearGradient id="paint35_linear_361_369" x1="320.007" y1="236.879" x2="-5.68575" y2="398.843" gradientUnits="userSpaceOnUse">
<stop stop-color="white"/>
<stop offset="0.3125" stop-color="white" stop-opacity="0.7"/>
<stop offset="1" stop-color="#17A6E8" stop-opacity="0.5"/>
</linearGradient>
<radialGradient id="paint36_radial_361_369" cx="0" cy="0" r="1" gradientUnits="userSpaceOnUse" gradientTransform="translate(294.512 276.4) rotate(-164.25) scale(89.963 84.099)">
<stop stop-color="white"/>
<stop offset="1" stop-color="white" stop-opacity="0"/>
</radialGradient>
<radialGradient id="paint37_radial_361_369" cx="0" cy="0" r="1" gradientUnits="userSpaceOnUse" gradientTransform="translate(195.686 248.528) rotate(15.75) scale(51.8111 48.434)">
<stop stop-color="white"/>
<stop offset="1" stop-color="white" stop-opacity="0"/>
</radialGradient>
<linearGradient id="paint38_linear_361_369" x1="371.446" y1="207.259" x2="316.88" y2="364.67" gradientUnits="userSpaceOnUse">
<stop offset="0.275634" stop-color="#264AA0"/>
<stop offset="0.532688" stop-color="#54BAB4"/>
<stop offset="0.86676" stop-color="#D7E9F0"/>
<stop offset="0.992881" stop-color="white"/>
</linearGradient>
</defs>
</svg>
