<svg width="62" height="54" viewBox="0 0 62 54" fill="none" xmlns="http://www.w3.org/2000/svg">
<path d="M22.8106 38.0197C23.8381 38.0197 24.671 37.1868 24.671 36.1593C24.671 35.1319 23.8381 34.299 22.8106 34.299V38.0197ZM4.01939 36.1593H2.15904V38.0197H4.01939V36.1593ZM22.8106 34.299H4.01939V38.0197H22.8106V34.299ZM5.87975 36.1593V8.34321H2.15904V36.1593H5.87975ZM10.2007 4.02222H47.165V0.301508H10.2007V4.02222ZM51.486 8.3432V12.1757H55.2067V8.3432H51.486ZM47.165 4.02222C49.5514 4.02222 51.486 5.95679 51.486 8.3432H55.2067C55.2067 3.9019 51.6063 0.301508 47.165 0.301508V4.02222ZM5.87975 8.34321C5.87975 5.95679 7.81432 4.02222 10.2007 4.02222V0.301508C5.75942 0.301508 2.15904 3.9019 2.15904 8.34321H5.87975Z" fill="#009BE2"/>
<path d="M2 45.1429L33.0714 45.1429" stroke="#009BE2" stroke-width="3.72071" stroke-linecap="round"/>
<path d="M43.2092 45.4314L51.3685 45.4309" stroke="#009BE2" stroke-width="3.72071" stroke-linecap="round"/>
<rect x="34.1904" y="13.6652" width="25.9496" height="38.3125" rx="4.32098" stroke="#009BE2" stroke-width="3.72071"/>
</svg>
