<svg width="27" height="27" viewBox="0 0 27 27" fill="none" xmlns="http://www.w3.org/2000/svg">
<path d="M18.3863 9.21281L12.0724 15.5268L8.76848 12.2229C8.37666 11.831 7.74135 11.831 7.34953 12.2229C6.95771 12.6147 6.95771 13.25 7.34953 13.6418L11.3629 17.6552C11.7547 18.047 12.39 18.047 12.7819 17.6552L19.8053 10.6318C20.1971 10.2399 20.1971 9.60464 19.8053 9.21281C19.4135 8.82099 18.7781 8.82099 18.3863 9.21281Z" fill="#273D6C"/>
<path d="M26 13.5C26 20.4036 20.4036 26 13.5 26C6.59644 26 1 20.4036 1 13.5C1 6.59644 6.59644 1 13.5 1C20.4036 1 26 6.59644 26 13.5Z" stroke="#273D6C" stroke-width="1.875"/>
</svg>
