<svg width="109" height="40" viewBox="0 0 109 40" fill="none" xmlns="http://www.w3.org/2000/svg">
<path d="M7.42237 21.2528C11.5216 21.2528 14.8447 17.9233 14.8447 13.8161C14.8447 9.70883 11.5216 6.37927 7.42237 6.37927C3.32311 6.37927 0 9.70883 0 13.8161C0 17.9233 3.32311 21.2528 7.42237 21.2528Z" fill="#009BE2"/>
<path d="M60.0328 0.836426H63.3023V18.9629H60.0328V17.5836C59.4761 18.1351 58.8228 18.5793 58.1055 18.8939C57.4429 19.1649 56.7333 19.3017 56.0176 19.2962C55.1894 19.3015 54.3696 19.1288 53.6137 18.7897C52.8577 18.4507 52.1831 17.9531 51.6353 17.3307C50.4041 16.008 49.7408 14.2536 49.7883 12.4456C49.7357 10.6127 50.3982 8.83142 51.6353 7.4801C52.1759 6.86332 52.8434 6.37129 53.5921 6.03792C54.3407 5.70456 55.1526 5.53777 55.9717 5.54907C56.7289 5.54451 57.4789 5.69714 58.1743 5.99734C58.8901 6.31271 59.5371 6.76571 60.0787 7.33068L60.0328 0.836426ZM56.5912 8.58355C56.1188 8.57121 55.6492 8.66021 55.2139 8.84457C54.7786 9.02893 54.3877 9.30441 54.0674 9.65252C53.408 10.4265 53.0458 11.4108 53.0458 12.4284C53.0458 13.446 53.408 14.4302 54.0674 15.2042C54.3839 15.5556 54.7719 15.8349 55.2053 16.0233C55.6387 16.2117 56.1074 16.3047 56.5797 16.2962C57.0584 16.309 57.5342 16.2193 57.9754 16.033C58.4166 15.8466 58.813 15.568 59.138 15.2157C59.8329 14.4477 60.1959 13.4352 60.1475 12.3996C60.1708 11.8957 60.0935 11.3921 59.9202 10.9184C59.7468 10.4447 59.4809 10.0105 59.138 9.64102C58.8091 9.2984 58.4132 9.0276 57.9749 8.84562C57.5366 8.66365 57.0655 8.57442 56.5912 8.58355Z" fill="#273D6C"/>
<path d="M79.6842 13.3768H69.1644C69.2861 14.2428 69.7233 15.033 70.3919 15.5952C71.1094 16.1595 72.0044 16.4489 72.9158 16.4113C73.5009 16.4192 74.0816 16.3093 74.6235 16.0882C75.1654 15.867 75.6575 15.5391 76.0706 15.1239L78.8238 16.4228C78.1976 17.3436 77.3492 18.0909 76.3574 18.5952C75.2793 19.0911 74.1015 19.331 72.9158 19.2963C71.9936 19.3339 71.0736 19.1808 70.2131 18.8466C69.3526 18.5124 68.57 18.0042 67.914 17.3538C67.2768 16.7188 66.7761 15.9599 66.4426 15.1237C66.1092 14.2875 65.9501 13.3918 65.9752 12.4917C65.9479 11.5769 66.1044 10.6659 66.4355 9.81283C66.7666 8.95981 67.2655 8.18219 67.9025 7.5262C68.5256 6.87768 69.2771 6.36681 70.1089 6.02635C70.9406 5.68589 71.8341 5.52336 72.7322 5.54919C73.659 5.51243 74.5833 5.6692 75.4463 6.00955C76.3094 6.3499 77.0923 6.86639 77.7455 7.5262C78.3985 8.2228 78.9056 9.04352 79.2366 9.93983C79.5676 10.8361 79.7159 11.7899 79.6728 12.7446L79.6842 13.3768ZM76.4147 10.7906C76.2006 10.0678 75.7475 9.43954 75.1299 9.00896C74.4842 8.54954 73.7075 8.31165 72.9158 8.3308C72.0534 8.31401 71.21 8.58492 70.5181 9.10092C70.0022 9.56047 69.6081 10.141 69.3709 10.7906H76.4147Z" fill="#273D6C"/>
<path d="M82.7276 0.874146H86.0627V5.9269H88.0246V8.73722H86.0627V18.9275H82.7276V8.73722H81.0312V5.9269H82.7276V0.874146Z" fill="#273D6C"/>
<path d="M90.9843 0.503199C91.2587 0.498662 91.531 0.551517 91.7838 0.658391C92.0367 0.765266 92.2645 0.92381 92.4527 1.12389C92.6521 1.32237 92.8096 1.55893 92.916 1.81955C93.0225 2.08018 93.0756 2.35956 93.0722 2.64113C93.0759 2.91831 93.024 3.19341 92.9196 3.4501C92.8151 3.70678 92.6603 3.93983 92.4642 4.13538C92.2728 4.33316 92.0436 4.49041 91.7904 4.59779C91.5372 4.70517 91.265 4.7605 90.99 4.7605C90.7151 4.7605 90.4429 4.70517 90.1897 4.59779C89.9364 4.49041 89.7073 4.33316 89.5159 4.13538C89.3146 3.93596 89.1559 3.69759 89.0494 3.43479C88.9429 3.17199 88.8908 2.89023 88.8964 2.60664C88.8949 2.3315 88.9478 2.05879 89.0522 1.80429C89.1566 1.5498 89.3104 1.31857 89.5045 1.12401C89.6987 0.929452 89.9295 0.775417 90.1835 0.670826C90.4375 0.566236 90.7097 0.513167 90.9843 0.514691V0.503199ZM89.3438 5.88251H92.6133V18.963H89.3438V5.88251Z" fill="#273D6C"/>
<path d="M95.6189 0.836426H98.8884V11.2732L103.707 5.8824H107.848L102.227 12.1583L108.513 18.9629H104.406L98.8655 12.9399V18.9629H95.6189V0.836426Z" fill="#273D6C"/>
<path d="M52.3124 20.5454C52.589 20.5442 52.863 20.5997 53.1175 20.7084C53.3719 20.8171 53.6016 20.9768 53.7923 21.1776C53.9932 21.3749 54.1518 21.6112 54.2584 21.8721C54.3649 22.133 54.4171 22.413 54.4117 22.6949C54.416 22.9731 54.3632 23.2493 54.2566 23.5063C54.1501 23.7634 53.992 23.9957 53.7923 24.1891C53.6053 24.3877 53.3794 24.5454 53.1286 24.6523C52.8779 24.7591 52.6078 24.8127 52.3353 24.8098C52.0568 24.8119 51.7809 24.7569 51.5244 24.6482C51.2679 24.5394 51.0364 24.3793 50.844 24.1776C50.6438 23.9755 50.4868 23.7347 50.3823 23.47C50.2778 23.2052 50.228 22.922 50.2359 22.6374C50.2389 22.0855 50.4583 21.5568 50.8467 21.1655C51.2352 20.7741 51.7615 20.5515 52.3124 20.5454ZM50.6719 25.9362H53.9299V39.0167H50.6719V25.9362Z" fill="#009BE2"/>
<path d="M66.549 20.8903H69.83V39.0167H66.549V37.6374C65.9923 38.189 65.339 38.6332 64.6217 38.9477C63.9608 39.2242 63.25 39.3612 62.5338 39.35C61.7075 39.3537 60.89 39.1802 60.1361 38.8412C59.3823 38.5022 58.7095 38.0055 58.163 37.3845C56.9318 36.0618 56.2685 34.3075 56.316 32.4995C56.2441 30.6739 56.8862 28.8923 58.1056 27.5339C58.9093 26.6404 59.9687 26.0173 61.1391 25.7499C62.3095 25.4824 63.5338 25.5836 64.6447 26.0397C65.3607 26.3595 66.0076 26.8163 66.549 27.3845V20.8903ZM63.1074 28.6259C62.6342 28.6158 62.1643 28.7069 61.7291 28.8932C61.2939 29.0795 60.9033 29.3567 60.5836 29.7063C59.9242 30.4804 59.562 31.4646 59.562 32.4822C59.562 33.4998 59.9242 34.4841 60.5836 35.2581C60.9001 35.6095 61.2881 35.8888 61.7215 36.0771C62.1549 36.2655 62.6236 36.3586 63.0959 36.35C63.5747 36.3636 64.0507 36.2742 64.492 36.0878C64.9333 35.9015 65.3296 35.6224 65.6542 35.2696C66.3522 34.5027 66.7192 33.4904 66.6752 32.4535C66.6953 31.9471 66.6155 31.4418 66.4403 30.9665C66.265 30.4911 65.9979 30.0551 65.6542 29.6834C65.3254 29.3407 64.9294 29.0699 64.4911 28.888C64.0528 28.706 63.5817 28.6168 63.1074 28.6259Z" fill="#009BE2"/>
<path d="M86.2236 33.4305H75.7267C75.8263 34.2854 76.2343 35.0743 76.8739 35.6489C77.5933 36.2097 78.4869 36.4986 79.3977 36.465C79.9924 36.4807 80.584 36.3746 81.1363 36.1533C81.6887 35.9319 82.1901 35.5999 82.6099 35.1776L85.3632 36.4765C84.7369 37.3974 83.8885 38.1446 82.8967 38.6489C81.8186 39.1448 80.6408 39.3847 79.4551 39.35C78.5313 39.3864 77.61 39.2328 76.7477 38.8988C75.8855 38.5647 75.1008 38.0572 74.4418 37.4075C73.8067 36.7716 73.3081 36.0122 72.9767 35.176C72.6452 34.3399 72.4879 33.4447 72.5145 32.5454C72.4872 31.6306 72.6437 30.7196 72.9748 29.8665C73.3059 29.0135 73.8048 28.2359 74.4418 27.5799C75.0649 26.9314 75.8164 26.4205 76.6482 26.0801C77.4799 25.7396 78.3734 25.5771 79.2715 25.6029C80.1983 25.5661 81.1226 25.7229 81.9856 26.0633C82.8487 26.4036 83.6316 26.9201 84.2848 27.5799C84.9378 28.2765 85.4449 29.0972 85.7759 29.9935C86.1069 30.8899 86.2553 31.8436 86.2121 32.7983L86.2236 33.4305ZM82.954 30.8443C82.7433 30.1199 82.2895 29.4906 81.6692 29.0627C81.0245 28.5999 80.248 28.358 79.4551 28.373C78.5897 28.3597 77.7437 28.6301 77.046 29.1431C76.5331 29.6099 76.1396 30.1933 75.8988 30.8443H82.954Z" fill="#009BE2"/>
<path d="M98.5099 25.9362H101.791V39.0167H98.5099V37.6374C97.9592 38.1909 97.3092 38.6354 96.5941 38.9477C95.9291 39.2242 95.2146 39.3611 94.4947 39.35C93.6687 39.3522 92.8516 39.178 92.098 38.8391C91.3443 38.5002 90.6714 38.0043 90.1239 37.3845C88.8928 36.0618 88.2295 34.3074 88.2769 32.4994C88.205 30.6738 88.8471 28.8922 90.0666 27.5339C90.8702 26.6404 91.9296 26.0173 93.1 25.7498C94.2705 25.4824 95.4948 25.5836 96.6056 26.0397C97.3233 26.3566 97.9707 26.8138 98.5099 27.3845V25.9362ZM95.0683 28.6259C94.5954 28.6172 94.1259 28.709 93.6909 28.8952C93.2559 29.0815 92.8652 29.3579 92.5445 29.7063C91.8917 30.4834 91.5337 31.4665 91.5337 32.4822C91.5337 33.4979 91.8917 34.481 92.5445 35.258C92.861 35.6094 93.2491 35.8887 93.6825 36.0771C94.1159 36.2655 94.5845 36.3585 95.0569 36.35C95.5356 36.3636 96.0117 36.2742 96.453 36.0878C96.8943 35.9014 97.2906 35.6224 97.6151 35.2695C98.3257 34.5082 98.7053 33.4952 98.6706 32.4534C98.6907 31.9471 98.6108 31.4418 98.4356 30.9664C98.2604 30.4911 97.9933 30.055 97.6495 29.6833C97.3168 29.3364 96.9152 29.063 96.4706 28.8809C96.0261 28.6988 95.5484 28.6119 95.0683 28.6259Z" fill="#009BE2"/>
<path d="M104.739 20.8903H108.02V39.0167H104.739V20.8903Z" fill="#009BE2"/>
<path d="M2.82202 0V3.93103C10.4603 3.85683 18.0714 4.85504 25.4333 6.89655C33.9799 9.66667 41.3679 13.7931 41.6203 19.7011C41.5285 24.1379 37.4904 27.5632 31.9379 30.1839C25.6317 32.889 18.929 34.5505 12.0914 35.1034V23.2644H2.82202V39.9885C14.6726 38.6667 47.6316 33.3448 47.884 19.8851C47.3792 6.66667 14.707 1.28736 2.82202 0Z" fill="#273D6C"/>
</svg>
