<svg width="43" height="29" viewBox="0 0 43 29" fill="none" xmlns="http://www.w3.org/2000/svg">
<path d="M39.7434 0H3.67197C2.87474 0 2.11016 0.301019 1.54644 0.836838C0.982713 1.37266 0.666016 2.09938 0.666016 2.85714V25.7143C0.666016 26.472 0.982713 27.1988 1.54644 27.7346C2.11016 28.2704 2.87474 28.5714 3.67197 28.5714H39.7434C40.5406 28.5714 41.3052 28.2704 41.8689 27.7346C42.4327 27.1988 42.7493 26.472 42.7493 25.7143V2.85714C42.7493 2.09938 42.4327 1.37266 41.8689 0.836838C41.3052 0.301019 40.5406 0 39.7434 0ZM36.4368 2.85714L21.7077 12.5429L6.97852 2.85714H36.4368ZM3.67197 25.7143V4.15714L20.851 15.4571C21.1026 15.623 21.4015 15.7119 21.7077 15.7119C22.0139 15.7119 22.3128 15.623 22.5644 15.4571L39.7434 4.15714V25.7143H3.67197Z" fill="white"/>
</svg>
