<svg width="38" height="45" viewBox="0 0 38 45" fill="none" xmlns="http://www.w3.org/2000/svg">
<path d="M19.3415 25.4545C17.6863 25.4545 16.0683 24.988 14.692 24.1139C13.3158 23.2399 12.2431 21.9975 11.6097 20.544C10.9763 19.0905 10.8106 17.4911 11.1335 15.9481C11.4564 14.4051 12.2534 12.9877 13.4238 11.8752C14.5942 10.7628 16.0854 10.0052 17.7088 9.69826C19.3322 9.39133 21.0149 9.54886 22.5441 10.1509C24.0733 10.753 25.3804 11.7725 26.2999 13.0806C27.2195 14.3888 27.7103 15.9267 27.7103 17.5C27.7077 19.6089 26.8251 21.6307 25.2562 23.1219C23.6873 24.6131 21.5602 25.452 19.3415 25.4545ZM19.3415 12.7272C18.3484 12.7272 17.3776 13.0071 16.5518 13.5316C15.7261 14.056 15.0825 14.8014 14.7024 15.6735C14.3224 16.5456 14.2229 17.5052 14.4167 18.4311C14.6104 19.3569 15.0887 20.2073 15.7909 20.8748C16.4931 21.5423 17.3879 21.9968 18.3619 22.181C19.3359 22.3651 20.3455 22.2706 21.2631 21.9094C22.1806 21.5481 22.9648 20.9364 23.5166 20.1515C24.0683 19.3667 24.3628 18.4439 24.3628 17.5C24.3615 16.2345 23.832 15.0213 22.8906 14.1265C21.9492 13.2317 20.6728 12.7285 19.3415 12.7272Z" fill="white"/>
<path d="M19.3392 44.5459L5.21929 28.718C5.0231 28.4803 4.82893 28.2411 4.63682 28.0005C2.22489 24.9806 0.921908 21.292 0.927754 17.5005C0.927754 12.8592 2.86753 8.408 6.32034 5.12611C9.77315 1.84423 14.4562 0.000488281 19.3392 0.000488281C24.2222 0.000488281 28.9052 1.84423 32.358 5.12611C35.8109 8.408 37.7506 12.8592 37.7506 17.5005C37.7565 21.2902 36.4541 24.9772 34.0432 27.9957L34.0416 28.0005C34.0416 28.0005 33.5394 28.6273 33.4641 28.7116L19.3392 44.5459ZM7.30816 26.0834C7.3115 26.0834 7.69982 26.5734 7.78853 26.6784L19.3392 39.6268L30.9049 26.6609C30.9786 26.5734 31.3702 26.0802 31.3719 26.0786C33.3422 23.6113 34.407 20.598 34.4031 17.5005C34.4031 13.7031 32.816 10.0612 29.991 7.376C27.166 4.69082 23.3344 3.1823 19.3392 3.1823C15.344 3.1823 11.5124 4.69082 8.6874 7.376C5.86237 10.0612 4.27529 13.7031 4.27529 17.5005C4.27178 20.5999 5.33776 23.615 7.30983 26.0834H7.30816Z" fill="white"/>
</svg>
