<svg width="43" height="40" viewBox="0 0 43 40" fill="none" xmlns="http://www.w3.org/2000/svg">
<path d="M37.8953 39.9853H37.6202C5.82665 38.2475 1.31244 12.7492 0.681427 4.9674C0.630582 4.36236 0.70584 3.75373 0.902889 3.17639C1.09994 2.59904 1.41491 2.06432 1.82975 1.60287C2.24458 1.14143 2.75114 0.762316 3.32039 0.487266C3.88964 0.212216 4.5104 0.0466318 5.14709 1.44192e-06H14.0622C14.7103 -0.000594898 15.3437 0.183795 15.8803 0.529286C16.4168 0.874777 16.8319 1.36545 17.0717 1.93775L19.5311 7.68948C19.7678 8.24857 19.8266 8.86147 19.7 9.45204C19.5735 10.0426 19.2672 10.5848 18.8191 11.0113L15.3728 14.3178C15.9111 17.2256 17.3762 19.906 19.5697 21.9965C21.7633 24.0869 24.5794 25.4865 27.6372 26.0058L31.1483 22.6993C31.6037 22.2782 32.1795 21.9938 32.8039 21.8817C33.4283 21.7696 34.0736 21.8346 34.6593 22.0688L40.7591 24.391C41.3522 24.6261 41.8581 25.0237 42.2125 25.5332C42.567 26.0426 42.7538 26.6408 42.7493 27.2515V35.3716C42.7493 36.5952 42.2379 37.7687 41.3276 38.634C40.4173 39.4992 39.1826 39.9853 37.8953 39.9853ZM5.53541 3.07579C5.10629 3.07579 4.69475 3.23782 4.39131 3.52623C4.08788 3.81464 3.91741 4.20581 3.91741 4.61369V4.73672C4.66169 13.8411 9.43477 35.3716 37.7982 36.9095C38.0108 36.922 38.2238 36.8944 38.4252 36.8285C38.6265 36.7625 38.8122 36.6595 38.9715 36.5252C39.1309 36.3908 39.2608 36.228 39.3537 36.0458C39.4467 35.8637 39.5009 35.6659 39.5133 35.4639V27.2515L33.4134 24.9293L28.7698 29.3123L27.9932 29.22C13.9166 27.5437 12.0074 14.164 12.0074 14.0256L11.9103 13.2874L16.5054 8.87366L14.0784 3.07579H5.53541Z" fill="white"/>
</svg>
