<svg width="279" height="157" viewBox="0 0 388 206" fill="none" xmlns="http://www.w3.org/2000/svg">
<g filter="url(#filter0_b_55_646)">
<rect width="257.219" height="196.858" rx="21.976" transform="matrix(0.965926 0.258819 0.707107 -0.707107 1.52588e-05 139.2)" fill="white" fill-opacity="0.5"/>
<rect width="257.219" height="196.858" rx="21.976" transform="matrix(0.965926 0.258819 0.707107 -0.707107 1.52588e-05 139.2)" fill="url(#paint0_linear_55_646)" fill-opacity="0.4"/>
<rect x="1.60854" y="-0.431006" width="255.296" height="194.935" rx="21.0145" transform="matrix(0.965926 0.258819 0.707107 -0.707107 0.359592 138.048)" stroke="url(#paint1_radial_55_646)" stroke-width="1.9229"/>
<rect x="1.60854" y="-0.431006" width="255.296" height="194.935" rx="21.0145" transform="matrix(0.965926 0.258819 0.707107 -0.707107 0.359592 138.048)" stroke="url(#paint2_radial_55_646)" stroke-width="1.9229"/>
</g>
<path d="M154.93 41.1135L74.0801 121.963" stroke="#D6DCE5" stroke-width="0.51972"/>
<path d="M313.063 83.4851L232.214 164.335" stroke="#D6DCE5" stroke-width="0.51972"/>
<path d="M94.2928 101.75L252.426 144.122" stroke="#D6DCE5" stroke-width="0.51972"/>
<path d="M114.871 81.1704L273.005 123.542" stroke="#D6DCE5" stroke-width="0.51972"/>
<path d="M134.718 61.3259L292.851 103.698" stroke="#D6DCE5" stroke-width="0.51972"/>
<path d="M154.93 41.1135L313.063 83.4853" stroke="#D6DCE5" stroke-width="0.51972"/>
<path d="M74.4481 121.595L232.582 163.967" stroke="#D6DCE5" stroke-width="0.51972"/>
<path d="M204.342 106.799L196.482 114.658L194.533 114.136L200.73 107.94L197.524 107.873L198.676 106.721L204.121 106.74L204.342 106.799ZM210.379 114.757L209.259 115.877L201.545 113.81L202.325 112.927L212.1 108.905L213.652 109.321L209.892 110.955L204.562 113.199L210.379 114.757ZM214.086 109.437L206.248 117.275L204.299 116.753L212.137 108.915L214.086 109.437Z" fill="#009BE2"/>
<path d="M243.745 104.776L235.886 112.636L233.937 112.113L240.133 105.917L236.927 105.85L238.08 104.698L243.525 104.717L243.745 104.776ZM242.056 112.89L242.196 112.927C242.828 113.096 243.422 113.18 243.976 113.179C244.536 113.179 245.058 113.107 245.543 112.964C246.037 112.819 246.496 112.612 246.92 112.343C247.352 112.072 247.753 111.752 248.123 111.382L249.544 109.961C249.845 109.66 250.068 109.385 250.21 109.136C250.357 108.884 250.431 108.661 250.433 108.466C250.441 108.272 250.381 108.11 250.256 107.981C250.134 107.848 249.957 107.751 249.727 107.689C249.472 107.621 249.204 107.604 248.921 107.637C248.639 107.671 248.354 107.745 248.066 107.859C247.786 107.97 247.513 108.113 247.246 108.287C246.983 108.463 246.744 108.658 246.529 108.873C246.321 109.081 246.154 109.289 246.027 109.496C245.906 109.705 245.837 109.901 245.823 110.083C245.813 110.267 245.868 110.43 245.987 110.571C246.111 110.709 246.31 110.814 246.584 110.888C246.844 110.958 247.115 110.985 247.398 110.97C247.689 110.952 247.974 110.903 248.253 110.823C248.535 110.74 248.794 110.634 249.028 110.505C249.27 110.375 249.475 110.232 249.643 110.076L250.112 110.475C249.85 110.737 249.515 110.975 249.109 111.189C248.707 111.404 248.267 111.58 247.789 111.716C247.32 111.85 246.846 111.932 246.367 111.963C245.892 111.99 245.451 111.95 245.044 111.841C244.539 111.705 244.161 111.518 243.911 111.277C243.66 111.037 243.522 110.761 243.498 110.45C243.482 110.136 243.566 109.804 243.749 109.453C243.936 109.098 244.211 108.739 244.574 108.377C244.95 108 245.385 107.668 245.877 107.381C246.372 107.091 246.898 106.861 247.453 106.691C248.016 106.519 248.588 106.419 249.168 106.393C249.752 106.363 250.315 106.42 250.86 106.566C251.423 106.717 251.845 106.933 252.125 107.212C252.404 107.492 252.555 107.817 252.577 108.187C252.602 108.553 252.502 108.952 252.276 109.383C252.055 109.815 251.715 110.261 251.256 110.72L250.755 111.221C250.271 111.705 249.745 112.147 249.179 112.546C248.612 112.944 248.012 113.286 247.378 113.572C246.745 113.857 246.084 114.074 245.396 114.221C244.712 114.37 244.004 114.438 243.272 114.424C242.549 114.407 241.812 114.299 241.062 114.098L240.893 114.052L242.056 112.89Z" fill="#009BE2"/>
<path d="M288.664 99.729L287.544 100.849L280.293 98.9059L281.252 97.9477L287.481 96.1289C288.145 95.9246 288.694 95.7395 289.127 95.5734C289.56 95.4074 289.911 95.2465 290.179 95.0907C290.455 94.9326 290.675 94.7711 290.84 94.606C291.081 94.3655 291.232 94.1398 291.294 93.9288C291.359 93.7143 291.329 93.5265 291.204 93.3656C291.084 93.206 290.862 93.0829 290.539 92.9962C290.181 92.9003 289.814 92.8792 289.437 92.9329C289.068 92.9844 288.712 93.0982 288.368 93.2745C288.029 93.4521 287.723 93.6772 287.45 93.95L285.501 93.4278C285.964 92.9649 286.533 92.5826 287.207 92.281C287.886 91.9758 288.614 91.7819 289.393 91.6994C290.171 91.6168 290.938 91.6767 291.693 91.879C292.429 92.076 292.962 92.3326 293.292 92.6486C293.626 92.9611 293.762 93.3161 293.7 93.7136C293.638 94.1111 293.381 94.536 292.929 94.9882C292.678 95.2394 292.374 95.4719 292.017 95.6857C291.66 95.8996 291.259 96.0991 290.812 96.2844C290.375 96.4674 289.894 96.6435 289.37 96.8127C288.847 96.9818 288.286 97.1478 287.688 97.3107L283.899 98.4522L288.664 99.729ZM291.464 100.5L291.604 100.537C292.236 100.707 292.83 100.791 293.385 100.789C293.944 100.789 294.467 100.717 294.952 100.574C295.445 100.429 295.904 100.222 296.328 99.9533C296.76 99.6824 297.161 99.3621 297.531 98.9925L298.952 97.5713C299.254 97.2698 299.476 96.9949 299.619 96.7464C299.765 96.4944 299.839 96.2709 299.842 96.0759C299.849 95.8821 299.79 95.7207 299.664 95.5914C299.542 95.4586 299.366 95.3613 299.135 95.2996C298.88 95.2313 298.612 95.2139 298.33 95.2475C298.047 95.2811 297.762 95.3549 297.474 95.4688C297.195 95.5805 296.921 95.7234 296.654 95.8975C296.391 96.0729 296.153 96.2683 295.937 96.4836C295.729 96.6917 295.562 96.8995 295.435 97.1067C295.314 97.3153 295.246 97.5109 295.231 97.6936C295.221 97.8775 295.276 98.0401 295.396 98.1814C295.519 98.3191 295.718 98.4248 295.992 98.4983C296.252 98.5679 296.524 98.5951 296.806 98.5798C297.097 98.5622 297.382 98.5135 297.661 98.4335C297.944 98.3499 298.202 98.2439 298.436 98.1155C298.678 97.9848 298.884 97.8419 299.051 97.6866L299.52 98.0852C299.258 98.3471 298.924 98.5852 298.517 98.7993C298.115 99.0147 297.675 99.1903 297.197 99.3262C296.728 99.4599 296.254 99.5422 295.775 99.5732C295.3 99.6007 294.859 99.5599 294.453 99.4508C293.948 99.3155 293.57 99.1278 293.319 98.8877C293.068 98.6475 292.93 98.3717 292.906 98.0603C292.89 97.7467 292.974 97.4142 293.157 97.0629C293.344 96.708 293.619 96.3494 293.982 95.9869C294.359 95.6101 294.793 95.2782 295.285 94.9914C295.78 94.701 296.306 94.4709 296.861 94.3011C297.425 94.1291 297.996 94.0297 298.576 94.0031C299.16 93.9729 299.724 94.0307 300.268 94.1765C300.832 94.3275 301.253 94.5429 301.533 94.8226C301.813 95.1024 301.963 95.4272 301.985 95.797C302.011 96.1633 301.91 96.5619 301.684 96.9929C301.464 97.4251 301.123 97.8709 300.664 98.3303L300.163 98.8309C299.679 99.3154 299.153 99.7571 298.587 100.156C298.02 100.555 297.42 100.897 296.787 101.182C296.153 101.467 295.492 101.684 294.804 101.832C294.12 101.981 293.412 102.048 292.681 102.034C291.957 102.018 291.221 101.909 290.47 101.708L290.301 101.663L291.464 100.5Z" fill="#009BE2"/>
<path d="M126.9 118.017L125.78 119.137L118.066 117.07L118.847 116.187L128.622 112.165L130.173 112.581L126.413 114.215L121.083 116.459L126.9 118.017ZM130.607 112.697L122.769 120.535L120.82 120.013L128.659 112.175L130.607 112.697Z" fill="#009BE2"/>
<path d="M91.2182 110.041L92.3139 110.335C92.7012 110.439 93.0683 110.475 93.4153 110.446C93.7707 110.413 94.0958 110.328 94.3906 110.188C94.6939 110.046 94.9604 109.861 95.1901 109.631C95.4162 109.405 95.5554 109.194 95.6078 108.999C95.6637 108.8 95.6213 108.625 95.4806 108.473C95.3484 108.32 95.1058 108.196 94.7528 108.101C94.4685 108.025 94.1649 107.996 93.8422 108.014C93.5243 108.033 93.2171 108.101 92.9206 108.218C92.6326 108.331 92.3828 108.494 92.171 108.706L90.2223 108.184C90.6458 107.76 91.1692 107.43 91.7926 107.192C92.4244 106.952 93.0941 106.81 93.8017 106.768C94.5093 106.725 95.1867 106.791 95.8338 106.964C96.5398 107.153 97.0713 107.405 97.4285 107.719C97.7942 108.031 97.9591 108.391 97.923 108.8C97.8919 109.211 97.6323 109.66 97.1442 110.148C96.911 110.381 96.6017 110.594 96.2164 110.787C95.8397 110.977 95.4134 111.127 94.9375 111.236C94.4701 111.343 93.9707 111.398 93.4391 111.401C92.9161 111.402 92.3873 111.331 91.853 111.187L90.4484 110.811L91.2182 110.041ZM90.12 111.139L90.8791 110.38L92.2836 110.757C92.8866 110.918 93.3567 111.11 93.6939 111.332C94.0395 111.553 94.2636 111.795 94.3662 112.059C94.4725 112.319 94.4722 112.59 94.3654 112.871C94.2635 113.153 94.0726 113.434 93.7927 113.714C93.4266 114.08 93.0069 114.382 92.5335 114.619C92.0637 114.852 91.561 115.022 91.0253 115.129C90.4946 115.237 89.9516 115.283 89.3965 115.266C88.845 115.246 88.307 115.165 87.7824 115.025C87.3265 114.903 86.9277 114.739 86.586 114.534C86.2528 114.326 86.0061 114.085 85.846 113.81C85.6894 113.531 85.6506 113.225 85.7295 112.891C85.8121 112.554 86.0399 112.198 86.4132 111.825L88.3619 112.347C88.1466 112.563 88.0256 112.774 87.9991 112.981C87.9775 113.189 88.0458 113.375 88.2038 113.54C88.3703 113.703 88.6153 113.828 88.9389 113.915C89.2968 114.011 89.6498 114.046 89.9981 114.021C90.3548 113.994 90.6897 113.911 91.0029 113.772C91.3196 113.629 91.6017 113.434 91.8494 113.186C92.1437 112.892 92.3063 112.633 92.3374 112.409C92.3684 112.185 92.2849 111.992 92.0866 111.83C91.8933 111.669 91.603 111.537 91.2157 111.433L90.12 111.139Z" fill="#009BE2"/>
<path d="M166.999 114.993L166.224 115.768L154.955 121.704L152.903 121.154L163.828 115.563L158.386 114.105L159.506 112.985L166.999 114.993Z" fill="#009BE2"/>
<rect width="11.911" height="82.8954" transform="matrix(0.965926 0.258819 -0.707107 0.707107 279.336 102.406)" fill="url(#paint3_linear_55_646)"/>
<rect width="11.911" height="54.3108" transform="matrix(0.965926 0.258819 -0.707107 0.707107 230.002 114.816)" fill="url(#paint4_linear_55_646)"/>
<rect width="11.911" height="40.0184" transform="matrix(0.965926 0.258819 -0.707107 0.707107 190.597 116.838)" fill="url(#paint5_linear_55_646)"/>
<rect width="11.911" height="20.0092" transform="matrix(0.965926 0.258819 -0.707107 0.707107 146.782 123.271)" fill="url(#paint6_linear_55_646)"/>
<rect width="11.911" height="11.4338" transform="matrix(0.965926 0.258819 -0.707107 0.707107 111.421 121.251)" fill="url(#paint7_linear_55_646)"/>
<rect width="11.911" height="8.57538" transform="matrix(0.965926 0.258819 -0.707107 0.707107 80.0939 115.653)" fill="url(#paint8_linear_55_646)"/>
<defs>
<filter id="filter0_b_55_646" x="-12.6172" y="-18.3997" width="412.889" height="242.572" filterUnits="userSpaceOnUse" color-interpolation-filters="sRGB">
<feFlood flood-opacity="0" result="BackgroundImageFix"/>
<feGaussianBlur in="BackgroundImageFix" stdDeviation="11.5374"/>
<feComposite in2="SourceAlpha" operator="in" result="effect1_backgroundBlur_55_646"/>
<feBlend mode="normal" in="SourceGraphic" in2="effect1_backgroundBlur_55_646" result="shape"/>
</filter>
<linearGradient id="paint0_linear_55_646" x1="-297.75" y1="-120.228" x2="-198.299" y2="395.382" gradientUnits="userSpaceOnUse">
<stop stop-color="#28374D"/>
<stop offset="0.0001" stop-color="#273E6C"/>
<stop offset="0.183892" stop-color="#264AA0"/>
<stop offset="0.468148" stop-color="#B4CBE7"/>
<stop offset="0.661964" stop-color="#E4F7FF"/>
<stop offset="1" stop-color="white"/>
</linearGradient>
<radialGradient id="paint1_radial_55_646" cx="0" cy="0" r="1" gradientUnits="userSpaceOnUse" gradientTransform="translate(128.61 1.78962) rotate(90) scale(170.909 223.313)">
<stop stop-color="white"/>
<stop offset="1" stop-color="white" stop-opacity="0"/>
</radialGradient>
<radialGradient id="paint2_radial_55_646" cx="0" cy="0" r="1" gradientUnits="userSpaceOnUse" gradientTransform="translate(133.742 229.548) rotate(-84.954) scale(185.661 221.334)">
<stop stop-color="white"/>
<stop offset="1" stop-color="white" stop-opacity="0"/>
</radialGradient>
<linearGradient id="paint3_linear_55_646" x1="1.82388" y1="-11.9162" x2="56.3615" y2="45.3262" gradientUnits="userSpaceOnUse">
<stop stop-color="white"/>
<stop offset="0.38568" stop-color="#17A6E8"/>
<stop offset="0.848958" stop-color="#314F97"/>
</linearGradient>
<linearGradient id="paint4_linear_55_646" x1="1.82388" y1="-7.80717" x2="33.962" y2="43.6786" gradientUnits="userSpaceOnUse">
<stop stop-color="white"/>
<stop offset="0.38568" stop-color="#17A6E8"/>
<stop offset="0.848958" stop-color="#314F97"/>
</linearGradient>
<linearGradient id="paint5_linear_55_646" x1="1.82388" y1="-5.75265" x2="21.8377" y2="37.7607" gradientUnits="userSpaceOnUse">
<stop stop-color="white"/>
<stop offset="0.38568" stop-color="#17A6E8"/>
<stop offset="0.848958" stop-color="#314F97"/>
</linearGradient>
<linearGradient id="paint6_linear_55_646" x1="1.82388" y1="-2.87633" x2="7.58133" y2="22.159" gradientUnits="userSpaceOnUse">
<stop stop-color="white"/>
<stop offset="0.38568" stop-color="#17A6E8"/>
<stop offset="0.848958" stop-color="#314F97"/>
</linearGradient>
<linearGradient id="paint7_linear_55_646" x1="1.82388" y1="-1.64361" x2="3.76969" y2="13.1632" gradientUnits="userSpaceOnUse">
<stop stop-color="white"/>
<stop offset="0.38568" stop-color="#17A6E8"/>
<stop offset="0.848958" stop-color="#314F97"/>
</linearGradient>
<linearGradient id="paint8_linear_55_646" x1="1.82388" y1="-1.23271" x2="2.92659" y2="9.95547" gradientUnits="userSpaceOnUse">
<stop stop-color="white"/>
<stop offset="0.38568" stop-color="#17A6E8"/>
<stop offset="0.848958" stop-color="#314F97"/>
</linearGradient>
</defs>
</svg>
