<svg width="400" height="400" viewBox="0 0 538 366" fill="none" xmlns="http://www.w3.org/2000/svg">
<g filter="url(#filter0_b_55_610)">
<path d="M280.591 21.7045C285.953 16.3408 296.237 13.5842 303.561 15.5475L511.77 59.4988C514.67 60.1108 517.623 60.8845 520.242 62.2705C524.201 64.3661 529.365 68.9085 528.941 80.8132C528.772 85.5496 526.323 89.8506 522.975 93.2048L262.083 354.542C251.891 365.462 238.467 366.697 231.143 364.734L24.7378 309.036C17.5358 307.093 11.1729 301.888 10.276 294.483C8.85221 282.726 14.0268 276.451 18.1997 272.276L280.591 21.7045Z" fill="url(#paint0_linear_55_610)"/>
</g>
<g filter="url(#filter1_b_55_610)">
<rect width="256.347" height="410.67" rx="23.3246" transform="matrix(0.965926 0.258819 -0.707107 0.707107 290.388 0.000244141)" fill="url(#paint1_linear_55_610)"/>
<rect x="0.264113" y="0.985681" width="254.306" height="408.629" rx="22.3042" transform="matrix(0.965926 0.258819 -0.707107 0.707107 291.094 0.220586)" stroke="url(#paint2_radial_55_610)" stroke-width="2.0409"/>
<rect x="0.264113" y="0.985681" width="254.306" height="408.629" rx="22.3042" transform="matrix(0.965926 0.258819 -0.707107 0.707107 291.094 0.220586)" stroke="url(#paint3_radial_55_610)" stroke-width="2.0409"/>
</g>
<defs>
<filter id="filter0_b_55_610" x="-14.4558" y="-9.57631" width="567.912" height="399.573" filterUnits="userSpaceOnUse" color-interpolation-filters="sRGB">
<feFlood flood-opacity="0" result="BackgroundImageFix"/>
<feGaussianBlur in="BackgroundImageFix" stdDeviation="12.2454"/>
<feComposite in2="SourceAlpha" operator="in" result="effect1_backgroundBlur_55_610"/>
<feBlend mode="normal" in="SourceGraphic" in2="effect1_backgroundBlur_55_610" result="shape"/>
</filter>
<filter id="filter1_b_55_610" x="-13.3915" y="-19.5287" width="564.783" height="395.793" filterUnits="userSpaceOnUse" color-interpolation-filters="sRGB">
<feFlood flood-opacity="0" result="BackgroundImageFix"/>
<feGaussianBlur in="BackgroundImageFix" stdDeviation="12.2454"/>
<feComposite in2="SourceAlpha" operator="in" result="effect1_backgroundBlur_55_610"/>
<feBlend mode="normal" in="SourceGraphic" in2="effect1_backgroundBlur_55_610" result="shape"/>
</filter>
<linearGradient id="paint0_linear_55_610" x1="402.835" y1="-292.639" x2="198.117" y2="624.414" gradientUnits="userSpaceOnUse">
<stop stop-color="#264AA0" stop-opacity="0.5"/>
<stop offset="0.398849" stop-color="#DFE9EE" stop-opacity="0.5"/>
<stop offset="0.897725" stop-color="white" stop-opacity="0.5"/>
</linearGradient>
<linearGradient id="paint1_linear_55_610" x1="-156.812" y1="-373.405" x2="-101.26" y2="736.926" gradientUnits="userSpaceOnUse">
<stop stop-color="#264AA0" stop-opacity="0.5"/>
<stop offset="0.398849" stop-color="#DFE9EE" stop-opacity="0.5"/>
<stop offset="0.897725" stop-color="white" stop-opacity="0.5"/>
</linearGradient>
<radialGradient id="paint2_radial_55_610" cx="0" cy="0" r="1" gradientUnits="userSpaceOnUse" gradientTransform="translate(128.174 3.73337) rotate(90) scale(356.536 222.556)">
<stop stop-color="white"/>
<stop offset="1" stop-color="white" stop-opacity="0"/>
</radialGradient>
<radialGradient id="paint3_radial_55_610" cx="0" cy="0" r="1" gradientUnits="userSpaceOnUse" gradientTransform="translate(128.174 410.67) rotate(-90) scale(205.335 128.174)">
<stop stop-color="white"/>
<stop offset="1" stop-color="white" stop-opacity="0"/>
</radialGradient>
</defs>
</svg>
