<svg width="60" height="60" viewBox="0 0 60 60" fill="none" xmlns="http://www.w3.org/2000/svg">
<path d="M18.4787 0.000115169C28.7112 0.000115169 36.9573 8.24618 36.9573 18.4787C36.9573 19.0215 36.8718 19.756 36.8118 20.4282L56.5908 40.2049C57.6712 41.2783 58.5286 42.5548 59.1137 43.9609C59.6988 45.3669 60 46.8749 60 48.3978C60 49.9208 59.6988 51.4287 59.1137 52.8348C58.5286 54.2409 57.6712 55.5174 56.5908 56.5908C55.5174 57.6712 54.2409 58.5286 52.8348 59.1137C51.4287 59.6988 49.9208 60 48.3978 60C46.8749 60 45.3669 59.6988 43.9609 59.1137C42.5548 58.5286 41.2783 57.6712 40.2049 56.5908L20.4282 36.8118C19.7584 36.8718 19.0192 36.9573 18.4787 36.9573C8.24622 36.9573 0.000148773 28.7112 0.000148773 18.4787C-0.0120354 15.5013 0.733562 12.5698 2.16676 9.96007C2.88662 8.62862 4.705 8.38569 5.7747 9.45653L15.6242 19.2306C15.6865 19.2925 15.7872 19.2923 15.8493 19.2302L19.2325 15.847C19.2947 15.7849 19.2948 15.6842 19.2329 15.6218L9.45887 5.77467C8.38715 4.70523 8.62799 2.88401 9.9601 2.16442C12.5708 0.73401 15.5018 -0.0106542 18.4787 0.000115169ZM18.4787 4.61976C17.3561 4.61976 16.52 5.10482 15.5221 5.34274L24.2533 14.0739L24.2909 14.1115C25.1824 15.003 25.1654 16.4535 24.2533 17.3238L17.3238 24.2533C16.4524 25.1652 15.001 25.1807 14.1104 24.2875L14.0762 24.2533L5.34046 15.5221C5.10255 16.52 4.61979 17.3561 4.61979 18.4787C4.61979 26.2628 10.6946 32.3376 18.4787 32.3376C19.4027 32.3376 20.1418 32.3376 20.7192 32.1921L21.9435 31.8318L22.8812 32.7719L43.4548 53.3455C46.2959 56.1866 50.4998 56.1866 53.3409 53.3455L53.4148 53.2716C56.1866 50.4305 56.1635 46.2728 53.3455 43.4548L32.7719 22.8835L31.8318 21.9457L32.1967 20.7215C32.3353 20.1441 32.34 19.4049 32.34 18.481C32.34 10.6969 26.2651 4.62207 18.481 4.62207L18.4787 4.61976Z" fill="#009BE2"/>
</svg>
