<svg width="60" height="58" viewBox="0 0 60 58" fill="none" xmlns="http://www.w3.org/2000/svg">
<path d="M52.0028 0.499757C50.272 0.499013 48.5876 1.06009 47.2029 2.09865C45.8182 3.13722 44.808 4.59715 44.3242 6.25903C43.8403 7.9209 43.909 9.69493 44.5198 11.3145C45.1306 12.934 46.2505 14.3115 47.7113 15.24L42.4928 33.5045C42.3308 33.4942 42.1686 33.4887 42.0062 33.4882C40.286 33.4864 38.6114 34.0422 37.2337 35.0724L27.5928 27.0384C28.0492 25.6842 28.1344 24.2324 27.8396 22.8341C27.5447 21.4358 26.8805 20.142 25.9162 19.0874C24.9518 18.0328 23.7225 17.2559 22.356 16.8374C20.9896 16.419 19.536 16.3744 18.1464 16.7081C16.7569 17.0419 15.4822 17.7419 14.4549 18.7354C13.4276 19.7288 12.6853 20.9794 12.3052 22.3569C11.9251 23.7345 11.921 25.1888 12.2935 26.5684C12.6659 27.9481 13.4013 29.2028 14.423 30.2019L8.76343 41.5214C8.51558 41.4979 8.26677 41.4859 8.01781 41.4855C6.10192 41.483 4.24865 42.1675 2.7944 43.4148C1.34014 44.6621 0.381293 46.3895 0.091897 48.2834C-0.197499 50.1773 0.201739 52.1121 1.21715 53.7368C2.23255 55.3615 3.79682 56.5682 5.62601 57.138C7.4552 57.7078 9.42807 57.6029 11.1865 56.8423C12.9449 56.0817 14.3724 54.7159 15.2098 52.9927C16.0471 51.2695 16.2389 49.3032 15.7503 47.4507C15.2616 45.5981 14.125 43.9822 12.5466 42.8962L17.8948 32.2013C19.194 32.5597 20.5627 32.5832 21.8734 32.2695C23.1841 31.9558 24.3939 31.3152 25.39 30.4074L34.7243 38.1862C34.0905 39.5831 33.8717 41.1327 34.0941 42.6504C34.3165 44.1682 34.9707 45.5899 35.9787 46.7461C36.9867 47.9024 38.306 48.7443 39.7792 49.1716C41.2525 49.5989 42.8175 49.5934 44.2877 49.156C45.7579 48.7185 47.0713 47.8674 48.0713 46.7042C49.0713 45.541 49.7156 44.1148 49.9275 42.5956C50.1394 41.0764 49.9099 39.5283 49.2664 38.1359C48.6229 36.7435 47.5925 35.5655 46.298 34.7424L51.5163 16.4779C51.6773 16.4877 51.8393 16.4942 52.0028 16.4942C54.1239 16.4942 56.158 15.6516 57.6578 14.1518C59.1576 12.6521 60.0001 10.618 60.0001 8.49697C60.0001 6.37597 59.1576 4.34185 57.6578 2.84208C56.158 1.34232 54.1239 0.499757 52.0028 0.499757ZM8.01781 53.4813C7.22695 53.4813 6.45385 53.2468 5.79628 52.8074C5.13871 52.368 4.62619 51.7435 4.32354 51.0129C4.0209 50.2822 3.94171 49.4782 4.096 48.7026C4.25029 47.9269 4.63112 47.2144 5.19034 46.6552C5.74956 46.096 6.46205 45.7152 7.23771 45.5609C8.01337 45.4066 8.81736 45.4858 9.54802 45.7884C10.2787 46.0911 10.9032 46.6036 11.3426 47.2612C11.7819 47.9187 12.0164 48.6918 12.0164 49.4827C12.0153 50.5428 11.5936 51.5592 10.844 52.3088C10.0943 53.0584 9.07795 53.4801 8.01781 53.4813ZM20.0137 28.49C19.2229 28.49 18.4498 28.2555 17.7922 27.8161C17.1346 27.3767 16.6221 26.7522 16.3195 26.0216C16.0168 25.2909 15.9376 24.4869 16.0919 23.7113C16.2462 22.9356 16.627 22.2232 17.1863 21.6639C17.7455 21.1047 18.458 20.7239 19.2336 20.5696C20.0093 20.4153 20.8133 20.4945 21.5439 20.7972C22.2746 21.0998 22.8991 21.6123 23.3385 22.2699C23.7779 22.9274 24.0124 23.7005 24.0124 24.4914C24.0112 25.5515 23.5895 26.5679 22.8399 27.3175C22.0902 28.0671 21.0739 28.4888 20.0137 28.49ZM42.0062 45.4841C41.2154 45.4841 40.4423 45.2495 39.7847 44.8102C39.1271 44.3708 38.6146 43.7463 38.312 43.0157C38.0093 42.285 37.9302 41.481 38.0844 40.7054C38.2387 39.9297 38.6196 39.2172 39.1788 38.658C39.738 38.0988 40.4505 37.718 41.2262 37.5637C42.0018 37.4094 42.8058 37.4886 43.5365 37.7912C44.2671 38.0939 44.8916 38.6064 45.331 39.2639C45.7704 39.9215 46.0049 40.6946 46.0049 41.4855C46.0037 42.5456 45.582 43.562 44.8324 44.3116C44.0828 45.0612 43.0664 45.4829 42.0062 45.4841ZM52.0028 12.4956C51.212 12.4956 50.4389 12.2611 49.7813 11.8217C49.1237 11.3823 48.6112 10.7578 48.3086 10.0272C48.0059 9.29652 47.9268 8.49253 48.081 7.71688C48.2353 6.94122 48.6162 6.22874 49.1754 5.66953C49.7346 5.11031 50.4471 4.72948 51.2228 4.57519C51.9984 4.42091 52.8024 4.50009 53.5331 4.80274C54.2637 5.10538 54.8882 5.61789 55.3276 6.27546C55.767 6.93303 56.0015 7.70612 56.0015 8.49697C56.0003 9.5571 55.5786 10.5735 54.829 11.3231C54.0794 12.0727 53.063 12.4944 52.0028 12.4956Z" fill="#009BE2"/>
</svg>
